<svg xmlns="http://www.w3.org/2000/svg" xmlns:xlink="http://www.w3.org/1999/xlink" width="800" zoomAndPan="magnify" viewBox="0 0 600 165.000002" height="220" preserveAspectRatio="xMidYMid meet" version="1.0"><defs><g/><clipPath id="id1"><path d="M 1.808594 0 L 598.191406 0 L 598.191406 164.007812 L 1.808594 164.007812 Z M 1.808594 0 " clip-rule="nonzero"/></clipPath><clipPath id="id2"><path d="M 28 27.070312 L 568 27.070312 L 568 136.65625 L 28 136.65625 Z M 28 27.070312 " clip-rule="nonzero"/></clipPath><clipPath id="id3"><path d="M 27.640625 27.070312 L 568.117188 27.070312 L 568.117188 136.65625 L 27.640625 136.65625 Z M 27.640625 27.070312 " clip-rule="nonzero"/></clipPath><clipPath id="id4"><path d="M 1.808594 68 L 54 68 L 54 164.007812 L 1.808594 164.007812 Z M 1.808594 68 " clip-rule="nonzero"/></clipPath><clipPath id="id5"><path d="M 7.125 104.21875 L 77.921875 104.21875 L 77.921875 164.007812 L 7.125 164.007812 Z M 7.125 104.21875 " clip-rule="nonzero"/></clipPath><clipPath id="id6"><path d="M 70 162 L 73 162 L 73 164.007812 L 70 164.007812 Z M 70 162 " clip-rule="nonzero"/></clipPath><clipPath id="id7"><path d="M 13 47 L 21 47 L 21 54 L 13 54 Z M 13 47 " clip-rule="nonzero"/></clipPath><clipPath id="id8"><path d="M 4.226562 50.722656 L 16.753906 36.925781 L 30.554688 49.453125 L 18.023438 63.25 Z M 4.226562 50.722656 " clip-rule="nonzero"/></clipPath><clipPath id="id9"><path d="M 4.226562 50.722656 L 16.753906 36.925781 L 30.554688 49.453125 L 18.023438 63.25 Z M 4.226562 50.722656 " clip-rule="nonzero"/></clipPath><clipPath id="id10"><path d="M 15 57 L 20 57 L 20 63 L 15 63 Z M 15 57 " clip-rule="nonzero"/></clipPath><clipPath id="id11"><path d="M 4.226562 50.722656 L 16.753906 36.925781 L 30.554688 49.453125 L 18.023438 63.25 Z M 4.226562 50.722656 " clip-rule="nonzero"/></clipPath><clipPath id="id12"><path d="M 4.226562 50.722656 L 16.753906 36.925781 L 30.554688 49.453125 L 18.023438 63.25 Z M 4.226562 50.722656 " clip-rule="nonzero"/></clipPath><clipPath id="id13"><path d="M 21 44 L 27 44 L 27 49 L 21 49 Z M 21 44 " clip-rule="nonzero"/></clipPath><clipPath id="id14"><path d="M 4.226562 50.722656 L 16.753906 36.925781 L 30.554688 49.453125 L 18.023438 63.25 Z M 4.226562 50.722656 " clip-rule="nonzero"/></clipPath><clipPath id="id15"><path d="M 4.226562 50.722656 L 16.753906 36.925781 L 30.554688 49.453125 L 18.023438 63.25 Z M 4.226562 50.722656 " clip-rule="nonzero"/></clipPath><clipPath id="id16"><path d="M 8 50 L 12 50 L 12 54 L 8 54 Z M 8 50 " clip-rule="nonzero"/></clipPath><clipPath id="id17"><path d="M 4.226562 50.722656 L 16.753906 36.925781 L 30.554688 49.453125 L 18.023438 63.25 Z M 4.226562 50.722656 " clip-rule="nonzero"/></clipPath><clipPath id="id18"><path d="M 4.226562 50.722656 L 16.753906 36.925781 L 30.554688 49.453125 L 18.023438 63.25 Z M 4.226562 50.722656 " clip-rule="nonzero"/></clipPath><clipPath id="id19"><path d="M 13 39 L 16 39 L 16 43 L 13 43 Z M 13 39 " clip-rule="nonzero"/></clipPath><clipPath id="id20"><path d="M 4.226562 50.722656 L 16.753906 36.925781 L 30.554688 49.453125 L 18.023438 63.25 Z M 4.226562 50.722656 " clip-rule="nonzero"/></clipPath><clipPath id="id21"><path d="M 4.226562 50.722656 L 16.753906 36.925781 L 30.554688 49.453125 L 18.023438 63.25 Z M 4.226562 50.722656 " clip-rule="nonzero"/></clipPath><clipPath id="id22"><path d="M 25 50 L 28 50 L 28 54 L 25 54 Z M 25 50 " clip-rule="nonzero"/></clipPath><clipPath id="id23"><path d="M 4.226562 50.722656 L 16.753906 36.925781 L 30.554688 49.453125 L 18.023438 63.25 Z M 4.226562 50.722656 " clip-rule="nonzero"/></clipPath><clipPath id="id24"><path d="M 4.226562 50.722656 L 16.753906 36.925781 L 30.554688 49.453125 L 18.023438 63.25 Z M 4.226562 50.722656 " clip-rule="nonzero"/></clipPath><clipPath id="id25"><path d="M 15 48 L 18 48 L 18 51 L 15 51 Z M 15 48 " clip-rule="nonzero"/></clipPath><clipPath id="id26"><path d="M 4.226562 50.722656 L 16.753906 36.925781 L 30.554688 49.453125 L 18.023438 63.25 Z M 4.226562 50.722656 " clip-rule="nonzero"/></clipPath><clipPath id="id27"><path d="M 4.226562 50.722656 L 16.753906 36.925781 L 30.554688 49.453125 L 18.023438 63.25 Z M 4.226562 50.722656 " clip-rule="nonzero"/></clipPath><clipPath id="id28"><path d="M 16 58 L 18 58 L 18 60 L 16 60 Z M 16 58 " clip-rule="nonzero"/></clipPath><clipPath id="id29"><path d="M 4.226562 50.722656 L 16.753906 36.925781 L 30.554688 49.453125 L 18.023438 63.25 Z M 4.226562 50.722656 " clip-rule="nonzero"/></clipPath><clipPath id="id30"><path d="M 4.226562 50.722656 L 16.753906 36.925781 L 30.554688 49.453125 L 18.023438 63.25 Z M 4.226562 50.722656 " clip-rule="nonzero"/></clipPath><clipPath id="id31"><path d="M 22 44 L 25 44 L 25 46 L 22 46 Z M 22 44 " clip-rule="nonzero"/></clipPath><clipPath id="id32"><path d="M 4.226562 50.722656 L 16.753906 36.925781 L 30.554688 49.453125 L 18.023438 63.25 Z M 4.226562 50.722656 " clip-rule="nonzero"/></clipPath><clipPath id="id33"><path d="M 4.226562 50.722656 L 16.753906 36.925781 L 30.554688 49.453125 L 18.023438 63.25 Z M 4.226562 50.722656 " clip-rule="nonzero"/></clipPath><clipPath id="id34"><path d="M 542 73 L 598.191406 73 L 598.191406 164.007812 L 542 164.007812 Z M 542 73 " clip-rule="nonzero"/></clipPath><clipPath id="id35"><path d="M 530.867188 97.582031 L 597.6875 97.582031 L 597.6875 164.007812 L 530.867188 164.007812 Z M 530.867188 97.582031 " clip-rule="nonzero"/></clipPath><clipPath id="id36"><path d="M 575 54 L 582 54 L 582 61 L 575 61 Z M 575 54 " clip-rule="nonzero"/></clipPath><clipPath id="id37"><path d="M 566.109375 57.296875 L 578.136719 44.050781 L 591.382812 56.078125 L 579.355469 69.324219 Z M 566.109375 57.296875 " clip-rule="nonzero"/></clipPath><clipPath id="id38"><path d="M 566.109375 57.296875 L 578.136719 44.050781 L 591.382812 56.078125 L 579.355469 69.324219 Z M 566.109375 57.296875 " clip-rule="nonzero"/></clipPath><clipPath id="id39"><path d="M 576 64 L 581 64 L 581 69 L 576 69 Z M 576 64 " clip-rule="nonzero"/></clipPath><clipPath id="id40"><path d="M 566.109375 57.296875 L 578.136719 44.050781 L 591.382812 56.078125 L 579.355469 69.324219 Z M 566.109375 57.296875 " clip-rule="nonzero"/></clipPath><clipPath id="id41"><path d="M 566.109375 57.296875 L 578.136719 44.050781 L 591.382812 56.078125 L 579.355469 69.324219 Z M 566.109375 57.296875 " clip-rule="nonzero"/></clipPath><clipPath id="id42"><path d="M 582 51 L 588 51 L 588 56 L 582 56 Z M 582 51 " clip-rule="nonzero"/></clipPath><clipPath id="id43"><path d="M 566.109375 57.296875 L 578.136719 44.050781 L 591.382812 56.078125 L 579.355469 69.324219 Z M 566.109375 57.296875 " clip-rule="nonzero"/></clipPath><clipPath id="id44"><path d="M 566.109375 57.296875 L 578.136719 44.050781 L 591.382812 56.078125 L 579.355469 69.324219 Z M 566.109375 57.296875 " clip-rule="nonzero"/></clipPath><clipPath id="id45"><path d="M 570 57 L 574 57 L 574 61 L 570 61 Z M 570 57 " clip-rule="nonzero"/></clipPath><clipPath id="id46"><path d="M 566.109375 57.296875 L 578.136719 44.050781 L 591.382812 56.078125 L 579.355469 69.324219 Z M 566.109375 57.296875 " clip-rule="nonzero"/></clipPath><clipPath id="id47"><path d="M 566.109375 57.296875 L 578.136719 44.050781 L 591.382812 56.078125 L 579.355469 69.324219 Z M 566.109375 57.296875 " clip-rule="nonzero"/></clipPath><clipPath id="id48"><path d="M 574 46 L 578 46 L 578 50 L 574 50 Z M 574 46 " clip-rule="nonzero"/></clipPath><clipPath id="id49"><path d="M 566.109375 57.296875 L 578.136719 44.050781 L 591.382812 56.078125 L 579.355469 69.324219 Z M 566.109375 57.296875 " clip-rule="nonzero"/></clipPath><clipPath id="id50"><path d="M 566.109375 57.296875 L 578.136719 44.050781 L 591.382812 56.078125 L 579.355469 69.324219 Z M 566.109375 57.296875 " clip-rule="nonzero"/></clipPath><clipPath id="id51"><path d="M 586 57 L 589 57 L 589 60 L 586 60 Z M 586 57 " clip-rule="nonzero"/></clipPath><clipPath id="id52"><path d="M 566.109375 57.296875 L 578.136719 44.050781 L 591.382812 56.078125 L 579.355469 69.324219 Z M 566.109375 57.296875 " clip-rule="nonzero"/></clipPath><clipPath id="id53"><path d="M 566.109375 57.296875 L 578.136719 44.050781 L 591.382812 56.078125 L 579.355469 69.324219 Z M 566.109375 57.296875 " clip-rule="nonzero"/></clipPath><clipPath id="id54"><path d="M 577 54 L 579 54 L 579 57 L 577 57 Z M 577 54 " clip-rule="nonzero"/></clipPath><clipPath id="id55"><path d="M 566.109375 57.296875 L 578.136719 44.050781 L 591.382812 56.078125 L 579.355469 69.324219 Z M 566.109375 57.296875 " clip-rule="nonzero"/></clipPath><clipPath id="id56"><path d="M 566.109375 57.296875 L 578.136719 44.050781 L 591.382812 56.078125 L 579.355469 69.324219 Z M 566.109375 57.296875 " clip-rule="nonzero"/></clipPath><clipPath id="id57"><path d="M 578 64 L 580 64 L 580 66 L 578 66 Z M 578 64 " clip-rule="nonzero"/></clipPath><clipPath id="id58"><path d="M 566.109375 57.296875 L 578.136719 44.050781 L 591.382812 56.078125 L 579.355469 69.324219 Z M 566.109375 57.296875 " clip-rule="nonzero"/></clipPath><clipPath id="id59"><path d="M 566.109375 57.296875 L 578.136719 44.050781 L 591.382812 56.078125 L 579.355469 69.324219 Z M 566.109375 57.296875 " clip-rule="nonzero"/></clipPath><clipPath id="id60"><path d="M 584 51 L 586 51 L 586 53 L 584 53 Z M 584 51 " clip-rule="nonzero"/></clipPath><clipPath id="id61"><path d="M 566.109375 57.296875 L 578.136719 44.050781 L 591.382812 56.078125 L 579.355469 69.324219 Z M 566.109375 57.296875 " clip-rule="nonzero"/></clipPath><clipPath id="id62"><path d="M 566.109375 57.296875 L 578.136719 44.050781 L 591.382812 56.078125 L 579.355469 69.324219 Z M 566.109375 57.296875 " clip-rule="nonzero"/></clipPath><clipPath id="id63"><path d="M 31.824219 21.902344 L 50.003906 21.902344 L 50.003906 36.796875 L 31.824219 36.796875 Z M 31.824219 21.902344 " clip-rule="nonzero"/></clipPath><clipPath id="id64"><path d="M 44.324219 24.613281 L 50.003906 24.613281 L 50.003906 33.675781 L 44.324219 33.675781 Z M 44.324219 24.613281 " clip-rule="nonzero"/></clipPath><clipPath id="id65"><path d="M 38.382812 21.902344 L 44.875 21.902344 L 44.875 36.796875 L 38.382812 36.796875 Z M 38.382812 21.902344 " clip-rule="nonzero"/></clipPath><clipPath id="id66"><path d="M 27.640625 26 L 33 26 L 33 34 L 27.640625 34 Z M 27.640625 26 " clip-rule="nonzero"/></clipPath><clipPath id="id67"><path d="M 41 40.363281 L 64.597656 40.363281 L 64.597656 59.730469 L 41 59.730469 Z M 41 40.363281 " clip-rule="nonzero"/></clipPath><clipPath id="id68"><path d="M 57.214844 43.890625 L 64.597656 43.890625 L 64.597656 55.671875 L 57.214844 55.671875 Z M 57.214844 43.890625 " clip-rule="nonzero"/></clipPath><clipPath id="id69"><path d="M 60 51 L 64.597656 51 L 64.597656 54 L 60 54 Z M 60 51 " clip-rule="nonzero"/></clipPath><clipPath id="id70"><path d="M 49.488281 40.363281 L 57.929688 40.363281 L 57.929688 59.730469 L 49.488281 59.730469 Z M 49.488281 40.363281 " clip-rule="nonzero"/></clipPath><clipPath id="id71"><path d="M 35.523438 46 L 42 46 L 42 56 L 35.523438 56 Z M 35.523438 46 " clip-rule="nonzero"/></clipPath><clipPath id="id72"><path d="M 494.574219 128.390625 L 516.996094 128.390625 L 516.996094 147.019531 L 494.574219 147.019531 Z M 494.574219 128.390625 " clip-rule="nonzero"/></clipPath><clipPath id="id73"><path d="M 510 131.78125 L 516.996094 131.78125 L 516.996094 143.113281 L 510 143.113281 Z M 510 131.78125 " clip-rule="nonzero"/></clipPath><clipPath id="id74"><path d="M 512 138 L 516.996094 138 L 516.996094 141 L 512 141 Z M 512 138 " clip-rule="nonzero"/></clipPath><clipPath id="id75"><path d="M 502.660156 128.390625 L 510.671875 128.390625 L 510.671875 147.019531 L 502.660156 147.019531 Z M 502.660156 128.390625 " clip-rule="nonzero"/></clipPath><clipPath id="id76"><path d="M 489.414062 133 L 496 133 L 496 144 L 489.414062 144 Z M 489.414062 133 " clip-rule="nonzero"/></clipPath><clipPath id="id77"><path d="M 522.773438 119.691406 L 537.316406 119.691406 L 537.316406 131.617188 L 522.773438 131.617188 Z M 522.773438 119.691406 " clip-rule="nonzero"/></clipPath><clipPath id="id78"><path d="M 532.773438 121.863281 L 537.316406 121.863281 L 537.316406 129.117188 L 532.773438 129.117188 Z M 532.773438 121.863281 " clip-rule="nonzero"/></clipPath><clipPath id="id79"><path d="M 534 126 L 537.316406 126 L 537.316406 128 L 534 128 Z M 534 126 " clip-rule="nonzero"/></clipPath><clipPath id="id80"><path d="M 528.019531 119.691406 L 533.214844 119.691406 L 533.214844 131.617188 L 528.019531 131.617188 Z M 528.019531 119.691406 " clip-rule="nonzero"/></clipPath><clipPath id="id81"><path d="M 519.425781 123 L 524 123 L 524 130 L 519.425781 130 Z M 519.425781 123 " clip-rule="nonzero"/></clipPath></defs><g clip-path="url(#id1)"><path fill="#ffffff" d="M 1.808594 0 L 598.191406 0 L 598.191406 171.460938 L 1.808594 171.460938 Z M 1.808594 0 " fill-opacity="1" fill-rule="nonzero"/><path fill="#002e6b" d="M 1.808594 0 L 598.191406 0 L 598.191406 164.007812 L 1.808594 164.007812 Z M 1.808594 0 " fill-opacity="1" fill-rule="nonzero"/><path fill="#ffffff" d="M 1.808594 0 L 598.191406 0 L 598.191406 164.007812 L 1.808594 164.007812 Z M 1.808594 0 " fill-opacity="1" fill-rule="nonzero"/><path fill="#002e6b" d="M 1.808594 0 L 598.191406 0 L 598.191406 164.007812 L 1.808594 164.007812 Z M 1.808594 0 " fill-opacity="1" fill-rule="nonzero"/></g><g clip-path="url(#id2)"><path fill="#152855" d="M 567.511719 136.113281 L 28.125 135.753906 L 28.125 66.023438 L 28.964844 28.75 L 297.015625 27.851562 L 566.609375 28.089844 L 567.511719 136.113281 " fill-opacity="1" fill-rule="nonzero"/></g><g clip-path="url(#id3)"><path fill="#152855" d="M 566.609375 28.089844 C 566.667969 28.691406 566.667969 29.171875 566.730469 29.652344 C 566.851562 31.714844 566.910156 34.035156 567.03125 36.273438 C 567.03125 39.503906 567.632812 103.234375 567.933594 106.464844 C 568.234375 111.355469 568.054688 116.328125 568.054688 121.21875 C 568.054688 125.527344 568.113281 129.503906 568.175781 133.710938 C 568.175781 134.730469 568.175781 135.394531 568.175781 136.535156 C 567.089844 136.535156 566.128906 136.59375 563.671875 136.535156 C 536.074219 136.292969 508.050781 136.59375 480.449219 136.355469 C 463.890625 136.175781 447.753906 136.292969 431.195312 136.175781 C 423.550781 136.113281 415.90625 136.054688 408.265625 135.992188 C 403.59375 135.992188 399.347656 136.054688 394.675781 136.054688 C 382.789062 135.992188 350.09375 136.054688 338.203125 135.992188 C 329.710938 135.933594 159.867188 136.355469 151.375 136.292969 C 149.25 136.292969 146.703125 136.355469 144.582031 136.355469 C 139.484375 136.355469 134.8125 136.414062 129.71875 136.414062 C 116.980469 136.414062 104.667969 136.355469 91.929688 136.292969 C 84.285156 136.234375 76.640625 136.175781 69.421875 136.113281 C 55.835938 136.054688 42.25 135.992188 29.75 135.992188 C 29.269531 135.992188 28.847656 135.992188 28.363281 135.933594 C 27.941406 135.875 27.703125 135.574219 27.824219 135.152344 C 28.246094 133.648438 28.0625 131.578125 28.003906 129.421875 C 27.941406 125.03125 27.761719 120.71875 27.824219 116.328125 C 27.703125 110.859375 27.460938 43.152344 27.824219 37.601562 C 27.882812 36.523438 27.824219 35.363281 27.882812 34.285156 C 27.941406 32.542969 28.0625 30.636719 28.125 29.171875 C 28.125 29.050781 28.183594 28.933594 28.246094 28.871094 C 29.269531 28.75 31.632812 28.511719 38.425781 28.449219 C 49.890625 28.269531 61.355469 28.152344 73.246094 28.03125 C 81.3125 27.910156 89.378906 27.851562 97.023438 27.730469 C 104.667969 27.609375 112.734375 27.488281 120.378906 27.488281 C 128.871094 27.429688 137.363281 27.550781 145.855469 27.488281 C 156.46875 27.488281 348.820312 27.371094 359.433594 27.308594 C 369.625 27.25 379.816406 27.1875 390.429688 27.1875 C 407.839844 27.128906 424.824219 27.070312 442.234375 27.070312 C 449.453125 27.070312 457.09375 27.1875 464.3125 27.1875 C 484.269531 27.25 504.652344 27.308594 524.609375 27.429688 C 535.222656 27.488281 545.839844 27.671875 556.453125 27.851562 C 559.003906 27.851562 561.550781 27.851562 563.671875 27.851562 C 565.707031 27.910156 566.128906 28.03125 566.609375 28.089844 M 567.089844 135.753906 C 567.152344 134.972656 567.210938 134.371094 567.210938 133.769531 C 567.152344 129.089844 567.089844 124.699219 567.089844 119.972656 C 567.089844 117.820312 567.210938 115.664062 567.152344 113.511719 C 567.152344 111.519531 567.089844 109.449219 567.03125 107.460938 C 566.789062 104.394531 566.246094 40.914062 566.246094 37.847656 C 566.128906 35.28125 566.007812 32.628906 565.886719 30.074219 C 565.824219 29.171875 565.765625 29.113281 562.398438 29.050781 C 561.125 29.050781 560.277344 29.050781 559.003906 28.992188 C 548.386719 28.8125 537.347656 28.570312 526.730469 28.511719 C 500.832031 28.332031 474.503906 28.269531 448.601562 28.152344 C 444.78125 28.152344 440.535156 28.152344 436.714844 28.152344 C 430.34375 28.152344 423.976562 28.152344 418.03125 28.152344 C 404.445312 28.152344 390.855469 28.152344 377.691406 28.210938 C 366.226562 28.269531 173.03125 28.449219 161.566406 28.449219 C 142.882812 28.449219 124.199219 28.332031 105.515625 28.632812 C 95.75 28.8125 86.410156 28.8125 77.066406 28.871094 C 60.929688 29.050781 44.796875 29.230469 29.808594 29.472656 C 29.207031 29.472656 29.085938 29.59375 29.027344 30.390625 C 28.964844 31.882812 28.964844 33.375 28.90625 34.863281 C 28.847656 37.351562 28.726562 39.753906 28.664062 42.242188 C 28.425781 44.890625 28.726562 109.699219 28.847656 112.351562 C 28.847656 115.167969 28.847656 118.066406 28.90625 120.886719 C 28.90625 122.957031 29.027344 125.03125 29.027344 127.101562 C 29.027344 129.339844 29.027344 131.578125 28.964844 133.769531 C 28.964844 133.949219 28.964844 134.070312 28.964844 134.25 C 28.964844 134.730469 29.148438 134.914062 29.570312 134.914062 C 32.484375 134.914062 38.425781 134.972656 43.945312 134.972656 C 52.015625 134.972656 60.507812 134.851562 68.574219 134.972656 C 81.738281 135.152344 94.902344 135.273438 108.0625 135.210938 C 116.554688 135.152344 124.625 135.273438 133.117188 135.273438 C 145.429688 135.273438 157.742188 135.210938 170.058594 135.273438 C 188.316406 135.332031 388.734375 134.851562 407.414062 134.972656 C 415.484375 135.03125 423.550781 135.09375 431.195312 135.09375 C 445.207031 135.210938 458.792969 135.03125 472.804688 135.210938 C 484.269531 135.332031 495.734375 135.332031 507.199219 135.453125 C 524.183594 135.632812 541.167969 135.753906 558.152344 135.8125 C 564.523438 135.8125 566.128906 135.753906 567.089844 135.753906 " fill-opacity="1" fill-rule="nonzero"/></g><g fill="#ffffff" fill-opacity="1"><g transform="translate(135.97751, 96.722211)"><g><path d="M 28.359375 -33.4375 C 29.398438 -32.894531 29.921875 -32.039062 29.921875 -30.875 C 29.921875 -30.175781 29.671875 -29.488281 29.171875 -28.8125 C 28.628906 -28.113281 27.941406 -27.765625 27.109375 -27.765625 C 26.535156 -27.765625 25.96875 -27.914062 25.40625 -28.21875 C 23.757812 -28.988281 21.984375 -29.375 20.078125 -29.375 C 17.734375 -29.375 15.691406 -28.878906 13.953125 -27.890625 C 12.210938 -26.898438 10.875 -25.507812 9.9375 -23.71875 C 9 -21.925781 8.53125 -19.878906 8.53125 -17.578125 C 8.53125 -13.617188 9.59375 -10.617188 11.71875 -8.578125 C 13.84375 -6.535156 16.628906 -5.515625 20.078125 -5.515625 C 22.117188 -5.515625 23.894531 -5.898438 25.40625 -6.671875 C 26.007812 -6.941406 26.546875 -7.078125 27.015625 -7.078125 C 27.878906 -7.078125 28.613281 -6.707031 29.21875 -5.96875 C 29.71875 -5.332031 29.96875 -4.648438 29.96875 -3.921875 C 29.96875 -3.378906 29.832031 -2.890625 29.5625 -2.453125 C 29.300781 -2.023438 28.921875 -1.691406 28.421875 -1.453125 C 25.804688 -0.148438 23.023438 0.5 20.078125 0.5 C 16.796875 0.5 13.78125 -0.191406 11.03125 -1.578125 C 8.289062 -2.972656 6.101562 -5.023438 4.46875 -7.734375 C 2.832031 -10.441406 2.015625 -13.722656 2.015625 -17.578125 C 2.015625 -20.984375 2.789062 -24.039062 4.34375 -26.75 C 5.894531 -29.46875 8.039062 -31.585938 10.78125 -33.109375 C 13.53125 -34.628906 16.628906 -35.390625 20.078125 -35.390625 C 23.054688 -35.390625 25.816406 -34.738281 28.359375 -33.4375 Z M 28.359375 -33.4375 "/></g></g></g><g fill="#ffffff" fill-opacity="1"><g transform="translate(167.4522, 96.722211)"><g><path d="M 25 -27.359375 C 25.875 -27.359375 26.59375 -27.070312 27.15625 -26.5 C 27.726562 -25.9375 28.015625 -25.203125 28.015625 -24.296875 L 28.015625 -3.0625 C 28.015625 -2.1875 27.726562 -1.457031 27.15625 -0.875 C 26.59375 -0.289062 25.875 0 25 0 C 24.132812 0 23.425781 -0.28125 22.875 -0.84375 C 22.320312 -1.414062 22.023438 -2.140625 21.984375 -3.015625 C 21.148438 -2.046875 20.019531 -1.21875 18.59375 -0.53125 C 17.175781 0.15625 15.679688 0.5 14.109375 0.5 C 11.796875 0.5 9.703125 -0.09375 7.828125 -1.28125 C 5.953125 -2.46875 4.46875 -4.113281 3.375 -6.21875 C 2.289062 -8.332031 1.75 -10.726562 1.75 -13.40625 C 1.75 -16.082031 2.285156 -18.484375 3.359375 -20.609375 C 4.429688 -22.734375 5.894531 -24.390625 7.75 -25.578125 C 9.613281 -26.765625 11.664062 -27.359375 13.90625 -27.359375 C 15.507812 -27.359375 17.015625 -27.066406 18.421875 -26.484375 C 19.828125 -25.898438 21.015625 -25.15625 21.984375 -24.25 L 21.984375 -24.296875 C 21.984375 -25.171875 22.269531 -25.898438 22.84375 -26.484375 C 23.414062 -27.066406 24.132812 -27.359375 25 -27.359375 Z M 14.859375 -5.015625 C 17.035156 -5.015625 18.804688 -5.8125 20.171875 -7.40625 C 21.546875 -9 22.234375 -11 22.234375 -13.40625 C 22.234375 -15.8125 21.546875 -17.816406 20.171875 -19.421875 C 18.804688 -21.035156 17.035156 -21.84375 14.859375 -21.84375 C 12.710938 -21.84375 10.953125 -21.035156 9.578125 -19.421875 C 8.210938 -17.816406 7.53125 -15.8125 7.53125 -13.40625 C 7.53125 -11 8.207031 -9 9.5625 -7.40625 C 10.914062 -5.8125 12.679688 -5.015625 14.859375 -5.015625 Z M 14.859375 -5.015625 "/></g></g></g><g fill="#ffffff" fill-opacity="1"><g transform="translate(198.72609, 96.722211)"><g><path d="M 17.171875 -27.359375 C 19.484375 -27.359375 21.570312 -26.765625 23.4375 -25.578125 C 25.3125 -24.390625 26.789062 -22.738281 27.875 -20.625 C 28.96875 -18.519531 29.515625 -16.128906 29.515625 -13.453125 C 29.515625 -10.773438 28.976562 -8.375 27.90625 -6.25 C 26.84375 -4.125 25.378906 -2.46875 23.515625 -1.28125 C 21.660156 -0.09375 19.613281 0.5 17.375 0.5 C 15.757812 0.5 14.238281 0.175781 12.8125 -0.46875 C 11.394531 -1.125 10.21875 -1.921875 9.28125 -2.859375 L 9.28125 6.984375 C 9.28125 7.847656 8.992188 8.570312 8.421875 9.15625 C 7.859375 9.75 7.144531 10.046875 6.28125 10.046875 C 5.40625 10.046875 4.679688 9.757812 4.109375 9.1875 C 3.546875 8.613281 3.265625 7.878906 3.265625 6.984375 L 3.265625 -23.796875 C 3.265625 -24.660156 3.546875 -25.382812 4.109375 -25.96875 C 4.679688 -26.5625 5.40625 -26.859375 6.28125 -26.859375 C 7.144531 -26.859375 7.859375 -26.5625 8.421875 -25.96875 C 8.992188 -25.382812 9.28125 -24.660156 9.28125 -23.796875 L 9.28125 -23.59375 C 10.09375 -24.59375 11.21875 -25.46875 12.65625 -26.21875 C 14.09375 -26.976562 15.597656 -27.359375 17.171875 -27.359375 Z M 16.421875 -5.015625 C 18.554688 -5.015625 20.3125 -5.816406 21.6875 -7.421875 C 23.0625 -9.035156 23.75 -11.046875 23.75 -13.453125 C 23.75 -15.859375 23.066406 -17.859375 21.703125 -19.453125 C 20.347656 -21.046875 18.585938 -21.84375 16.421875 -21.84375 C 14.242188 -21.84375 12.46875 -21.046875 11.09375 -19.453125 C 9.71875 -17.859375 9.03125 -15.859375 9.03125 -13.453125 C 9.03125 -11.046875 9.71875 -9.035156 11.09375 -7.421875 C 12.46875 -5.816406 14.242188 -5.015625 16.421875 -5.015625 Z M 16.421875 -5.015625 "/></g></g></g><g fill="#ffffff" fill-opacity="1"><g transform="translate(229.99998, 96.722211)"><g><path d="M 16.21875 -5.671875 C 16.6875 -5.671875 17.113281 -5.441406 17.5 -4.984375 C 17.882812 -4.535156 18.078125 -3.945312 18.078125 -3.21875 C 18.078125 -2.3125 17.582031 -1.546875 16.59375 -0.921875 C 15.601562 -0.304688 14.488281 0 13.25 0 C 11.175781 0 9.425781 -0.441406 8 -1.328125 C 6.582031 -2.210938 5.875 -4.097656 5.875 -6.984375 L 5.875 -20.828125 L 3.5625 -20.828125 C 2.757812 -20.828125 2.085938 -21.09375 1.546875 -21.625 C 1.015625 -22.164062 0.75 -22.835938 0.75 -23.640625 C 0.75 -24.410156 1.015625 -25.054688 1.546875 -25.578125 C 2.085938 -26.097656 2.757812 -26.359375 3.5625 -26.359375 L 5.875 -26.359375 L 5.875 -29.5625 C 5.875 -30.4375 6.164062 -31.164062 6.75 -31.75 C 7.332031 -32.332031 8.0625 -32.625 8.9375 -32.625 C 9.769531 -32.625 10.46875 -32.332031 11.03125 -31.75 C 11.601562 -31.164062 11.890625 -30.4375 11.890625 -29.5625 L 11.890625 -26.359375 L 15.46875 -26.359375 C 16.269531 -26.359375 16.9375 -26.085938 17.46875 -25.546875 C 18.007812 -25.015625 18.28125 -24.347656 18.28125 -23.546875 C 18.28125 -22.773438 18.007812 -22.128906 17.46875 -21.609375 C 16.9375 -21.085938 16.269531 -20.828125 15.46875 -20.828125 L 11.890625 -20.828125 L 11.890625 -7.234375 C 11.890625 -6.523438 12.070312 -6.007812 12.4375 -5.6875 C 12.8125 -5.375 13.316406 -5.21875 13.953125 -5.21875 C 14.222656 -5.21875 14.59375 -5.285156 15.0625 -5.421875 C 15.457031 -5.585938 15.84375 -5.671875 16.21875 -5.671875 Z M 16.21875 -5.671875 "/></g></g></g><g fill="#ffffff" fill-opacity="1"><g transform="translate(250.531317, 96.722211)"><g><path d="M 25 -27.359375 C 25.875 -27.359375 26.59375 -27.070312 27.15625 -26.5 C 27.726562 -25.9375 28.015625 -25.203125 28.015625 -24.296875 L 28.015625 -3.0625 C 28.015625 -2.1875 27.726562 -1.457031 27.15625 -0.875 C 26.59375 -0.289062 25.875 0 25 0 C 24.132812 0 23.425781 -0.28125 22.875 -0.84375 C 22.320312 -1.414062 22.023438 -2.140625 21.984375 -3.015625 C 21.148438 -2.046875 20.019531 -1.21875 18.59375 -0.53125 C 17.175781 0.15625 15.679688 0.5 14.109375 0.5 C 11.796875 0.5 9.703125 -0.09375 7.828125 -1.28125 C 5.953125 -2.46875 4.46875 -4.113281 3.375 -6.21875 C 2.289062 -8.332031 1.75 -10.726562 1.75 -13.40625 C 1.75 -16.082031 2.285156 -18.484375 3.359375 -20.609375 C 4.429688 -22.734375 5.894531 -24.390625 7.75 -25.578125 C 9.613281 -26.765625 11.664062 -27.359375 13.90625 -27.359375 C 15.507812 -27.359375 17.015625 -27.066406 18.421875 -26.484375 C 19.828125 -25.898438 21.015625 -25.15625 21.984375 -24.25 L 21.984375 -24.296875 C 21.984375 -25.171875 22.269531 -25.898438 22.84375 -26.484375 C 23.414062 -27.066406 24.132812 -27.359375 25 -27.359375 Z M 14.859375 -5.015625 C 17.035156 -5.015625 18.804688 -5.8125 20.171875 -7.40625 C 21.546875 -9 22.234375 -11 22.234375 -13.40625 C 22.234375 -15.8125 21.546875 -17.816406 20.171875 -19.421875 C 18.804688 -21.035156 17.035156 -21.84375 14.859375 -21.84375 C 12.710938 -21.84375 10.953125 -21.035156 9.578125 -19.421875 C 8.210938 -17.816406 7.53125 -15.8125 7.53125 -13.40625 C 7.53125 -11 8.207031 -9 9.5625 -7.40625 C 10.914062 -5.8125 12.679688 -5.015625 14.859375 -5.015625 Z M 14.859375 -5.015625 "/></g></g></g><g fill="#ffffff" fill-opacity="1"><g transform="translate(281.805213, 96.722211)"><g><path d="M 8.9375 -3.0625 C 8.9375 -2.1875 8.648438 -1.457031 8.078125 -0.875 C 7.515625 -0.289062 6.796875 0 5.921875 0 C 5.054688 0 4.335938 -0.289062 3.765625 -0.875 C 3.191406 -1.457031 2.90625 -2.1875 2.90625 -3.0625 L 2.90625 -23.796875 C 2.90625 -24.660156 3.191406 -25.382812 3.765625 -25.96875 C 4.335938 -26.5625 5.054688 -26.859375 5.921875 -26.859375 C 6.796875 -26.859375 7.515625 -26.5625 8.078125 -25.96875 C 8.648438 -25.382812 8.9375 -24.660156 8.9375 -23.796875 Z M 5.875 -30.125 C 4.726562 -30.125 3.921875 -30.304688 3.453125 -30.671875 C 2.992188 -31.035156 2.765625 -31.6875 2.765625 -32.625 L 2.765625 -33.578125 C 2.765625 -34.515625 3.015625 -35.164062 3.515625 -35.53125 C 4.015625 -35.90625 4.816406 -36.09375 5.921875 -36.09375 C 7.085938 -36.09375 7.90625 -35.90625 8.375 -35.53125 C 8.84375 -35.164062 9.078125 -34.515625 9.078125 -33.578125 L 9.078125 -32.625 C 9.078125 -31.65625 8.832031 -30.992188 8.34375 -30.640625 C 7.863281 -30.296875 7.039062 -30.125 5.875 -30.125 Z M 5.875 -30.125 "/></g></g></g><g fill="#ffffff" fill-opacity="1"><g transform="translate(293.652144, 96.722211)"><g><path d="M 17.625 -27.359375 C 21.03125 -27.359375 23.382812 -26.34375 24.6875 -24.3125 C 26 -22.289062 26.65625 -19.492188 26.65625 -15.921875 L 26.65625 -3.0625 C 26.65625 -2.1875 26.367188 -1.457031 25.796875 -0.875 C 25.234375 -0.289062 24.515625 0 23.640625 0 C 22.773438 0 22.054688 -0.289062 21.484375 -0.875 C 20.921875 -1.457031 20.640625 -2.1875 20.640625 -3.0625 L 20.640625 -15.921875 C 20.640625 -17.753906 20.253906 -19.195312 19.484375 -20.25 C 18.710938 -21.3125 17.390625 -21.84375 15.515625 -21.84375 C 13.566406 -21.84375 12.039062 -21.28125 10.9375 -20.15625 C 9.832031 -19.03125 9.28125 -17.617188 9.28125 -15.921875 L 9.28125 -3.0625 C 9.28125 -2.1875 8.992188 -1.457031 8.421875 -0.875 C 7.859375 -0.289062 7.144531 0 6.28125 0 C 5.40625 0 4.679688 -0.289062 4.109375 -0.875 C 3.546875 -1.457031 3.265625 -2.1875 3.265625 -3.0625 L 3.265625 -23.796875 C 3.265625 -24.660156 3.546875 -25.382812 4.109375 -25.96875 C 4.679688 -26.5625 5.40625 -26.859375 6.28125 -26.859375 C 7.144531 -26.859375 7.859375 -26.5625 8.421875 -25.96875 C 8.992188 -25.382812 9.28125 -24.660156 9.28125 -23.796875 L 9.28125 -22.9375 C 10.1875 -24.144531 11.367188 -25.179688 12.828125 -26.046875 C 14.285156 -26.921875 15.882812 -27.359375 17.625 -27.359375 Z M 17.625 -27.359375 "/></g></g></g><g fill="#ffffff" fill-opacity="1"><g transform="translate(323.570674, 96.722211)"><g><path d="M 2.515625 -32.734375 C 2.648438 -34.335938 3.519531 -35.140625 5.125 -35.140625 L 6.671875 -35.140625 C 7.410156 -35.140625 7.972656 -34.976562 8.359375 -34.65625 C 8.742188 -34.34375 8.9375 -33.898438 8.9375 -33.328125 C 8.9375 -32.992188 8.867188 -32.644531 8.734375 -32.28125 L 5.328125 -21.78125 C 4.921875 -20.675781 4.195312 -20.125 3.15625 -20.125 C 2.625 -20.125 2.234375 -20.300781 1.984375 -20.65625 C 1.734375 -21.007812 1.640625 -21.519531 1.703125 -22.1875 Z M 2.515625 -32.734375 "/></g></g></g><g fill="#ffffff" fill-opacity="1"><g transform="translate(334.212828, 96.722211)"><g><path d="M 1.703125 -4.171875 C 1.398438 -4.566406 1.25 -5.066406 1.25 -5.671875 C 1.25 -6.546875 1.6875 -7.28125 2.5625 -7.875 C 3.03125 -8.175781 3.515625 -8.328125 4.015625 -8.328125 C 4.722656 -8.328125 5.394531 -8.007812 6.03125 -7.375 C 7.03125 -6.34375 8.070312 -5.570312 9.15625 -5.0625 C 10.25 -4.5625 11.566406 -4.3125 13.109375 -4.3125 C 15.710938 -4.414062 17.015625 -5.40625 17.015625 -7.28125 C 17.015625 -8.25 16.570312 -8.984375 15.6875 -9.484375 C 14.800781 -9.984375 13.421875 -10.488281 11.546875 -11 C 9.609375 -11.53125 8.023438 -12.0625 6.796875 -12.59375 C 5.578125 -13.132812 4.523438 -13.945312 3.640625 -15.03125 C 2.753906 -16.125 2.3125 -17.585938 2.3125 -19.421875 C 2.3125 -21.035156 2.769531 -22.4375 3.6875 -23.625 C 4.613281 -24.8125 5.816406 -25.726562 7.296875 -26.375 C 8.785156 -27.03125 10.367188 -27.359375 12.046875 -27.359375 C 13.753906 -27.359375 15.460938 -27.039062 17.171875 -26.40625 C 18.878906 -25.769531 20.21875 -24.832031 21.1875 -23.59375 C 21.625 -23.0625 21.84375 -22.457031 21.84375 -21.78125 C 21.84375 -21.019531 21.523438 -20.382812 20.890625 -19.875 C 20.421875 -19.507812 19.882812 -19.328125 19.28125 -19.328125 C 18.539062 -19.328125 17.9375 -19.5625 17.46875 -20.03125 C 16.863281 -20.769531 16.082031 -21.351562 15.125 -21.78125 C 14.175781 -22.21875 13.097656 -22.4375 11.890625 -22.4375 C 9.347656 -22.4375 8.078125 -21.515625 8.078125 -19.671875 C 8.078125 -18.941406 8.3125 -18.347656 8.78125 -17.890625 C 9.25 -17.441406 9.84375 -17.09375 10.5625 -16.84375 C 11.28125 -16.59375 12.296875 -16.285156 13.609375 -15.921875 C 15.410156 -15.410156 16.914062 -14.890625 18.125 -14.359375 C 19.332031 -13.828125 20.351562 -13.003906 21.1875 -11.890625 C 22.019531 -10.785156 22.4375 -9.332031 22.4375 -7.53125 C 22.4375 -5.894531 21.953125 -4.460938 20.984375 -3.234375 C 20.015625 -2.015625 18.765625 -1.085938 17.234375 -0.453125 C 15.710938 0.179688 14.148438 0.5 12.546875 0.5 C 10.335938 0.5 8.28125 0.132812 6.375 -0.59375 C 4.46875 -1.332031 2.910156 -2.523438 1.703125 -4.171875 Z M 1.703125 -4.171875 "/></g></g></g><g fill="#ffffff" fill-opacity="1"><g transform="translate(358.408669, 96.722211)"><g/></g></g><g fill="#ffffff" fill-opacity="1"><g transform="translate(372.464356, 96.722211)"><g><path d="M 23.140625 -5.875 C 24.015625 -5.875 24.742188 -5.597656 25.328125 -5.046875 C 25.910156 -4.492188 26.203125 -3.78125 26.203125 -2.90625 C 26.203125 -2.070312 25.910156 -1.378906 25.328125 -0.828125 C 24.742188 -0.273438 24.015625 0 23.140625 0 L 6.828125 0 C 5.953125 0 5.222656 -0.289062 4.640625 -0.875 C 4.054688 -1.457031 3.765625 -2.1875 3.765625 -3.0625 L 3.765625 -32.078125 C 3.765625 -32.953125 4.066406 -33.679688 4.671875 -34.265625 C 5.273438 -34.847656 6.046875 -35.140625 6.984375 -35.140625 C 7.816406 -35.140625 8.535156 -34.847656 9.140625 -34.265625 C 9.742188 -33.679688 10.046875 -32.953125 10.046875 -32.078125 L 10.046875 -5.875 Z M 23.140625 -5.875 "/></g></g></g><g fill="#ffffff" fill-opacity="1"><g transform="translate(400.676108, 96.722211)"><g><path d="M 29.0625 -13.40625 C 29.0625 -10.726562 28.457031 -8.328125 27.25 -6.203125 C 26.050781 -4.078125 24.40625 -2.425781 22.3125 -1.25 C 20.21875 -0.0820312 17.914062 0.5 15.40625 0.5 C 12.863281 0.5 10.554688 -0.0820312 8.484375 -1.25 C 6.410156 -2.425781 4.769531 -4.078125 3.5625 -6.203125 C 2.351562 -8.328125 1.75 -10.726562 1.75 -13.40625 C 1.75 -16.082031 2.351562 -18.484375 3.5625 -20.609375 C 4.769531 -22.734375 6.410156 -24.390625 8.484375 -25.578125 C 10.554688 -26.765625 12.863281 -27.359375 15.40625 -27.359375 C 17.914062 -27.359375 20.21875 -26.765625 22.3125 -25.578125 C 24.40625 -24.390625 26.050781 -22.734375 27.25 -20.609375 C 28.457031 -18.484375 29.0625 -16.082031 29.0625 -13.40625 Z M 23.046875 -13.40625 C 23.046875 -15.039062 22.703125 -16.503906 22.015625 -17.796875 C 21.328125 -19.085938 20.40625 -20.082031 19.25 -20.78125 C 18.09375 -21.488281 16.8125 -21.84375 15.40625 -21.84375 C 14 -21.84375 12.71875 -21.488281 11.5625 -20.78125 C 10.414062 -20.082031 9.5 -19.085938 8.8125 -17.796875 C 8.125 -16.503906 7.78125 -15.039062 7.78125 -13.40625 C 7.78125 -11.757812 8.125 -10.300781 8.8125 -9.03125 C 9.5 -7.757812 10.414062 -6.769531 11.5625 -6.0625 C 12.71875 -5.363281 14 -5.015625 15.40625 -5.015625 C 16.8125 -5.015625 18.09375 -5.363281 19.25 -6.0625 C 20.40625 -6.769531 21.328125 -7.757812 22.015625 -9.03125 C 22.703125 -10.300781 23.046875 -11.757812 23.046875 -13.40625 Z M 23.046875 -13.40625 "/></g></g></g><g fill="#ffffff" fill-opacity="1"><g transform="translate(431.498215, 96.722211)"><g><path d="M 25.5 -27.359375 C 26.375 -27.359375 27.09375 -27.070312 27.65625 -26.5 C 28.226562 -25.9375 28.515625 -25.203125 28.515625 -24.296875 L 28.515625 -1.953125 C 28.515625 2.128906 27.25 5.148438 24.71875 7.109375 C 22.195312 9.066406 18.992188 10.046875 15.109375 10.046875 C 14.109375 10.046875 12.726562 9.875 10.96875 9.53125 C 9.207031 9.195312 7.960938 8.863281 7.234375 8.53125 C 5.585938 7.832031 4.765625 6.863281 4.765625 5.625 C 4.765625 5.382812 4.816406 5.113281 4.921875 4.8125 C 5.117188 4.082031 5.457031 3.523438 5.9375 3.140625 C 6.425781 2.753906 6.957031 2.5625 7.53125 2.5625 C 7.863281 2.5625 8.179688 2.613281 8.484375 2.71875 C 8.617188 2.75 9.445312 3.054688 10.96875 3.640625 C 12.488281 4.222656 13.867188 4.515625 15.109375 4.515625 C 17.585938 4.515625 19.4375 4.019531 20.65625 3.03125 C 21.875 2.050781 22.484375 0.65625 22.484375 -1.15625 L 22.484375 -3.5625 C 21.753906 -2.53125 20.644531 -1.59375 19.15625 -0.75 C 17.664062 0.0820312 16.066406 0.5 14.359375 0.5 C 12.015625 0.5 9.878906 -0.09375 7.953125 -1.28125 C 6.035156 -2.46875 4.519531 -4.113281 3.40625 -6.21875 C 2.300781 -8.332031 1.75 -10.726562 1.75 -13.40625 C 1.75 -16.082031 2.289062 -18.484375 3.375 -20.609375 C 4.46875 -22.734375 5.957031 -24.390625 7.84375 -25.578125 C 9.738281 -26.765625 11.84375 -27.359375 14.15625 -27.359375 C 15.863281 -27.359375 17.453125 -27.003906 18.921875 -26.296875 C 20.398438 -25.597656 21.585938 -24.75 22.484375 -23.75 L 22.484375 -24.296875 C 22.484375 -25.171875 22.769531 -25.898438 23.34375 -26.484375 C 23.914062 -27.066406 24.632812 -27.359375 25.5 -27.359375 Z M 15.109375 -5.015625 C 17.347656 -5.015625 19.175781 -5.8125 20.59375 -7.40625 C 22.019531 -9 22.734375 -11 22.734375 -13.40625 C 22.734375 -15.8125 22.019531 -17.816406 20.59375 -19.421875 C 19.175781 -21.035156 17.347656 -21.84375 15.109375 -21.84375 C 12.867188 -21.84375 11.046875 -21.035156 9.640625 -19.421875 C 8.234375 -17.816406 7.53125 -15.8125 7.53125 -13.40625 C 7.53125 -11 8.234375 -9 9.640625 -7.40625 C 11.046875 -5.8125 12.867188 -5.015625 15.109375 -5.015625 Z M 15.109375 -5.015625 "/></g></g></g><g clip-path="url(#id4)"><path fill="#5271ff" d="M -32.027344 132.5 C -31.960938 132.195312 -31.851562 131.976562 -31.699219 131.78125 C -30.585938 129.683594 -28.707031 128.328125 -26.304688 128.085938 C -25.148438 127.976562 -24.03125 128.109375 -22.875 128.261719 C -22.15625 128.351562 -21.214844 128.722656 -20.515625 128.546875 C -18.8125 128.152344 -19.207031 127.167969 -19.796875 125.792969 C -21.804688 121.007812 -24.839844 115.109375 -20.714844 110.410156 C -17.65625 106.9375 -13.132812 108.359375 -11.320312 112.246094 C -9.289062 116.550781 -10.25 121.90625 -9.988281 126.515625 C -9.859375 128.917969 -9.574219 131.519531 -8.351562 133.636719 C -7.191406 135.648438 -0.683594 139.734375 -0.902344 134.949219 C -1.011719 132.632812 -2.824219 130.773438 -4.070312 128.941406 C -5.621094 126.667969 -7.28125 124.242188 -7.847656 121.488281 C -8.394531 118.800781 -7.671875 116.265625 -6.648438 113.796875 C -6.121094 112.53125 -5.402344 111.242188 -5.140625 109.886719 C -4.746094 107.769531 -5.839844 105.738281 -6.777344 103.921875 C -9.550781 98.484375 -13.550781 92.496094 -11.410156 86.09375 C -9.769531 81.199219 -4.855469 81.460938 -2.757812 85.832031 C -2.039062 87.339844 -1.730469 89.042969 -1.535156 90.726562 C -1.515625 88.519531 -1.425781 86.3125 -1.273438 84.128906 C -0.988281 79.824219 -0.859375 69.96875 4.710938 68.789062 C 7.835938 68.136719 10.195312 71.039062 11.308594 73.574219 C 12.945312 77.289062 12.921875 81.921875 12.597656 85.875 C 11.984375 93.71875 8.597656 100.886719 6.457031 108.378906 C 6.457031 108.402344 6.457031 108.402344 6.4375 108.421875 C 5.605469 112.203125 4.929688 116.769531 6.394531 120.441406 C 6.742188 121.335938 7.289062 122.296875 8.117188 122.820312 C 8.207031 122.886719 8.488281 123.0625 8.75 123.171875 C 8.75 123.019531 8.96875 122.691406 8.925781 122.386719 C 8.6875 119.652344 8.402344 116.988281 7.988281 114.257812 C 7.398438 110.28125 8.578125 102.414062 14.34375 102.960938 C 20.4375 103.53125 19.390625 113.097656 18.667969 117.011719 C 17.925781 121.050781 16.722656 125.050781 17.773438 129.15625 C 18.164062 130.6875 18.863281 133.988281 21.070312 132.9375 C 23.277344 131.867188 23.714844 128.175781 23.5625 126.054688 C 23.320312 123.105469 21.660156 120.59375 22.011719 117.445312 C 22.492188 113.144531 25.222656 109.648438 25.351562 105.210938 C 25.023438 101.125 23.1875 96.734375 21.09375 93.238281 C 21.09375 93.21875 21.070312 93.21875 21.070312 93.195312 C 19.519531 90.246094 18.164062 87.230469 16.941406 84.128906 C 15.347656 80.085938 13.90625 75.671875 16.222656 71.566406 C 18.054688 68.332031 21.726562 66.976562 24.980469 69.03125 C 28.300781 71.128906 29.414062 75.171875 30.136719 78.773438 C 30.789062 82.074219 30.964844 85.484375 31.992188 88.695312 C 32.296875 89.632812 32.800781 90.484375 33.191406 91.382812 C 33.214844 91.292969 33.257812 91.230469 33.257812 91.207031 C 33.78125 89.109375 33.9375 86.945312 34.527344 84.847656 C 35.421875 81.726562 37.539062 77.003906 41.296875 76.699219 C 44.769531 76.414062 47.039062 80.128906 47.542969 83.078125 C 49.226562 93.109375 41.558594 101.453125 36.773438 109.339844 C 35.8125 111.046875 34.632812 113.035156 34.613281 115.066406 C 34.613281 115.566406 34.808594 116.113281 34.613281 116.136719 C 35.703125 116.09375 37.148438 113.382812 37.605469 112.640625 C 39.8125 109.144531 40.96875 104.949219 43.523438 101.671875 C 45.359375 99.335938 48.679688 97.542969 51.585938 99.203125 C 54.554688 100.90625 54.160156 104.839844 53.265625 107.617188 C 52 111.570312 49.835938 115.109375 47.042969 118.167969 C 44.835938 120.550781 42.191406 122.496094 39.984375 124.875 C 39.679688 125.203125 39.417969 125.554688 39.132812 125.902344 C 39.351562 125.75 39.59375 125.617188 39.789062 125.464844 C 41.363281 124.328125 42.871094 122.910156 44.855469 122.601562 C 48.15625 122.078125 50.90625 124.964844 50.011719 128.242188 C 48.875 132.433594 44.964844 135.210938 41.144531 136.695312 C 37.015625 138.289062 32.976562 137.984375 28.78125 139.035156 C 27.273438 139.492188 25.808594 139.996094 24.652344 141.109375 C 23.691406 142.027344 22.121094 144.015625 22.511719 145.457031 C 23.363281 148.515625 29.4375 143.730469 30.726562 142.945312 C 34.832031 140.367188 41.90625 136.652344 44.945312 142.8125 C 47.71875 148.472656 41.996094 153.324219 36.882812 154.347656 C 34.21875 154.875 31.511719 154.65625 28.824219 154.984375 C 28.277344 155.046875 27.667969 155.09375 27.164062 155.3125 C 27.035156 155.375 26.597656 155.507812 26.554688 155.660156 C 26.53125 155.726562 26.507812 155.746094 26.507812 155.792969 C 26.554688 155.703125 26.664062 155.617188 26.792969 155.746094 C 28.277344 157.253906 31.445312 156.074219 33.0625 155.574219 C 35.617188 154.785156 38.542969 154.066406 40.859375 155.921875 C 42.542969 157.277344 42.914062 159.722656 41.777344 161.558594 C 39.089844 165.886719 32.277344 166.125 27.90625 165.644531 C 26.726562 165.515625 25.460938 165.40625 24.195312 165.273438 C 24.195312 165.273438 6.261719 165.734375 -2.890625 160.203125 C -12.042969 154.675781 -11.824219 147.6875 -13.175781 144.035156 L -13.175781 144.015625 C -13.527344 143.207031 -13.855469 142.375 -14.160156 141.566406 C -14.664062 140.214844 -14.621094 139.097656 -16.015625 138.53125 C -18.09375 137.679688 -20.035156 138.792969 -22.109375 139.011719 C -23.707031 139.1875 -25.410156 139.1875 -26.960938 138.726562 C -29.929688 137.832031 -32.640625 135.820312 -32.027344 132.5 Z M -32.027344 132.5 " fill-opacity="1" fill-rule="nonzero"/></g><g clip-path="url(#id5)"><path fill="#ffde59" d="M 38.066406 171.738281 C 36.96875 161.390625 29.511719 158.96875 17.480469 156.429688 C -3.230469 152.066406 12.078125 133.007812 20.824219 145.289062 C 22.015625 146.957031 23.742188 151.496094 26.386719 150.335938 C 28.65625 149.628906 28.101562 147 26.792969 144.46875 C 20.417969 132.121094 37.171875 130.757812 33.671875 142.332031 C 32.382812 146.597656 34.089844 150.363281 34.664062 151.699219 C 36.765625 156.613281 41.242188 155.316406 42.570312 147.699219 C 44.445312 136.933594 37.714844 132.132812 34.03125 127.6875 C 29.847656 122.636719 23.144531 107.558594 33.210938 104.554688 C 41.578125 102.058594 42.839844 114.109375 43.136719 119.015625 C 43.554688 125.90625 43.601562 130.035156 45.972656 130.105469 C 48.210938 130.175781 48.101562 125.957031 48.808594 122.519531 C 51.210938 110.835938 66 119.292969 58.007812 127.253906 C 54.496094 130.75 49.117188 137.183594 48.769531 148.515625 C 48.5 157.429688 56.84375 158.25 56.367188 150.425781 C 56.238281 148.304688 55.699219 146.53125 55.632812 144.964844 C 55.28125 136.238281 67.21875 137.054688 63.578125 146.6875 C 62.441406 149.699219 59.964844 152.761719 60.972656 154.632812 C 61.929688 156.410156 64.210938 155.011719 66.675781 153.609375 C 79.96875 146.0625 83.316406 170.167969 66.585938 165.4375 C 63.640625 164.601562 59.53125 163.253906 55.734375 162.617188 C 52.96875 162.152344 47.972656 163.558594 47.207031 171.269531 C 46.125 182.195312 39.773438 187.796875 38.066406 171.738281 " fill-opacity="1" fill-rule="nonzero"/></g><path fill="#a49523" d="M 10.371094 145.5625 C 10.070312 144.480469 10.695312 143.363281 11.769531 143.058594 C 12.84375 142.757812 13.957031 143.386719 14.257812 144.46875 C 14.558594 145.546875 13.929688 146.667969 12.855469 146.96875 C 11.78125 147.273438 10.667969 146.640625 10.371094 145.5625 " fill-opacity="1" fill-rule="nonzero"/><path fill="#a49523" d="M 9.949219 150.0625 C 9.726562 149.421875 10.066406 148.71875 10.707031 148.496094 C 11.347656 148.273438 12.042969 148.613281 12.265625 149.257812 C 12.484375 149.902344 12.148438 150.605469 11.507812 150.828125 C 10.867188 151.050781 10.167969 150.707031 9.949219 150.0625 " fill-opacity="1" fill-rule="nonzero"/><path fill="#a49523" d="M 15.730469 145.207031 C 15.507812 144.5625 15.847656 143.859375 16.488281 143.636719 C 17.128906 143.414062 17.824219 143.757812 18.046875 144.402344 C 18.265625 145.042969 17.929688 145.746094 17.289062 145.96875 C 16.648438 146.191406 15.949219 145.851562 15.730469 145.207031 " fill-opacity="1" fill-rule="nonzero"/><path fill="#a49523" d="M 13.9375 152.691406 C 13.773438 152.207031 14.027344 151.675781 14.511719 151.507812 C 14.996094 151.339844 15.523438 151.597656 15.691406 152.082031 C 15.855469 152.570312 15.601562 153.101562 15.117188 153.269531 C 14.632812 153.4375 14.105469 153.179688 13.9375 152.691406 " fill-opacity="1" fill-rule="nonzero"/><path fill="#a49523" d="M 14.480469 148.871094 C 14.3125 148.386719 14.570312 147.855469 15.054688 147.6875 C 15.539062 147.519531 16.066406 147.777344 16.230469 148.265625 C 16.398438 148.75 16.144531 149.28125 15.660156 149.449219 C 15.175781 149.617188 14.648438 149.359375 14.480469 148.871094 " fill-opacity="1" fill-rule="nonzero"/><path fill="#a49523" d="M 31.835938 108.757812 C 31.535156 107.679688 32.160156 106.558594 33.234375 106.257812 C 34.308594 105.953125 35.421875 106.585938 35.722656 107.664062 C 36.023438 108.746094 35.394531 109.863281 34.320312 110.167969 C 33.25 110.46875 32.136719 109.839844 31.835938 108.757812 " fill-opacity="1" fill-rule="nonzero"/><path fill="#a49523" d="M 29.375 113.425781 C 29.152344 112.78125 29.492188 112.082031 30.132812 111.859375 C 30.773438 111.636719 31.472656 111.976562 31.691406 112.621094 C 31.914062 113.265625 31.574219 113.964844 30.933594 114.1875 C 30.292969 114.410156 29.597656 114.070312 29.375 113.425781 " fill-opacity="1" fill-rule="nonzero"/><path fill="#a49523" d="M 34.640625 113.566406 C 34.417969 112.925781 34.757812 112.222656 35.398438 112 C 36.039062 111.777344 36.738281 112.121094 36.957031 112.761719 C 37.179688 113.40625 36.839844 114.109375 36.199219 114.332031 C 35.558594 114.554688 34.863281 114.210938 34.640625 113.566406 " fill-opacity="1" fill-rule="nonzero"/><path fill="#a49523" d="M 37.355469 109.832031 C 37.132812 109.191406 37.472656 108.488281 38.113281 108.265625 C 38.753906 108.042969 39.453125 108.382812 39.671875 109.027344 C 39.894531 109.671875 39.554688 110.375 38.914062 110.597656 C 38.273438 110.820312 37.574219 110.476562 37.355469 109.832031 " fill-opacity="1" fill-rule="nonzero"/><path fill="#a49523" d="M 37.144531 117.820312 C 36.976562 117.335938 37.234375 116.804688 37.71875 116.636719 C 38.199219 116.46875 38.726562 116.726562 38.894531 117.214844 C 39.0625 117.699219 38.804688 118.230469 38.320312 118.398438 C 37.839844 118.566406 37.3125 118.308594 37.144531 117.820312 " fill-opacity="1" fill-rule="nonzero"/><path fill="#a49523" d="M 39.015625 120.378906 C 38.847656 119.890625 39.105469 119.359375 39.585938 119.191406 C 40.070312 119.023438 40.597656 119.28125 40.765625 119.769531 C 40.933594 120.253906 40.675781 120.785156 40.191406 120.953125 C 39.707031 121.121094 39.179688 120.863281 39.015625 120.378906 " fill-opacity="1" fill-rule="nonzero"/><path fill="#a49523" d="M 39.015625 114.675781 C 38.847656 114.1875 39.105469 113.65625 39.585938 113.488281 C 40.070312 113.320312 40.597656 113.578125 40.765625 114.066406 C 40.933594 114.550781 40.675781 115.082031 40.191406 115.25 C 39.710938 115.417969 39.183594 115.160156 39.015625 114.675781 " fill-opacity="1" fill-rule="nonzero"/><path fill="#a49523" d="M 32.902344 116.796875 C 32.734375 116.3125 32.992188 115.78125 33.476562 115.613281 C 33.960938 115.445312 34.488281 115.703125 34.652344 116.191406 C 34.820312 116.675781 34.566406 117.207031 34.082031 117.375 C 33.597656 117.542969 33.070312 117.285156 32.902344 116.796875 " fill-opacity="1" fill-rule="nonzero"/><path fill="#a49523" d="M 53.925781 120.59375 C 53.625 119.511719 54.253906 118.394531 55.328125 118.089844 C 56.398438 117.789062 57.511719 118.417969 57.8125 119.5 C 58.113281 120.578125 57.488281 121.699219 56.414062 122 C 55.339844 122.300781 54.226562 121.671875 53.925781 120.59375 " fill-opacity="1" fill-rule="nonzero"/><path fill="#a49523" d="M 50.328125 121.949219 C 50.109375 121.304688 50.449219 120.605469 51.085938 120.382812 C 51.726562 120.160156 52.425781 120.5 52.644531 121.144531 C 52.867188 121.789062 52.527344 122.492188 51.886719 122.710938 C 51.25 122.933594 50.550781 122.59375 50.328125 121.949219 " fill-opacity="1" fill-rule="nonzero"/><path fill="#a49523" d="M 55.53125 124.921875 C 55.308594 124.277344 55.648438 123.574219 56.289062 123.351562 C 56.929688 123.132812 57.628906 123.472656 57.847656 124.117188 C 58.070312 124.761719 57.730469 125.460938 57.089844 125.683594 C 56.449219 125.90625 55.753906 125.566406 55.53125 124.921875 " fill-opacity="1" fill-rule="nonzero"/><path fill="#a49523" d="M 52.984375 128.707031 C 52.816406 128.222656 53.074219 127.691406 53.558594 127.523438 C 54.039062 127.355469 54.566406 127.613281 54.734375 128.097656 C 54.902344 128.585938 54.644531 129.117188 54.160156 129.285156 C 53.679688 129.453125 53.152344 129.195312 52.984375 128.707031 " fill-opacity="1" fill-rule="nonzero"/><path fill="#a49523" d="M 52.355469 125.078125 C 52.191406 124.59375 52.445312 124.0625 52.929688 123.894531 C 53.414062 123.726562 53.941406 123.984375 54.109375 124.46875 C 54.273438 124.957031 54.019531 125.488281 53.535156 125.65625 C 53.050781 125.824219 52.523438 125.566406 52.355469 125.078125 " fill-opacity="1" fill-rule="nonzero"/><path fill="#a49523" d="M 26.421875 140.226562 C 26.199219 139.582031 26.539062 138.878906 27.179688 138.65625 C 27.820312 138.4375 28.519531 138.777344 28.738281 139.421875 C 28.960938 140.066406 28.621094 140.765625 27.980469 140.988281 C 27.339844 141.210938 26.644531 140.871094 26.421875 140.226562 " fill-opacity="1" fill-rule="nonzero"/><path fill="#a49523" d="M 29.230469 137.34375 C 29.011719 136.699219 29.351562 135.996094 29.992188 135.773438 C 30.628906 135.554688 31.328125 135.894531 31.550781 136.539062 C 31.769531 137.183594 31.429688 137.882812 30.789062 138.105469 C 30.152344 138.328125 29.453125 137.988281 29.230469 137.34375 " fill-opacity="1" fill-rule="nonzero"/><path fill="#a49523" d="M 30.613281 141.21875 C 30.445312 140.734375 30.703125 140.203125 31.1875 140.035156 C 31.667969 139.867188 32.195312 140.125 32.363281 140.609375 C 32.53125 141.097656 32.273438 141.628906 31.792969 141.796875 C 31.308594 141.964844 30.78125 141.707031 30.613281 141.21875 " fill-opacity="1" fill-rule="nonzero"/><path fill="#a49523" d="M 59.683594 141.609375 C 59.460938 140.964844 59.800781 140.261719 60.441406 140.039062 C 61.082031 139.816406 61.78125 140.160156 62 140.804688 C 62.222656 141.445312 61.882812 142.148438 61.242188 142.371094 C 60.601562 142.59375 59.90625 142.25 59.683594 141.609375 " fill-opacity="1" fill-rule="nonzero"/><path fill="#a49523" d="M 60.621094 145.160156 C 60.453125 144.671875 60.710938 144.144531 61.195312 143.976562 C 61.679688 143.808594 62.207031 144.066406 62.371094 144.550781 C 62.539062 145.039062 62.28125 145.566406 61.800781 145.734375 C 61.316406 145.902344 60.789062 145.644531 60.621094 145.160156 " fill-opacity="1" fill-rule="nonzero"/><path fill="#a49523" d="M 57.097656 143.402344 C 56.929688 142.914062 57.1875 142.386719 57.671875 142.21875 C 58.152344 142.050781 58.679688 142.308594 58.847656 142.792969 C 59.015625 143.28125 58.757812 143.808594 58.273438 143.980469 C 57.792969 144.148438 57.265625 143.886719 57.097656 143.402344 " fill-opacity="1" fill-rule="nonzero"/><path fill="#a49523" d="M 72.484375 160.296875 C 72.183594 159.21875 72.8125 158.097656 73.882812 157.796875 C 74.957031 157.496094 76.070312 158.125 76.371094 159.207031 C 76.671875 160.285156 76.042969 161.40625 74.972656 161.707031 C 73.898438 162.007812 72.785156 161.378906 72.484375 160.296875 " fill-opacity="1" fill-rule="nonzero"/><g clip-path="url(#id6)"><path fill="#a49523" d="M 70.269531 163.648438 C 70.046875 163.003906 70.386719 162.300781 71.027344 162.082031 C 71.667969 161.859375 72.367188 162.199219 72.585938 162.84375 C 72.808594 163.488281 72.46875 164.1875 71.828125 164.410156 C 71.1875 164.632812 70.492188 164.292969 70.269531 163.648438 " fill-opacity="1" fill-rule="nonzero"/></g><path fill="#a49523" d="M 71.527344 155.300781 C 71.308594 154.65625 71.648438 153.953125 72.285156 153.730469 C 72.925781 153.507812 73.625 153.851562 73.84375 154.492188 C 74.066406 155.136719 73.726562 155.839844 73.085938 156.0625 C 72.449219 156.285156 71.75 155.941406 71.527344 155.300781 " fill-opacity="1" fill-rule="nonzero"/><path fill="#a49523" d="M 65.488281 162.617188 C 65.320312 162.132812 65.578125 161.601562 66.058594 161.433594 C 66.542969 161.265625 67.070312 161.523438 67.238281 162.007812 C 67.40625 162.496094 67.148438 163.027344 66.664062 163.195312 C 66.179688 163.363281 65.652344 163.105469 65.488281 162.617188 " fill-opacity="1" fill-rule="nonzero"/><path fill="#a49523" d="M 67.886719 155.472656 C 67.71875 154.988281 67.976562 154.457031 68.457031 154.289062 C 68.941406 154.121094 69.46875 154.378906 69.636719 154.863281 C 69.804688 155.351562 69.546875 155.882812 69.0625 156.050781 C 68.578125 156.21875 68.050781 155.960938 67.886719 155.472656 " fill-opacity="1" fill-rule="nonzero"/><path fill="#a49523" d="M 69.082031 159.398438 C 68.914062 158.910156 69.171875 158.378906 69.65625 158.210938 C 70.140625 158.042969 70.667969 158.300781 70.835938 158.789062 C 71 159.273438 70.746094 159.804688 70.261719 159.972656 C 69.777344 160.140625 69.25 159.882812 69.082031 159.398438 " fill-opacity="1" fill-rule="nonzero"/><g clip-path="url(#id7)"><g clip-path="url(#id8)"><g clip-path="url(#id9)"><path fill="#ffffff" d="M 14.765625 48.636719 C 15.921875 47.363281 17.878906 47.257812 19.140625 48.402344 C 20.402344 49.546875 20.488281 51.507812 19.332031 52.78125 C 18.175781 54.054688 16.214844 54.15625 14.957031 53.011719 C 13.695312 51.867188 13.609375 49.910156 14.765625 48.636719 " fill-opacity="1" fill-rule="nonzero"/></g></g></g><g clip-path="url(#id10)"><g clip-path="url(#id11)"><g clip-path="url(#id12)"><path fill="#ffffff" d="M 15.996094 58.507812 C 16.792969 57.628906 18.140625 57.558594 19.011719 58.347656 C 19.878906 59.132812 19.9375 60.484375 19.140625 61.359375 C 18.34375 62.238281 16.996094 62.308594 16.128906 61.523438 C 15.257812 60.734375 15.199219 59.382812 15.996094 58.507812 " fill-opacity="1" fill-rule="nonzero"/></g></g></g><g clip-path="url(#id13)"><g clip-path="url(#id14)"><g clip-path="url(#id15)"><path fill="#ffffff" d="M 22.332031 44.890625 C 23.128906 44.011719 24.476562 43.941406 25.34375 44.730469 C 26.214844 45.515625 26.273438 46.867188 25.476562 47.742188 C 24.679688 48.621094 23.328125 48.691406 22.460938 47.90625 C 21.59375 47.117188 21.535156 45.765625 22.332031 44.890625 " fill-opacity="1" fill-rule="nonzero"/></g></g></g><g clip-path="url(#id16)"><g clip-path="url(#id17)"><g clip-path="url(#id18)"><path fill="#ffffff" d="M 8.875 51.183594 C 9.460938 50.539062 10.449219 50.488281 11.085938 51.066406 C 11.726562 51.644531 11.769531 52.636719 11.183594 53.277344 C 10.597656 53.921875 9.609375 53.976562 8.972656 53.394531 C 8.335938 52.816406 8.292969 51.828125 8.875 51.183594 " fill-opacity="1" fill-rule="nonzero"/></g></g></g><g clip-path="url(#id19)"><g clip-path="url(#id20)"><g clip-path="url(#id21)"><path fill="#ffffff" d="M 13.710938 40.277344 C 14.121094 39.828125 14.8125 39.789062 15.257812 40.195312 C 15.703125 40.597656 15.730469 41.292969 15.324219 41.742188 C 14.914062 42.191406 14.222656 42.226562 13.777344 41.824219 C 13.332031 41.417969 13.300781 40.726562 13.710938 40.277344 " fill-opacity="1" fill-rule="nonzero"/></g></g></g><g clip-path="url(#id22)"><g clip-path="url(#id23)"><g clip-path="url(#id24)"><path fill="#ffffff" d="M 25.894531 51.339844 C 26.304688 50.890625 26.996094 50.851562 27.441406 51.257812 C 27.886719 51.664062 27.917969 52.355469 27.507812 52.804688 C 27.101562 53.253906 26.410156 53.292969 25.960938 52.886719 C 25.515625 52.480469 25.488281 51.789062 25.894531 51.339844 " fill-opacity="1" fill-rule="nonzero"/></g></g></g><g clip-path="url(#id25)"><g clip-path="url(#id26)"><g clip-path="url(#id27)"><path fill="#ffffff" d="M 15.902344 48.453125 C 16.25 48.066406 16.84375 48.035156 17.226562 48.382812 C 17.605469 48.726562 17.632812 49.320312 17.28125 49.707031 C 16.933594 50.089844 16.339844 50.121094 15.957031 49.777344 C 15.578125 49.429688 15.550781 48.835938 15.902344 48.453125 " fill-opacity="1" fill-rule="nonzero"/></g></g></g><g clip-path="url(#id28)"><g clip-path="url(#id29)"><g clip-path="url(#id30)"><path fill="#ffffff" d="M 16.839844 58.570312 C 17.070312 58.320312 17.457031 58.296875 17.707031 58.523438 C 17.957031 58.75 17.976562 59.140625 17.746094 59.390625 C 17.515625 59.644531 17.128906 59.664062 16.878906 59.4375 C 16.628906 59.210938 16.613281 58.824219 16.839844 58.570312 " fill-opacity="1" fill-rule="nonzero"/></g></g></g><g clip-path="url(#id31)"><g clip-path="url(#id32)"><g clip-path="url(#id33)"><path fill="#ffffff" d="M 23.042969 44.703125 C 23.269531 44.449219 23.660156 44.429688 23.910156 44.65625 C 24.160156 44.882812 24.175781 45.269531 23.945312 45.523438 C 23.71875 45.773438 23.328125 45.796875 23.078125 45.570312 C 22.828125 45.339844 22.8125 44.953125 23.042969 44.703125 " fill-opacity="1" fill-rule="nonzero"/></g></g></g><g clip-path="url(#id34)"><path fill="#5271ff" d="M 623.703125 134.804688 C 623.640625 134.515625 623.535156 134.308594 623.390625 134.121094 C 622.335938 132.136719 620.550781 130.851562 618.273438 130.625 C 617.175781 130.519531 616.117188 130.644531 615.019531 130.789062 C 614.335938 130.875 613.445312 131.226562 612.78125 131.058594 C 611.167969 130.6875 611.539062 129.753906 612.097656 128.453125 C 614.003906 123.917969 616.886719 118.328125 612.96875 113.878906 C 610.066406 110.589844 605.777344 111.933594 604.058594 115.617188 C 602.132812 119.695312 603.042969 124.765625 602.796875 129.132812 C 602.671875 131.410156 602.402344 133.875 601.242188 135.882812 C 600.144531 137.785156 593.96875 141.65625 594.175781 137.125 C 594.28125 134.929688 596 133.171875 597.179688 131.433594 C 598.652344 129.28125 600.226562 126.980469 600.765625 124.375 C 601.28125 121.828125 600.597656 119.425781 599.625 117.085938 C 599.128906 115.886719 598.445312 114.667969 598.195312 113.382812 C 597.824219 111.375 598.859375 109.449219 599.75 107.730469 C 602.382812 102.578125 606.171875 96.90625 604.140625 90.84375 C 602.589844 86.207031 597.925781 86.453125 595.9375 90.59375 C 595.253906 92.023438 594.964844 93.636719 594.777344 95.230469 C 594.757812 93.140625 594.671875 91.050781 594.527344 88.980469 C 594.257812 84.902344 594.132812 75.566406 588.851562 74.449219 C 585.886719 73.828125 583.648438 76.582031 582.59375 78.980469 C 581.039062 82.5 581.058594 86.886719 581.371094 90.636719 C 581.953125 98.066406 585.164062 104.855469 587.191406 111.953125 C 587.191406 111.976562 587.191406 111.976562 587.214844 111.996094 C 588 115.578125 588.644531 119.902344 587.253906 123.378906 C 586.925781 124.230469 586.40625 125.140625 585.617188 125.636719 C 585.535156 125.699219 585.265625 125.863281 585.019531 125.96875 C 585.019531 125.824219 584.8125 125.511719 584.851562 125.222656 C 585.078125 122.636719 585.347656 120.109375 585.742188 117.523438 C 586.300781 113.753906 585.183594 106.304688 579.714844 106.820312 C 573.933594 107.359375 574.925781 116.425781 575.609375 120.128906 C 576.316406 123.960938 577.453125 127.746094 576.460938 131.640625 C 576.085938 133.089844 575.425781 136.214844 573.332031 135.21875 C 571.238281 134.207031 570.824219 130.707031 570.96875 128.699219 C 571.199219 125.90625 572.773438 123.523438 572.441406 120.542969 C 571.984375 116.46875 569.394531 113.15625 569.269531 108.953125 C 569.582031 105.082031 571.320312 100.921875 573.3125 97.609375 C 573.3125 97.589844 573.332031 97.589844 573.332031 97.570312 C 574.804688 94.773438 576.085938 91.917969 577.246094 88.980469 C 578.761719 85.148438 580.128906 80.96875 577.929688 77.078125 C 576.191406 74.015625 572.710938 72.730469 569.621094 74.675781 C 566.472656 76.664062 565.417969 80.492188 564.734375 83.90625 C 564.113281 87.035156 563.945312 90.261719 562.972656 93.304688 C 562.683594 94.195312 562.207031 95.003906 561.832031 95.851562 C 561.8125 95.769531 561.769531 95.707031 561.769531 95.683594 C 561.273438 93.699219 561.128906 91.648438 560.570312 89.660156 C 559.71875 86.703125 557.710938 82.230469 554.144531 81.941406 C 550.851562 81.671875 548.695312 85.191406 548.21875 87.984375 C 546.625 97.484375 553.898438 105.394531 558.433594 112.867188 C 559.347656 114.480469 560.464844 116.363281 560.484375 118.289062 C 560.484375 118.765625 560.300781 119.28125 560.484375 119.300781 C 559.449219 119.261719 558.082031 116.695312 557.648438 115.992188 C 555.554688 112.679688 554.457031 108.703125 552.03125 105.601562 C 550.292969 103.386719 547.140625 101.6875 544.386719 103.261719 C 541.566406 104.875 541.941406 108.601562 542.789062 111.230469 C 543.992188 114.976562 546.042969 118.328125 548.695312 121.226562 C 550.789062 123.484375 553.296875 125.324219 555.386719 127.582031 C 555.679688 127.890625 555.925781 128.222656 556.195312 128.554688 C 555.988281 128.410156 555.761719 128.285156 555.574219 128.140625 C 554.082031 127.066406 552.652344 125.71875 550.769531 125.429688 C 547.640625 124.933594 545.027344 127.664062 545.878906 130.769531 C 546.957031 134.742188 550.664062 137.371094 554.289062 138.78125 C 558.207031 140.292969 562.039062 140 566.019531 140.996094 C 567.449219 141.429688 568.835938 141.90625 569.933594 142.960938 C 570.84375 143.832031 572.335938 145.714844 571.964844 147.082031 C 571.15625 149.976562 565.394531 145.445312 564.171875 144.699219 C 560.277344 142.257812 553.566406 138.738281 550.683594 144.574219 C 548.054688 149.9375 553.480469 154.53125 558.332031 155.503906 C 560.859375 156 563.425781 155.792969 565.976562 156.105469 C 566.496094 156.167969 567.074219 156.207031 567.550781 156.414062 C 567.675781 156.476562 568.089844 156.601562 568.132812 156.746094 C 568.152344 156.808594 568.171875 156.828125 568.171875 156.871094 C 568.132812 156.789062 568.027344 156.707031 567.902344 156.828125 C 566.496094 158.257812 563.488281 157.140625 561.957031 156.664062 C 559.53125 155.917969 556.757812 155.234375 554.558594 156.996094 C 552.964844 158.277344 552.613281 160.597656 553.6875 162.335938 C 556.238281 166.433594 562.703125 166.660156 566.847656 166.207031 C 567.964844 166.082031 569.167969 165.976562 570.367188 165.855469 C 570.367188 165.855469 587.378906 166.289062 596.0625 161.050781 C 604.742188 155.816406 604.535156 149.191406 605.820312 145.734375 L 605.820312 145.714844 C 606.152344 144.949219 606.460938 144.160156 606.753906 143.394531 C 607.230469 142.113281 607.1875 141.058594 608.515625 140.519531 C 610.484375 139.710938 612.328125 140.765625 614.292969 140.972656 C 615.808594 141.140625 617.421875 141.140625 618.894531 140.703125 C 621.710938 139.855469 624.28125 137.953125 623.703125 134.804688 Z M 623.703125 134.804688 " fill-opacity="1" fill-rule="nonzero"/></g><g clip-path="url(#id35)"><path fill="#ffde59" d="M 568.632812 161.207031 C 569.671875 151.453125 576.738281 149.171875 588.140625 146.78125 C 607.761719 142.667969 593.261719 124.710938 584.96875 136.28125 C 583.84375 137.855469 582.207031 142.132812 579.699219 141.039062 C 577.546875 140.371094 578.074219 137.894531 579.3125 135.511719 C 585.355469 123.875 569.480469 122.589844 572.796875 133.496094 C 574.019531 137.515625 572.402344 141.066406 571.859375 142.324219 C 569.867188 146.953125 565.625 145.734375 564.367188 138.554688 C 562.589844 128.410156 568.96875 123.886719 572.457031 119.695312 C 576.421875 114.9375 582.769531 100.730469 573.234375 97.902344 C 565.308594 95.550781 564.113281 106.902344 563.828125 111.527344 C 563.433594 118.015625 563.390625 121.910156 561.140625 121.976562 C 559.019531 122.042969 559.125 118.066406 558.457031 114.828125 C 556.175781 103.816406 542.167969 111.789062 549.738281 119.289062 C 553.0625 122.585938 558.164062 128.648438 558.492188 139.324219 C 558.75 147.726562 550.84375 148.496094 551.292969 141.125 C 551.414062 139.125 551.925781 137.453125 551.988281 135.976562 C 552.320312 127.753906 541.007812 128.523438 544.460938 137.601562 C 545.539062 140.441406 547.882812 143.328125 546.929688 145.089844 C 546.023438 146.761719 543.859375 145.445312 541.523438 144.125 C 528.925781 137.011719 525.757812 159.726562 541.609375 155.269531 C 544.402344 154.484375 548.292969 153.210938 551.894531 152.613281 C 554.515625 152.175781 559.246094 153.5 559.972656 160.765625 C 560.996094 171.0625 567.015625 176.339844 568.632812 161.207031 " fill-opacity="1" fill-rule="nonzero"/></g><path fill="#a49523" d="M 594.878906 136.539062 C 595.160156 135.523438 594.566406 134.46875 593.550781 134.183594 C 592.535156 133.898438 591.480469 134.492188 591.195312 135.511719 C 590.910156 136.527344 591.503906 137.582031 592.519531 137.867188 C 593.539062 138.152344 594.59375 137.558594 594.878906 136.539062 " fill-opacity="1" fill-rule="nonzero"/><path fill="#a49523" d="M 595.277344 140.785156 C 595.484375 140.175781 595.164062 139.515625 594.558594 139.304688 C 593.953125 139.097656 593.289062 139.417969 593.082031 140.023438 C 592.871094 140.632812 593.191406 141.292969 593.800781 141.503906 C 594.40625 141.710938 595.066406 141.390625 595.277344 140.785156 " fill-opacity="1" fill-rule="nonzero"/><path fill="#a49523" d="M 589.796875 136.207031 C 590.007812 135.597656 589.6875 134.9375 589.082031 134.726562 C 588.472656 134.519531 587.8125 134.839844 587.601562 135.445312 C 587.394531 136.054688 587.714844 136.714844 588.320312 136.925781 C 588.929688 137.132812 589.589844 136.8125 589.796875 136.207031 " fill-opacity="1" fill-rule="nonzero"/><path fill="#a49523" d="M 591.496094 143.257812 C 591.652344 142.800781 591.410156 142.300781 590.953125 142.144531 C 590.496094 141.984375 589.996094 142.226562 589.835938 142.6875 C 589.675781 143.144531 589.921875 143.644531 590.378906 143.800781 C 590.835938 143.960938 591.335938 143.71875 591.496094 143.257812 " fill-opacity="1" fill-rule="nonzero"/><path fill="#a49523" d="M 590.980469 139.660156 C 591.140625 139.203125 590.894531 138.703125 590.4375 138.542969 C 589.980469 138.386719 589.480469 138.628906 589.320312 139.085938 C 589.164062 139.546875 589.40625 140.046875 589.863281 140.203125 C 590.324219 140.363281 590.824219 140.117188 590.980469 139.660156 " fill-opacity="1" fill-rule="nonzero"/><path fill="#a49523" d="M 574.539062 101.859375 C 574.824219 100.84375 574.230469 99.789062 573.210938 99.503906 C 572.195312 99.21875 571.140625 99.8125 570.855469 100.832031 C 570.570312 101.847656 571.164062 102.902344 572.179688 103.1875 C 573.199219 103.472656 574.253906 102.878906 574.539062 101.859375 " fill-opacity="1" fill-rule="nonzero"/><path fill="#a49523" d="M 576.867188 106.257812 C 577.078125 105.652344 576.757812 104.992188 576.148438 104.78125 C 575.542969 104.570312 574.882812 104.894531 574.671875 105.5 C 574.464844 106.105469 574.785156 106.769531 575.390625 106.976562 C 575.996094 107.1875 576.660156 106.867188 576.867188 106.257812 " fill-opacity="1" fill-rule="nonzero"/><path fill="#a49523" d="M 571.878906 106.394531 C 572.089844 105.785156 571.765625 105.125 571.160156 104.914062 C 570.554688 104.707031 569.894531 105.027344 569.683594 105.632812 C 569.472656 106.242188 569.796875 106.902344 570.402344 107.113281 C 571.007812 107.320312 571.667969 107 571.878906 106.394531 " fill-opacity="1" fill-rule="nonzero"/><path fill="#a49523" d="M 569.308594 102.875 C 569.515625 102.265625 569.195312 101.605469 568.589844 101.394531 C 567.984375 101.1875 567.320312 101.507812 567.113281 102.113281 C 566.902344 102.722656 567.222656 103.382812 567.832031 103.59375 C 568.4375 103.800781 569.097656 103.480469 569.308594 102.875 " fill-opacity="1" fill-rule="nonzero"/><path fill="#a49523" d="M 569.507812 110.402344 C 569.664062 109.941406 569.421875 109.441406 568.964844 109.285156 C 568.507812 109.125 568.007812 109.367188 567.847656 109.828125 C 567.691406 110.285156 567.933594 110.785156 568.390625 110.945312 C 568.847656 111.101562 569.347656 110.859375 569.507812 110.402344 " fill-opacity="1" fill-rule="nonzero"/><path fill="#a49523" d="M 567.734375 112.808594 C 567.894531 112.351562 567.648438 111.851562 567.191406 111.691406 C 566.734375 111.535156 566.234375 111.777344 566.074219 112.234375 C 565.917969 112.695312 566.160156 113.195312 566.617188 113.351562 C 567.078125 113.511719 567.578125 113.269531 567.734375 112.808594 " fill-opacity="1" fill-rule="nonzero"/><path fill="#a49523" d="M 567.734375 107.433594 C 567.894531 106.976562 567.648438 106.476562 567.191406 106.316406 C 566.734375 106.160156 566.234375 106.402344 566.074219 106.863281 C 565.917969 107.320312 566.160156 107.820312 566.617188 107.976562 C 567.078125 108.136719 567.578125 107.894531 567.734375 107.433594 " fill-opacity="1" fill-rule="nonzero"/><path fill="#a49523" d="M 573.527344 109.4375 C 573.683594 108.976562 573.441406 108.476562 572.984375 108.320312 C 572.523438 108.160156 572.023438 108.40625 571.867188 108.863281 C 571.707031 109.320312 571.953125 109.820312 572.410156 109.980469 C 572.867188 110.136719 573.367188 109.894531 573.527344 109.4375 " fill-opacity="1" fill-rule="nonzero"/><path fill="#a49523" d="M 553.605469 113.011719 C 553.890625 111.996094 553.296875 110.9375 552.277344 110.652344 C 551.261719 110.371094 550.207031 110.964844 549.921875 111.980469 C 549.636719 113 550.230469 114.054688 551.25 114.339844 C 552.265625 114.625 553.320312 114.03125 553.605469 113.011719 " fill-opacity="1" fill-rule="nonzero"/><path fill="#a49523" d="M 557.015625 114.292969 C 557.222656 113.683594 556.902344 113.023438 556.296875 112.8125 C 555.6875 112.605469 555.027344 112.925781 554.820312 113.53125 C 554.609375 114.140625 554.929688 114.800781 555.535156 115.011719 C 556.144531 115.21875 556.804688 114.898438 557.015625 114.292969 " fill-opacity="1" fill-rule="nonzero"/><path fill="#a49523" d="M 552.085938 117.089844 C 552.292969 116.484375 551.972656 115.824219 551.367188 115.613281 C 550.757812 115.402344 550.097656 115.726562 549.890625 116.332031 C 549.679688 116.9375 550 117.601562 550.609375 117.808594 C 551.214844 118.019531 551.875 117.699219 552.085938 117.089844 " fill-opacity="1" fill-rule="nonzero"/><path fill="#a49523" d="M 554.5 120.660156 C 554.65625 120.199219 554.414062 119.703125 553.957031 119.542969 C 553.496094 119.382812 552.996094 119.628906 552.839844 120.085938 C 552.679688 120.542969 552.925781 121.042969 553.382812 121.203125 C 553.839844 121.359375 554.339844 121.117188 554.5 120.660156 " fill-opacity="1" fill-rule="nonzero"/><path fill="#a49523" d="M 555.09375 117.238281 C 555.25 116.78125 555.007812 116.28125 554.550781 116.121094 C 554.089844 115.964844 553.589844 116.207031 553.433594 116.664062 C 553.273438 117.125 553.519531 117.625 553.976562 117.78125 C 554.433594 117.941406 554.933594 117.699219 555.09375 117.238281 " fill-opacity="1" fill-rule="nonzero"/><path fill="#a49523" d="M 579.667969 131.511719 C 579.875 130.90625 579.554688 130.246094 578.949219 130.035156 C 578.339844 129.824219 577.679688 130.148438 577.472656 130.753906 C 577.261719 131.359375 577.582031 132.023438 578.1875 132.230469 C 578.796875 132.441406 579.457031 132.121094 579.667969 131.511719 " fill-opacity="1" fill-rule="nonzero"/><path fill="#a49523" d="M 577.003906 128.796875 C 577.214844 128.191406 576.890625 127.527344 576.285156 127.320312 C 575.679688 127.109375 575.019531 127.429688 574.808594 128.039062 C 574.597656 128.644531 574.921875 129.304688 575.527344 129.515625 C 576.132812 129.726562 576.792969 129.402344 577.003906 128.796875 " fill-opacity="1" fill-rule="nonzero"/><path fill="#a49523" d="M 575.695312 132.449219 C 575.855469 131.992188 575.609375 131.492188 575.152344 131.332031 C 574.695312 131.171875 574.195312 131.417969 574.035156 131.875 C 573.878906 132.332031 574.121094 132.832031 574.578125 132.992188 C 575.039062 133.152344 575.539062 132.90625 575.695312 132.449219 " fill-opacity="1" fill-rule="nonzero"/><path fill="#a49523" d="M 548.152344 132.816406 C 548.359375 132.207031 548.039062 131.546875 547.433594 131.335938 C 546.824219 131.128906 546.164062 131.449219 545.953125 132.054688 C 545.746094 132.664062 546.066406 133.324219 546.671875 133.535156 C 547.28125 133.742188 547.941406 133.421875 548.152344 132.816406 " fill-opacity="1" fill-rule="nonzero"/><path fill="#a49523" d="M 547.261719 136.160156 C 547.417969 135.703125 547.175781 135.203125 546.71875 135.046875 C 546.261719 134.886719 545.761719 135.128906 545.601562 135.589844 C 545.445312 136.046875 545.6875 136.546875 546.144531 136.703125 C 546.601562 136.863281 547.101562 136.621094 547.261719 136.160156 " fill-opacity="1" fill-rule="nonzero"/><path fill="#a49523" d="M 550.601562 134.503906 C 550.757812 134.046875 550.515625 133.546875 550.058594 133.390625 C 549.601562 133.230469 549.101562 133.472656 548.941406 133.933594 C 548.78125 134.390625 549.027344 134.890625 549.484375 135.046875 C 549.941406 135.207031 550.441406 134.964844 550.601562 134.503906 " fill-opacity="1" fill-rule="nonzero"/><path fill="#a49523" d="M 536.019531 150.425781 C 536.304688 149.410156 535.710938 148.355469 534.695312 148.070312 C 533.675781 147.785156 532.621094 148.378906 532.335938 149.398438 C 532.054688 150.414062 532.648438 151.46875 533.664062 151.753906 C 534.679688 152.039062 535.738281 151.445312 536.019531 150.425781 " fill-opacity="1" fill-rule="nonzero"/><path fill="#a49523" d="M 538.121094 153.582031 C 538.328125 152.976562 538.007812 152.316406 537.402344 152.105469 C 536.796875 151.898438 536.132812 152.21875 535.925781 152.824219 C 535.714844 153.429688 536.035156 154.09375 536.640625 154.304688 C 537.25 154.511719 537.910156 154.191406 538.121094 153.582031 " fill-opacity="1" fill-rule="nonzero"/><path fill="#a49523" d="M 536.925781 145.714844 C 537.136719 145.109375 536.816406 144.449219 536.207031 144.238281 C 535.601562 144.027344 534.941406 144.351562 534.730469 144.957031 C 534.523438 145.5625 534.84375 146.226562 535.449219 146.433594 C 536.054688 146.644531 536.71875 146.324219 536.925781 145.714844 " fill-opacity="1" fill-rule="nonzero"/><path fill="#a49523" d="M 542.652344 152.613281 C 542.808594 152.15625 542.566406 151.65625 542.109375 151.496094 C 541.648438 151.339844 541.152344 151.582031 540.992188 152.039062 C 540.832031 152.496094 541.078125 152.996094 541.535156 153.15625 C 541.992188 153.316406 542.492188 153.070312 542.652344 152.613281 " fill-opacity="1" fill-rule="nonzero"/><path fill="#a49523" d="M 540.378906 145.878906 C 540.539062 145.421875 540.292969 144.921875 539.835938 144.765625 C 539.378906 144.605469 538.878906 144.847656 538.71875 145.308594 C 538.5625 145.765625 538.804688 146.265625 539.261719 146.425781 C 539.722656 146.582031 540.21875 146.339844 540.378906 145.878906 " fill-opacity="1" fill-rule="nonzero"/><path fill="#a49523" d="M 539.242188 149.578125 C 539.402344 149.121094 539.160156 148.621094 538.699219 148.460938 C 538.242188 148.304688 537.742188 148.546875 537.585938 149.003906 C 537.425781 149.460938 537.667969 149.960938 538.128906 150.121094 C 538.585938 150.277344 539.085938 150.035156 539.242188 149.578125 " fill-opacity="1" fill-rule="nonzero"/><g clip-path="url(#id36)"><g clip-path="url(#id37)"><g clip-path="url(#id38)"><path fill="#ffffff" d="M 576.226562 55.292969 C 577.335938 54.070312 579.214844 53.972656 580.425781 55.070312 C 581.636719 56.167969 581.71875 58.050781 580.609375 59.269531 C 579.5 60.492188 577.621094 60.589844 576.410156 59.492188 C 575.203125 58.394531 575.121094 56.511719 576.226562 55.292969 " fill-opacity="1" fill-rule="nonzero"/></g></g></g><g clip-path="url(#id39)"><g clip-path="url(#id40)"><g clip-path="url(#id41)"><path fill="#ffffff" d="M 577.414062 64.765625 C 578.175781 63.921875 579.472656 63.855469 580.304688 64.613281 C 581.136719 65.367188 581.195312 66.664062 580.429688 67.503906 C 579.667969 68.347656 578.371094 68.414062 577.539062 67.660156 C 576.707031 66.902344 576.648438 65.605469 577.414062 64.765625 " fill-opacity="1" fill-rule="nonzero"/></g></g></g><g clip-path="url(#id42)"><g clip-path="url(#id43)"><g clip-path="url(#id44)"><path fill="#ffffff" d="M 583.488281 51.699219 C 584.25 50.859375 585.546875 50.789062 586.378906 51.546875 C 587.210938 52.304688 587.269531 53.597656 586.503906 54.441406 C 585.742188 55.28125 584.445312 55.351562 583.613281 54.59375 C 582.78125 53.835938 582.722656 52.542969 583.488281 51.699219 " fill-opacity="1" fill-rule="nonzero"/></g></g></g><g clip-path="url(#id45)"><g clip-path="url(#id46)"><g clip-path="url(#id47)"><path fill="#ffffff" d="M 570.578125 57.734375 C 571.136719 57.117188 572.085938 57.066406 572.699219 57.621094 C 573.3125 58.179688 573.351562 59.128906 572.792969 59.746094 C 572.230469 60.363281 571.28125 60.414062 570.667969 59.859375 C 570.058594 59.304688 570.015625 58.351562 570.578125 57.734375 " fill-opacity="1" fill-rule="nonzero"/></g></g></g><g clip-path="url(#id48)"><g clip-path="url(#id49)"><g clip-path="url(#id50)"><path fill="#ffffff" d="M 575.210938 47.269531 C 575.605469 46.839844 576.269531 46.804688 576.695312 47.191406 C 577.125 47.582031 577.152344 48.246094 576.761719 48.675781 C 576.371094 49.109375 575.703125 49.144531 575.277344 48.753906 C 574.851562 48.367188 574.820312 47.703125 575.210938 47.269531 " fill-opacity="1" fill-rule="nonzero"/></g></g></g><g clip-path="url(#id51)"><g clip-path="url(#id52)"><g clip-path="url(#id53)"><path fill="#ffffff" d="M 586.910156 57.890625 C 587.300781 57.460938 587.964844 57.425781 588.394531 57.8125 C 588.820312 58.203125 588.851562 58.867188 588.457031 59.296875 C 588.066406 59.730469 587.402344 59.765625 586.976562 59.375 C 586.546875 58.988281 586.519531 58.324219 586.910156 57.890625 " fill-opacity="1" fill-rule="nonzero"/></g></g></g><g clip-path="url(#id54)"><g clip-path="url(#id55)"><g clip-path="url(#id56)"><path fill="#ffffff" d="M 577.316406 55.117188 C 577.652344 54.746094 578.222656 54.71875 578.589844 55.050781 C 578.953125 55.382812 578.980469 55.949219 578.644531 56.320312 C 578.308594 56.691406 577.738281 56.71875 577.375 56.386719 C 577.007812 56.054688 576.980469 55.484375 577.316406 55.117188 " fill-opacity="1" fill-rule="nonzero"/></g></g></g><g clip-path="url(#id57)"><g clip-path="url(#id58)"><g clip-path="url(#id59)"><path fill="#ffffff" d="M 578.222656 64.828125 C 578.445312 64.585938 578.816406 64.566406 579.054688 64.78125 C 579.296875 65 579.3125 65.371094 579.089844 65.613281 C 578.871094 65.855469 578.5 65.875 578.261719 65.660156 C 578.019531 65.441406 578.003906 65.070312 578.222656 64.828125 " fill-opacity="1" fill-rule="nonzero"/></g></g></g><g clip-path="url(#id60)"><g clip-path="url(#id61)"><g clip-path="url(#id62)"><path fill="#ffffff" d="M 584.167969 51.519531 C 584.386719 51.277344 584.761719 51.257812 585 51.476562 C 585.238281 51.695312 585.257812 52.066406 585.035156 52.308594 C 584.816406 52.550781 584.445312 52.570312 584.207031 52.351562 C 583.964844 52.132812 583.949219 51.761719 584.167969 51.519531 " fill-opacity="1" fill-rule="nonzero"/></g></g></g><g clip-path="url(#id63)"><path fill="#edefec" d="M 35.496094 26.882812 L 38.535156 25.632812 C 37.5625 21.71875 42.988281 20.273438 44.265625 24.308594 C 45.359375 24.417969 46.382812 24.820312 47.328125 25.546875 C 51.902344 29.136719 50.300781 32.625 44.953125 34.097656 C 44.875 34.113281 44.796875 34.128906 44.71875 34.140625 C 44.210938 37.457031 39.863281 37.851562 39.011719 34.285156 C 38.535156 34.207031 38.085938 34.097656 37.648438 33.960938 C 37.3125 33.855469 37.003906 33.71875 36.726562 33.566406 C 36.03125 35.027344 33.796875 35.351562 32.902344 34.089844 C 32.402344 33.496094 32.378906 32.984375 32.859375 32.558594 C 33.273438 32.300781 33.542969 31.992188 33.636719 31.632812 C 33.195312 31.566406 32.707031 31.703125 32.113281 32.15625 C 32.035156 30.738281 31.957031 29.328125 31.878906 27.914062 C 32.078125 27.917969 32.328125 27.898438 32.621094 27.839844 C 31.652344 25.375 34.472656 24.472656 35.496094 26.882812 " fill-opacity="1" fill-rule="evenodd"/></g><path fill="#f57715" d="M 36.726562 33.566406 C 36.027344 35.027344 33.796875 35.351562 32.902344 34.089844 C 32.402344 33.496094 32.378906 32.984375 32.859375 32.558594 C 33.273438 32.300781 33.542969 31.992188 33.636719 31.632812 C 34.523438 30.300781 33.910156 28.632812 32.621094 27.839844 C 31.652344 25.375 34.472656 24.472656 35.496094 26.882812 C 35.566406 27.839844 38.042969 30.207031 36.726562 33.566406 " fill-opacity="1" fill-rule="evenodd"/><g clip-path="url(#id64)"><path fill="#f57715" d="M 45.683594 24.632812 C 46.253906 24.839844 46.804688 25.144531 47.328125 25.546875 C 51.464844 28.796875 50.542969 31.96875 46.355469 33.632812 C 43.761719 29.875 43.925781 27.207031 45.683594 24.632812 " fill-opacity="1" fill-rule="evenodd"/></g><path fill="#191818" d="M 49.878906 30.546875 C 49.773438 30.90625 49.59375 31.242188 49.355469 31.566406 C 48.191406 31.882812 47.125 31.242188 46.496094 30.277344 C 47.648438 31.179688 48.59375 31.257812 49.878906 30.546875 " fill-opacity="1" fill-rule="evenodd"/><g clip-path="url(#id65)"><path fill="#f57715" d="M 38.535156 25.632812 C 37.5625 21.71875 42.988281 20.273438 44.265625 24.308594 C 41.371094 28.050781 40.851562 31.882812 44.832031 34.121094 L 44.71875 34.140625 C 44.210938 37.457031 39.863281 37.851562 39.011719 34.285156 C 41.371094 30.667969 41.023438 28.96875 38.535156 25.632812 " fill-opacity="1" fill-rule="evenodd"/></g><g clip-path="url(#id66)"><path fill="#d74521" d="M 31.878906 27.914062 C 31.308594 27.359375 28.484375 25.085938 28.691406 27.257812 C 28.054688 27.28125 27.953125 27.703125 28.175781 28.367188 C 27.640625 28.925781 27.820312 29.394531 28.234375 29.832031 C 27.96875 30.207031 28.003906 30.53125 28.304688 30.796875 C 27.890625 31.257812 28.019531 31.59375 28.503906 31.839844 C 28.289062 32.445312 28.484375 32.738281 29.097656 32.71875 C 28.960938 33.421875 29.277344 33.6875 29.90625 33.632812 C 30.742188 33.507812 31.5 33.097656 32.113281 32.15625 C 32.835938 31.34375 32.671875 29.054688 31.878906 27.914062 " fill-opacity="1" fill-rule="evenodd"/></g><path fill="#d74521" d="M 41.53125 29.703125 C 40.609375 28.992188 39.628906 28.460938 38.476562 28.496094 C 38 28.652344 37.914062 29.019531 38.121094 29.546875 C 37.769531 29.890625 37.917969 30.222656 38.234375 30.550781 C 37.855469 31 37.941406 31.34375 38.285156 31.636719 C 38.089844 32.179688 38.335938 32.378906 38.671875 32.5 C 38.464844 33.132812 38.621094 33.472656 39.179688 33.496094 C 40.308594 33.371094 41.25 32.898438 42.007812 32.105469 C 41.566406 31.371094 41.242188 30.609375 41.53125 29.703125 " fill-opacity="1" fill-rule="evenodd"/><path fill="#ffffff" d="M 46.90625 27.199219 C 47.519531 27.128906 48.085938 27.566406 48.15625 28.1875 C 48.234375 28.796875 47.796875 29.367188 47.183594 29.4375 C 46.570312 29.515625 46.011719 29.078125 45.933594 28.460938 C 45.863281 27.839844 46.296875 27.28125 46.90625 27.199219 " fill-opacity="1" fill-rule="evenodd"/><path fill="#191818" d="M 47.207031 27.625 C 47.570312 27.582031 47.90625 27.839844 47.949219 28.207031 C 47.992188 28.574219 47.734375 28.914062 47.371094 28.957031 C 47.003906 29 46.675781 28.738281 46.632812 28.371094 C 46.582031 28.007812 46.839844 27.675781 47.207031 27.625 " fill-opacity="1" fill-rule="evenodd"/><g clip-path="url(#id67)"><path fill="#edefec" d="M 45.734375 46.839844 L 49.683594 45.214844 C 48.421875 40.128906 55.472656 38.25 57.136719 43.496094 C 58.558594 43.632812 59.886719 44.15625 61.113281 45.101562 C 67.0625 49.769531 64.980469 54.304688 58.03125 56.21875 C 57.925781 56.238281 57.824219 56.257812 57.722656 56.277344 C 57.0625 60.585938 51.414062 61.101562 50.308594 56.464844 C 49.683594 56.359375 49.097656 56.21875 48.53125 56.042969 C 48.097656 55.902344 47.695312 55.722656 47.332031 55.527344 C 46.433594 57.425781 43.523438 57.847656 42.363281 56.210938 C 41.710938 55.433594 41.683594 54.769531 42.304688 54.21875 C 42.84375 53.882812 43.199219 53.480469 43.320312 53.011719 C 42.742188 52.929688 42.109375 53.105469 41.339844 53.695312 C 41.238281 51.851562 41.136719 50.019531 41.03125 48.179688 C 41.292969 48.1875 41.617188 48.160156 42 48.085938 C 40.734375 44.878906 44.40625 43.710938 45.734375 46.839844 " fill-opacity="1" fill-rule="evenodd"/></g><path fill="#f57715" d="M 47.332031 55.527344 C 46.421875 57.425781 43.523438 57.847656 42.363281 56.210938 C 41.710938 55.433594 41.683594 54.769531 42.304688 54.21875 C 42.84375 53.882812 43.199219 53.480469 43.320312 53.011719 C 44.472656 51.28125 43.671875 49.113281 42 48.085938 C 40.734375 44.878906 44.40625 43.710938 45.734375 46.839844 C 45.828125 48.085938 49.042969 51.160156 47.332031 55.527344 " fill-opacity="1" fill-rule="evenodd"/><g clip-path="url(#id68)"><path fill="#f57715" d="M 58.976562 43.914062 C 59.722656 44.1875 60.4375 44.578125 61.113281 45.101562 C 66.496094 49.328125 65.296875 53.453125 59.851562 55.613281 C 56.476562 50.730469 56.691406 47.261719 58.976562 43.914062 " fill-opacity="1" fill-rule="evenodd"/></g><g clip-path="url(#id69)"><path fill="#191818" d="M 64.433594 51.601562 C 64.292969 52.066406 64.0625 52.507812 63.753906 52.929688 C 62.238281 53.339844 60.855469 52.507812 60.035156 51.253906 C 61.535156 52.421875 62.761719 52.527344 64.433594 51.601562 " fill-opacity="1" fill-rule="evenodd"/></g><g clip-path="url(#id70)"><path fill="#f57715" d="M 49.683594 45.214844 C 48.421875 40.128906 55.472656 38.25 57.136719 43.496094 C 53.375 48.355469 52.695312 53.339844 57.871094 56.246094 L 57.722656 56.277344 C 57.0625 60.585938 51.414062 61.101562 50.308594 56.464844 C 53.375 51.761719 52.917969 49.554688 49.683594 45.214844 " fill-opacity="1" fill-rule="evenodd"/></g><g clip-path="url(#id71)"><path fill="#d74521" d="M 41.03125 48.179688 C 40.289062 47.457031 36.617188 44.503906 36.886719 47.328125 C 36.0625 47.355469 35.929688 47.90625 36.21875 48.769531 C 35.523438 49.496094 35.753906 50.105469 36.292969 50.675781 C 35.949219 51.160156 35.996094 51.582031 36.386719 51.929688 C 35.847656 52.527344 36.015625 52.964844 36.648438 53.285156 C 36.367188 54.070312 36.617188 54.453125 37.417969 54.425781 C 37.242188 55.339844 37.652344 55.6875 38.46875 55.613281 C 39.554688 55.453125 40.539062 54.921875 41.339844 53.695312 C 42.277344 52.640625 42.066406 49.664062 41.03125 48.179688 " fill-opacity="1" fill-rule="evenodd"/></g><path fill="#d74521" d="M 53.578125 50.507812 C 52.378906 49.582031 51.105469 48.890625 49.609375 48.9375 C 48.988281 49.140625 48.875 49.617188 49.144531 50.300781 C 48.691406 50.75 48.886719 51.179688 49.292969 51.609375 C 48.800781 52.191406 48.914062 52.640625 49.359375 53.023438 C 49.109375 53.722656 49.425781 53.984375 49.859375 54.144531 C 49.589844 54.96875 49.796875 55.40625 50.519531 55.433594 C 51.988281 55.277344 53.214844 54.660156 54.199219 53.628906 C 53.625 52.675781 53.207031 51.683594 53.578125 50.507812 " fill-opacity="1" fill-rule="evenodd"/><path fill="#ffffff" d="M 60.566406 47.253906 C 61.367188 47.160156 62.101562 47.730469 62.191406 48.535156 C 62.296875 49.328125 61.726562 50.066406 60.929688 50.160156 C 60.128906 50.265625 59.40625 49.695312 59.304688 48.890625 C 59.210938 48.085938 59.777344 47.355469 60.566406 47.253906 " fill-opacity="1" fill-rule="evenodd"/><path fill="#191818" d="M 60.957031 47.804688 C 61.429688 47.75 61.867188 48.085938 61.921875 48.5625 C 61.980469 49.039062 61.644531 49.476562 61.171875 49.535156 C 60.695312 49.589844 60.269531 49.253906 60.214844 48.777344 C 60.148438 48.300781 60.484375 47.871094 60.957031 47.804688 " fill-opacity="1" fill-rule="evenodd"/><g clip-path="url(#id72)"><path fill="#edefec" d="M 499.101562 134.621094 L 502.847656 133.054688 C 501.648438 128.164062 508.339844 126.355469 509.917969 131.402344 C 511.265625 131.535156 512.527344 132.039062 513.691406 132.949219 C 519.335938 137.4375 517.359375 141.796875 510.765625 143.640625 C 510.667969 143.660156 510.570312 143.675781 510.472656 143.695312 C 509.847656 147.839844 504.488281 148.335938 503.4375 143.875 C 502.847656 143.777344 502.292969 143.640625 501.753906 143.472656 C 501.339844 143.335938 500.960938 143.164062 500.617188 142.976562 C 499.761719 144.800781 497.003906 145.207031 495.902344 143.632812 C 495.285156 142.886719 495.257812 142.246094 495.847656 141.71875 C 496.359375 141.394531 496.695312 141.007812 496.808594 140.558594 C 496.261719 140.476562 495.664062 140.648438 494.929688 141.214844 C 494.832031 139.441406 494.738281 137.679688 494.640625 135.90625 C 494.886719 135.914062 495.195312 135.890625 495.558594 135.816406 C 494.359375 132.730469 497.839844 131.609375 499.101562 134.621094 " fill-opacity="1" fill-rule="evenodd"/></g><path fill="#f57715" d="M 500.617188 142.976562 C 499.753906 144.800781 497.003906 145.207031 495.902344 143.632812 C 495.285156 142.886719 495.257812 142.246094 495.847656 141.71875 C 496.359375 141.394531 496.695312 141.007812 496.808594 140.558594 C 497.902344 138.894531 497.144531 136.804688 495.558594 135.816406 C 494.359375 132.730469 497.839844 131.609375 499.101562 134.621094 C 499.1875 135.816406 502.238281 138.777344 500.617188 142.976562 " fill-opacity="1" fill-rule="evenodd"/><g clip-path="url(#id73)"><path fill="#f57715" d="M 511.664062 131.804688 C 512.371094 132.066406 513.046875 132.445312 513.691406 132.949219 C 518.796875 137.011719 517.660156 140.980469 512.492188 143.058594 C 509.292969 138.363281 509.496094 135.027344 511.664062 131.804688 " fill-opacity="1" fill-rule="evenodd"/></g><g clip-path="url(#id74)"><path fill="#191818" d="M 516.839844 139.199219 C 516.707031 139.648438 516.488281 140.070312 516.195312 140.476562 C 514.757812 140.871094 513.445312 140.070312 512.667969 138.867188 C 514.089844 139.992188 515.253906 140.089844 516.839844 139.199219 " fill-opacity="1" fill-rule="evenodd"/></g><g clip-path="url(#id75)"><path fill="#f57715" d="M 502.847656 133.054688 C 501.648438 128.164062 508.339844 126.355469 509.917969 131.402344 C 506.347656 136.078125 505.703125 140.871094 510.613281 143.667969 L 510.472656 143.695312 C 509.847656 147.839844 504.488281 148.335938 503.4375 143.875 C 506.347656 139.351562 505.917969 137.230469 502.847656 133.054688 " fill-opacity="1" fill-rule="evenodd"/></g><g clip-path="url(#id76)"><path fill="#ff914d" d="M 494.640625 135.90625 C 493.933594 135.214844 490.453125 132.371094 490.707031 135.089844 C 489.921875 135.117188 489.800781 135.644531 490.074219 136.472656 C 489.410156 137.175781 489.632812 137.761719 490.144531 138.308594 C 489.816406 138.777344 489.863281 139.179688 490.230469 139.511719 C 489.71875 140.089844 489.878906 140.511719 490.480469 140.816406 C 490.214844 141.574219 490.453125 141.941406 491.210938 141.914062 C 491.042969 142.796875 491.429688 143.128906 492.207031 143.058594 C 493.238281 142.902344 494.171875 142.390625 494.929688 141.214844 C 495.820312 140.195312 495.617188 137.335938 494.640625 135.90625 " fill-opacity="1" fill-rule="evenodd"/></g><path fill="#ff914d" d="M 506.542969 138.144531 C 505.40625 137.257812 504.195312 136.589844 502.777344 136.636719 C 502.1875 136.832031 502.082031 137.292969 502.335938 137.949219 C 501.90625 138.378906 502.089844 138.792969 502.476562 139.207031 C 502.011719 139.765625 502.117188 140.195312 502.539062 140.566406 C 502.300781 141.242188 502.601562 141.492188 503.015625 141.644531 C 502.757812 142.4375 502.953125 142.859375 503.640625 142.886719 C 505.035156 142.734375 506.199219 142.140625 507.132812 141.152344 C 506.585938 140.234375 506.1875 139.28125 506.542969 138.144531 " fill-opacity="1" fill-rule="evenodd"/><path fill="#ffffff" d="M 513.171875 135.015625 C 513.929688 134.925781 514.625 135.476562 514.714844 136.25 C 514.8125 137.011719 514.273438 137.722656 513.515625 137.8125 C 512.757812 137.914062 512.070312 137.363281 511.972656 136.589844 C 511.882812 135.816406 512.421875 135.117188 513.171875 135.015625 " fill-opacity="1" fill-rule="evenodd"/><path fill="#191818" d="M 513.542969 135.546875 C 513.992188 135.492188 514.40625 135.816406 514.460938 136.277344 C 514.511719 136.734375 514.195312 137.15625 513.746094 137.210938 C 513.296875 137.265625 512.890625 136.941406 512.835938 136.484375 C 512.773438 136.023438 513.09375 135.609375 513.542969 135.546875 " fill-opacity="1" fill-rule="evenodd"/><g clip-path="url(#id77)"><path fill="#edefec" d="M 525.710938 123.679688 L 528.140625 122.679688 C 527.363281 119.546875 531.703125 118.390625 532.726562 121.621094 C 533.601562 121.707031 534.417969 122.027344 535.171875 122.609375 C 538.832031 125.484375 537.550781 128.273438 533.273438 129.453125 C 533.210938 129.464844 533.148438 129.476562 533.085938 129.488281 C 532.679688 132.144531 529.203125 132.460938 528.523438 129.605469 C 528.140625 129.539062 527.78125 129.453125 527.429688 129.34375 C 527.160156 129.257812 526.914062 129.148438 526.691406 129.027344 C 526.136719 130.199219 524.347656 130.457031 523.632812 129.449219 C 523.234375 128.972656 523.214844 128.5625 523.597656 128.222656 C 523.929688 128.015625 524.148438 127.769531 524.222656 127.480469 C 523.867188 127.429688 523.480469 127.539062 523.003906 127.898438 C 522.941406 126.765625 522.878906 125.636719 522.816406 124.503906 C 522.976562 124.507812 523.175781 124.492188 523.410156 124.445312 C 522.632812 122.472656 524.890625 121.753906 525.710938 123.679688 " fill-opacity="1" fill-rule="evenodd"/></g><path fill="#f57715" d="M 526.691406 129.027344 C 526.132812 130.199219 524.347656 130.457031 523.632812 129.449219 C 523.234375 128.972656 523.214844 128.5625 523.597656 128.222656 C 523.929688 128.015625 524.148438 127.769531 524.222656 127.480469 C 524.929688 126.414062 524.441406 125.078125 523.410156 124.445312 C 522.632812 122.472656 524.890625 121.753906 525.710938 123.679688 C 525.765625 124.445312 527.746094 126.339844 526.691406 129.027344 " fill-opacity="1" fill-rule="evenodd"/><g clip-path="url(#id78)"><path fill="#f57715" d="M 533.859375 121.878906 C 534.316406 122.046875 534.757812 122.289062 535.171875 122.609375 C 538.484375 125.210938 537.746094 127.75 534.394531 129.082031 C 532.320312 126.074219 532.453125 123.941406 533.859375 121.878906 " fill-opacity="1" fill-rule="evenodd"/></g><g clip-path="url(#id79)"><path fill="#191818" d="M 537.214844 126.609375 C 537.128906 126.898438 536.988281 127.167969 536.796875 127.429688 C 535.867188 127.679688 535.011719 127.167969 534.511719 126.398438 C 535.429688 127.117188 536.1875 127.179688 537.214844 126.609375 " fill-opacity="1" fill-rule="evenodd"/></g><g clip-path="url(#id80)"><path fill="#f57715" d="M 528.140625 122.679688 C 527.363281 119.546875 531.703125 118.390625 532.726562 121.621094 C 530.410156 124.613281 529.992188 127.679688 533.179688 129.472656 L 533.085938 129.488281 C 532.679688 132.144531 529.203125 132.460938 528.523438 129.605469 C 530.410156 126.707031 530.128906 125.351562 528.140625 122.679688 " fill-opacity="1" fill-rule="evenodd"/></g><g clip-path="url(#id81)"><path fill="#d74521" d="M 522.816406 124.503906 C 522.359375 124.0625 520.097656 122.242188 520.265625 123.980469 C 519.757812 123.996094 519.675781 124.335938 519.851562 124.867188 C 519.425781 125.316406 519.566406 125.691406 519.898438 126.039062 C 519.6875 126.339844 519.714844 126.597656 519.957031 126.8125 C 519.625 127.179688 519.726562 127.453125 520.117188 127.648438 C 519.945312 128.128906 520.097656 128.367188 520.589844 128.347656 C 520.480469 128.914062 520.734375 129.125 521.238281 129.082031 C 521.90625 128.984375 522.511719 128.65625 523.003906 127.898438 C 523.582031 127.25 523.449219 125.417969 522.816406 124.503906 " fill-opacity="1" fill-rule="evenodd"/></g><path fill="#d74521" d="M 530.535156 125.9375 C 529.796875 125.367188 529.015625 124.941406 528.09375 124.96875 C 527.710938 125.097656 527.640625 125.390625 527.808594 125.8125 C 527.527344 126.085938 527.648438 126.351562 527.898438 126.617188 C 527.597656 126.972656 527.664062 127.25 527.941406 127.484375 C 527.785156 127.917969 527.980469 128.078125 528.25 128.175781 C 528.082031 128.683594 528.207031 128.953125 528.65625 128.972656 C 529.558594 128.875 530.3125 128.492188 530.917969 127.859375 C 530.5625 127.273438 530.308594 126.664062 530.535156 125.9375 " fill-opacity="1" fill-rule="evenodd"/><path fill="#ffffff" d="M 534.835938 123.933594 C 535.328125 123.875 535.78125 124.226562 535.835938 124.722656 C 535.898438 125.210938 535.550781 125.667969 535.058594 125.722656 C 534.566406 125.789062 534.121094 125.4375 534.058594 124.941406 C 534 124.445312 534.351562 123.996094 534.835938 123.933594 " fill-opacity="1" fill-rule="evenodd"/><path fill="#191818" d="M 535.078125 124.273438 C 535.367188 124.238281 535.636719 124.445312 535.671875 124.738281 C 535.707031 125.035156 535.5 125.304688 535.207031 125.339844 C 534.917969 125.375 534.652344 125.164062 534.617188 124.871094 C 534.578125 124.578125 534.785156 124.3125 535.078125 124.273438 " fill-opacity="1" fill-rule="evenodd"/></svg>