<svg xmlns="http://www.w3.org/2000/svg" xmlns:xlink="http://www.w3.org/1999/xlink" width="350" zoomAndPan="magnify" viewBox="0 0 262.5 37.5" height="50" preserveAspectRatio="xMidYMid meet" version="1.0"><defs><g/><clipPath id="id1"><path d="M 1.480469 0 L 260.527344 0 L 260.527344 37.007812 L 1.480469 37.007812 Z M 1.480469 0 " clip-rule="nonzero"/></clipPath><clipPath id="id2"><path d="M 69.675781 6.121094 L 192 6.121094 L 192 30.589844 L 69.675781 30.589844 Z M 69.675781 6.121094 " clip-rule="nonzero"/></clipPath><clipPath id="id3"><path d="M 69.675781 6.121094 L 192.03125 6.121094 L 192.03125 30.589844 L 69.675781 30.589844 Z M 69.675781 6.121094 " clip-rule="nonzero"/></clipPath><clipPath id="id4"><path d="M 56.046875 15.140625 L 76 15.140625 L 76 37.007812 L 56.046875 37.007812 Z M 56.046875 15.140625 " clip-rule="nonzero"/></clipPath><clipPath id="id5"><path d="M 65.042969 23.5625 L 81.347656 23.5625 L 81.347656 37.007812 L 65.042969 37.007812 Z M 65.042969 23.5625 " clip-rule="nonzero"/></clipPath><clipPath id="id6"><path d="M 65.035156 32 L 67 32 L 67 34 L 65.035156 34 Z M 65.035156 32 " clip-rule="nonzero"/></clipPath><clipPath id="id7"><path d="M 65.035156 33 L 67 33 L 67 35 L 65.035156 35 Z M 65.035156 33 " clip-rule="nonzero"/></clipPath><clipPath id="id8"><path d="M 80 35 L 81.351562 35 L 81.351562 37 L 80 37 Z M 80 35 " clip-rule="nonzero"/></clipPath><clipPath id="id9"><path d="M 79 36 L 81 36 L 81 37.007812 L 79 37.007812 Z M 79 36 " clip-rule="nonzero"/></clipPath><clipPath id="id10"><path d="M 78 36 L 79 36 L 79 37.007812 L 78 37.007812 Z M 78 36 " clip-rule="nonzero"/></clipPath><clipPath id="id11"><path d="M 66 10 L 69 10 L 69 13 L 66 13 Z M 66 10 " clip-rule="nonzero"/></clipPath><clipPath id="id12"><path d="M 64.382812 11.464844 L 67.375 8.171875 L 70.667969 11.160156 L 67.675781 14.457031 Z M 64.382812 11.464844 " clip-rule="nonzero"/></clipPath><clipPath id="id13"><path d="M 64.382812 11.464844 L 67.375 8.171875 L 70.667969 11.160156 L 67.675781 14.457031 Z M 64.382812 11.464844 " clip-rule="nonzero"/></clipPath><clipPath id="id14"><path d="M 67 13 L 69 13 L 69 15 L 67 15 Z M 67 13 " clip-rule="nonzero"/></clipPath><clipPath id="id15"><path d="M 64.382812 11.464844 L 67.375 8.171875 L 70.667969 11.160156 L 67.675781 14.457031 Z M 64.382812 11.464844 " clip-rule="nonzero"/></clipPath><clipPath id="id16"><path d="M 64.382812 11.464844 L 67.375 8.171875 L 70.667969 11.160156 L 67.675781 14.457031 Z M 64.382812 11.464844 " clip-rule="nonzero"/></clipPath><clipPath id="id17"><path d="M 68 9 L 70 9 L 70 11 L 68 11 Z M 68 9 " clip-rule="nonzero"/></clipPath><clipPath id="id18"><path d="M 64.382812 11.464844 L 67.375 8.171875 L 70.667969 11.160156 L 67.675781 14.457031 Z M 64.382812 11.464844 " clip-rule="nonzero"/></clipPath><clipPath id="id19"><path d="M 64.382812 11.464844 L 67.375 8.171875 L 70.667969 11.160156 L 67.675781 14.457031 Z M 64.382812 11.464844 " clip-rule="nonzero"/></clipPath><clipPath id="id20"><path d="M 65 11 L 67 11 L 67 13 L 65 13 Z M 65 11 " clip-rule="nonzero"/></clipPath><clipPath id="id21"><path d="M 64.382812 11.464844 L 67.375 8.171875 L 70.667969 11.160156 L 67.675781 14.457031 Z M 64.382812 11.464844 " clip-rule="nonzero"/></clipPath><clipPath id="id22"><path d="M 64.382812 11.464844 L 67.375 8.171875 L 70.667969 11.160156 L 67.675781 14.457031 Z M 64.382812 11.464844 " clip-rule="nonzero"/></clipPath><clipPath id="id23"><path d="M 66 8 L 68 8 L 68 10 L 66 10 Z M 66 8 " clip-rule="nonzero"/></clipPath><clipPath id="id24"><path d="M 64.382812 11.464844 L 67.375 8.171875 L 70.667969 11.160156 L 67.675781 14.457031 Z M 64.382812 11.464844 " clip-rule="nonzero"/></clipPath><clipPath id="id25"><path d="M 64.382812 11.464844 L 67.375 8.171875 L 70.667969 11.160156 L 67.675781 14.457031 Z M 64.382812 11.464844 " clip-rule="nonzero"/></clipPath><clipPath id="id26"><path d="M 69 11 L 71 11 L 71 13 L 69 13 Z M 69 11 " clip-rule="nonzero"/></clipPath><clipPath id="id27"><path d="M 64.382812 11.464844 L 67.375 8.171875 L 70.667969 11.160156 L 67.675781 14.457031 Z M 64.382812 11.464844 " clip-rule="nonzero"/></clipPath><clipPath id="id28"><path d="M 64.382812 11.464844 L 67.375 8.171875 L 70.667969 11.160156 L 67.675781 14.457031 Z M 64.382812 11.464844 " clip-rule="nonzero"/></clipPath><clipPath id="id29"><path d="M 67 10 L 68 10 L 68 12 L 67 12 Z M 67 10 " clip-rule="nonzero"/></clipPath><clipPath id="id30"><path d="M 64.382812 11.464844 L 67.375 8.171875 L 70.667969 11.160156 L 67.675781 14.457031 Z M 64.382812 11.464844 " clip-rule="nonzero"/></clipPath><clipPath id="id31"><path d="M 64.382812 11.464844 L 67.375 8.171875 L 70.667969 11.160156 L 67.675781 14.457031 Z M 64.382812 11.464844 " clip-rule="nonzero"/></clipPath><clipPath id="id32"><path d="M 67 13 L 68 13 L 68 14 L 67 14 Z M 67 13 " clip-rule="nonzero"/></clipPath><clipPath id="id33"><path d="M 64.382812 11.464844 L 67.375 8.171875 L 70.667969 11.160156 L 67.675781 14.457031 Z M 64.382812 11.464844 " clip-rule="nonzero"/></clipPath><clipPath id="id34"><path d="M 64.382812 11.464844 L 67.375 8.171875 L 70.667969 11.160156 L 67.675781 14.457031 Z M 64.382812 11.464844 " clip-rule="nonzero"/></clipPath><clipPath id="id35"><path d="M 68 9 L 70 9 L 70 11 L 68 11 Z M 68 9 " clip-rule="nonzero"/></clipPath><clipPath id="id36"><path d="M 64.382812 11.464844 L 67.375 8.171875 L 70.667969 11.160156 L 67.675781 14.457031 Z M 64.382812 11.464844 " clip-rule="nonzero"/></clipPath><clipPath id="id37"><path d="M 64.382812 11.464844 L 67.375 8.171875 L 70.667969 11.160156 L 67.675781 14.457031 Z M 64.382812 11.464844 " clip-rule="nonzero"/></clipPath><clipPath id="id38"><path d="M 186.019531 16.441406 L 204.421875 16.441406 L 204.421875 37.007812 L 186.019531 37.007812 Z M 186.019531 16.441406 " clip-rule="nonzero"/></clipPath><clipPath id="id39"><path d="M 183.378906 22.0625 L 198.601562 22.0625 L 198.601562 37.007812 L 183.378906 37.007812 Z M 183.378906 22.0625 " clip-rule="nonzero"/></clipPath><clipPath id="id40"><path d="M 192 22.0625 L 194 22.0625 L 194 24 L 192 24 Z M 192 22.0625 " clip-rule="nonzero"/></clipPath><clipPath id="id41"><path d="M 191 22.0625 L 192 22.0625 L 192 24 L 191 24 Z M 191 22.0625 " clip-rule="nonzero"/></clipPath><clipPath id="id42"><path d="M 183.378906 33 L 185 33 L 185 35 L 183.378906 35 Z M 183.378906 33 " clip-rule="nonzero"/></clipPath><clipPath id="id43"><path d="M 183.378906 32 L 185 32 L 185 33 L 183.378906 33 Z M 183.378906 32 " clip-rule="nonzero"/></clipPath><clipPath id="id44"><path d="M 193 12 L 195 12 L 195 14 L 193 14 Z M 193 12 " clip-rule="nonzero"/></clipPath><clipPath id="id45"><path d="M 191.410156 12.949219 L 193.902344 10.207031 L 196.648438 12.699219 L 194.15625 15.441406 Z M 191.410156 12.949219 " clip-rule="nonzero"/></clipPath><clipPath id="id46"><path d="M 191.410156 12.949219 L 193.902344 10.207031 L 196.648438 12.699219 L 194.15625 15.441406 Z M 191.410156 12.949219 " clip-rule="nonzero"/></clipPath><clipPath id="id47"><path d="M 193 14 L 195 14 L 195 16 L 193 16 Z M 193 14 " clip-rule="nonzero"/></clipPath><clipPath id="id48"><path d="M 191.410156 12.949219 L 193.902344 10.207031 L 196.648438 12.699219 L 194.15625 15.441406 Z M 191.410156 12.949219 " clip-rule="nonzero"/></clipPath><clipPath id="id49"><path d="M 191.410156 12.949219 L 193.902344 10.207031 L 196.648438 12.699219 L 194.15625 15.441406 Z M 191.410156 12.949219 " clip-rule="nonzero"/></clipPath><clipPath id="id50"><path d="M 194 11 L 196 11 L 196 13 L 194 13 Z M 194 11 " clip-rule="nonzero"/></clipPath><clipPath id="id51"><path d="M 191.410156 12.949219 L 193.902344 10.207031 L 196.648438 12.699219 L 194.15625 15.441406 Z M 191.410156 12.949219 " clip-rule="nonzero"/></clipPath><clipPath id="id52"><path d="M 191.410156 12.949219 L 193.902344 10.207031 L 196.648438 12.699219 L 194.15625 15.441406 Z M 191.410156 12.949219 " clip-rule="nonzero"/></clipPath><clipPath id="id53"><path d="M 192 12 L 193 12 L 193 14 L 192 14 Z M 192 12 " clip-rule="nonzero"/></clipPath><clipPath id="id54"><path d="M 191.410156 12.949219 L 193.902344 10.207031 L 196.648438 12.699219 L 194.15625 15.441406 Z M 191.410156 12.949219 " clip-rule="nonzero"/></clipPath><clipPath id="id55"><path d="M 191.410156 12.949219 L 193.902344 10.207031 L 196.648438 12.699219 L 194.15625 15.441406 Z M 191.410156 12.949219 " clip-rule="nonzero"/></clipPath><clipPath id="id56"><path d="M 193 10 L 194 10 L 194 12 L 193 12 Z M 193 10 " clip-rule="nonzero"/></clipPath><clipPath id="id57"><path d="M 191.410156 12.949219 L 193.902344 10.207031 L 196.648438 12.699219 L 194.15625 15.441406 Z M 191.410156 12.949219 " clip-rule="nonzero"/></clipPath><clipPath id="id58"><path d="M 191.410156 12.949219 L 193.902344 10.207031 L 196.648438 12.699219 L 194.15625 15.441406 Z M 191.410156 12.949219 " clip-rule="nonzero"/></clipPath><clipPath id="id59"><path d="M 195 13 L 197 13 L 197 14 L 195 14 Z M 195 13 " clip-rule="nonzero"/></clipPath><clipPath id="id60"><path d="M 191.410156 12.949219 L 193.902344 10.207031 L 196.648438 12.699219 L 194.15625 15.441406 Z M 191.410156 12.949219 " clip-rule="nonzero"/></clipPath><clipPath id="id61"><path d="M 191.410156 12.949219 L 193.902344 10.207031 L 196.648438 12.699219 L 194.15625 15.441406 Z M 191.410156 12.949219 " clip-rule="nonzero"/></clipPath><clipPath id="id62"><path d="M 193 12 L 195 12 L 195 13 L 193 13 Z M 193 12 " clip-rule="nonzero"/></clipPath><clipPath id="id63"><path d="M 191.410156 12.949219 L 193.902344 10.207031 L 196.648438 12.699219 L 194.15625 15.441406 Z M 191.410156 12.949219 " clip-rule="nonzero"/></clipPath><clipPath id="id64"><path d="M 191.410156 12.949219 L 193.902344 10.207031 L 196.648438 12.699219 L 194.15625 15.441406 Z M 191.410156 12.949219 " clip-rule="nonzero"/></clipPath><clipPath id="id65"><path d="M 193 14 L 195 14 L 195 15 L 193 15 Z M 193 14 " clip-rule="nonzero"/></clipPath><clipPath id="id66"><path d="M 191.410156 12.949219 L 193.902344 10.207031 L 196.648438 12.699219 L 194.15625 15.441406 Z M 191.410156 12.949219 " clip-rule="nonzero"/></clipPath><clipPath id="id67"><path d="M 191.410156 12.949219 L 193.902344 10.207031 L 196.648438 12.699219 L 194.15625 15.441406 Z M 191.410156 12.949219 " clip-rule="nonzero"/></clipPath><clipPath id="id68"><path d="M 195 11 L 196 11 L 196 12 L 195 12 Z M 195 11 " clip-rule="nonzero"/></clipPath><clipPath id="id69"><path d="M 191.410156 12.949219 L 193.902344 10.207031 L 196.648438 12.699219 L 194.15625 15.441406 Z M 191.410156 12.949219 " clip-rule="nonzero"/></clipPath><clipPath id="id70"><path d="M 191.410156 12.949219 L 193.902344 10.207031 L 196.648438 12.699219 L 194.15625 15.441406 Z M 191.410156 12.949219 " clip-rule="nonzero"/></clipPath><clipPath id="id71"><path d="M 70.648438 4.949219 L 74.867188 4.949219 L 74.867188 8.65625 L 70.648438 8.65625 Z M 70.648438 4.949219 " clip-rule="nonzero"/></clipPath><clipPath id="id72"><path d="M 70 5 L 72 5 L 72 8.65625 L 70 8.65625 Z M 70 5 " clip-rule="nonzero"/></clipPath><clipPath id="id73"><path d="M 73.546875 5.625 L 74.867188 5.625 L 74.867188 7.878906 L 73.546875 7.878906 Z M 73.546875 5.625 " clip-rule="nonzero"/></clipPath><clipPath id="id74"><path d="M 74 7 L 74.867188 7 L 74.867188 8 L 74 8 Z M 74 7 " clip-rule="nonzero"/></clipPath><clipPath id="id75"><path d="M 72.171875 4.949219 L 73.675781 4.949219 L 73.675781 8.65625 L 72.171875 8.65625 Z M 72.171875 4.949219 " clip-rule="nonzero"/></clipPath><clipPath id="id76"><path d="M 69.675781 6 L 71 6 L 71 8 L 69.675781 8 Z M 69.675781 6 " clip-rule="nonzero"/></clipPath><clipPath id="id77"><path d="M 73 6 L 74.867188 6 L 74.867188 7 L 73 7 Z M 73 6 " clip-rule="nonzero"/></clipPath><clipPath id="id78"><path d="M 74 6 L 74.867188 6 L 74.867188 7 L 74 7 Z M 74 6 " clip-rule="nonzero"/></clipPath><clipPath id="id79"><path d="M 72.710938 9.125 L 78.132812 9.125 L 78.132812 13.574219 L 72.710938 13.574219 Z M 72.710938 9.125 " clip-rule="nonzero"/></clipPath><clipPath id="id80"><path d="M 76.4375 9.933594 L 78.132812 9.933594 L 78.132812 12.640625 L 76.4375 12.640625 Z M 76.4375 9.933594 " clip-rule="nonzero"/></clipPath><clipPath id="id81"><path d="M 77 11 L 78.132812 11 L 78.132812 13 L 77 13 Z M 77 11 " clip-rule="nonzero"/></clipPath><clipPath id="id82"><path d="M 74.664062 9.125 L 76.601562 9.125 L 76.601562 13.574219 L 74.664062 13.574219 Z M 74.664062 9.125 " clip-rule="nonzero"/></clipPath><clipPath id="id83"><path d="M 71.460938 10 L 73 10 L 73 13 L 71.460938 13 Z M 71.460938 10 " clip-rule="nonzero"/></clipPath><clipPath id="id84"><path d="M 175.320312 29.023438 L 180.746094 29.023438 L 180.746094 33.472656 L 175.320312 33.472656 Z M 175.320312 29.023438 " clip-rule="nonzero"/></clipPath><clipPath id="id85"><path d="M 179.050781 29.835938 L 180.746094 29.835938 L 180.746094 32.542969 L 179.050781 32.542969 Z M 179.050781 29.835938 " clip-rule="nonzero"/></clipPath><clipPath id="id86"><path d="M 179 31 L 180.746094 31 L 180.746094 32 L 179 32 Z M 179 31 " clip-rule="nonzero"/></clipPath><clipPath id="id87"><path d="M 177.277344 29.023438 L 179.214844 29.023438 L 179.214844 33.472656 L 177.277344 33.472656 Z M 177.277344 29.023438 " clip-rule="nonzero"/></clipPath><clipPath id="id88"><path d="M 174.070312 30 L 176 30 L 176 33 L 174.070312 33 Z M 174.070312 30 " clip-rule="nonzero"/></clipPath><clipPath id="id89"><path d="M 179 30 L 180.746094 30 L 180.746094 32 L 179 32 Z M 179 30 " clip-rule="nonzero"/></clipPath><clipPath id="id90"><path d="M 181.550781 27.058594 L 184.5625 27.058594 L 184.5625 30.023438 L 181.550781 30.023438 Z M 181.550781 27.058594 " clip-rule="nonzero"/></clipPath><clipPath id="id91"><path d="M 181 27.058594 L 183 27.058594 L 183 30 L 181 30 Z M 181 27.058594 " clip-rule="nonzero"/></clipPath><clipPath id="id92"><path d="M 183.621094 27.597656 L 184.5625 27.597656 L 184.5625 29.402344 L 183.621094 29.402344 Z M 183.621094 27.597656 " clip-rule="nonzero"/></clipPath><clipPath id="id93"><path d="M 183 28 L 184.5625 28 L 184.5625 29 L 183 29 Z M 183 28 " clip-rule="nonzero"/></clipPath><clipPath id="id94"><path d="M 182.636719 27.058594 L 183.710938 27.058594 L 183.710938 30.023438 L 182.636719 30.023438 Z M 182.636719 27.058594 " clip-rule="nonzero"/></clipPath><clipPath id="id95"><path d="M 180.855469 27.058594 L 182 27.058594 L 182 30 L 180.855469 30 Z M 180.855469 27.058594 " clip-rule="nonzero"/></clipPath><clipPath id="id96"><path d="M 183 28 L 184.5625 28 L 184.5625 29 L 183 29 Z M 183 28 " clip-rule="nonzero"/></clipPath><clipPath id="id97"><path d="M 184 28 L 184.5625 28 L 184.5625 29 L 184 29 Z M 184 28 " clip-rule="nonzero"/></clipPath></defs><g clip-path="url(#id1)"><path fill="#ffffff" d="M 1.480469 0 L 261.019531 0 L 261.019531 43.75 L 1.480469 43.75 Z M 1.480469 0 " fill-opacity="1" fill-rule="nonzero"/><path fill="#002e6b" d="M 1.480469 0 L 261.019531 0 L 261.019531 37.078125 L 1.480469 37.078125 Z M 1.480469 0 " fill-opacity="1" fill-rule="nonzero"/><path fill="#ffffff" d="M 1.480469 0 L 261.019531 0 L 261.019531 37.078125 L 1.480469 37.078125 Z M 1.480469 0 " fill-opacity="1" fill-rule="nonzero"/><path fill="#002e6b" d="M 1.480469 0 L 261.019531 0 L 261.019531 37.078125 L 1.480469 37.078125 Z M 1.480469 0 " fill-opacity="1" fill-rule="nonzero"/></g><g clip-path="url(#id2)"><path fill="#152855" d="M 191.878906 30.46875 L 69.800781 30.390625 L 69.800781 14.820312 L 69.992188 6.496094 L 130.660156 6.292969 L 191.675781 6.347656 L 191.878906 30.46875 " fill-opacity="1" fill-rule="nonzero"/></g><g clip-path="url(#id3)"><path fill="#152855" d="M 191.675781 6.347656 C 191.6875 6.480469 191.6875 6.589844 191.703125 6.695312 C 191.730469 7.15625 191.742188 7.675781 191.769531 8.175781 C 191.769531 8.898438 191.90625 23.128906 191.972656 23.847656 C 192.042969 24.941406 192 26.050781 192 27.144531 C 192 28.105469 192.015625 28.992188 192.027344 29.933594 C 192.027344 30.160156 192.027344 30.308594 192.027344 30.5625 C 191.785156 30.5625 191.566406 30.578125 191.011719 30.5625 C 184.765625 30.511719 178.421875 30.578125 172.175781 30.523438 C 168.425781 30.484375 164.773438 30.511719 161.027344 30.484375 C 159.296875 30.46875 157.566406 30.457031 155.835938 30.441406 C 154.78125 30.441406 153.820312 30.457031 152.761719 30.457031 C 150.070312 30.441406 142.671875 30.457031 139.980469 30.441406 C 138.058594 30.429688 99.621094 30.523438 97.695312 30.511719 C 97.214844 30.511719 96.640625 30.523438 96.160156 30.523438 C 95.007812 30.523438 93.949219 30.535156 92.796875 30.535156 C 89.914062 30.535156 87.125 30.523438 84.242188 30.511719 C 82.511719 30.496094 80.785156 30.484375 79.148438 30.46875 C 76.074219 30.457031 73 30.441406 70.171875 30.441406 C 70.0625 30.441406 69.964844 30.441406 69.855469 30.429688 C 69.761719 30.414062 69.707031 30.347656 69.734375 30.253906 C 69.828125 29.917969 69.789062 29.457031 69.777344 28.976562 C 69.761719 27.996094 69.722656 27.03125 69.734375 26.050781 C 69.707031 24.828125 69.652344 9.710938 69.734375 8.472656 C 69.75 8.230469 69.734375 7.972656 69.75 7.730469 C 69.761719 7.34375 69.789062 6.917969 69.800781 6.589844 C 69.800781 6.5625 69.816406 6.535156 69.828125 6.523438 C 70.0625 6.496094 70.597656 6.441406 72.132812 6.429688 C 74.730469 6.386719 77.324219 6.359375 80.015625 6.335938 C 81.839844 6.308594 83.667969 6.292969 85.394531 6.265625 C 87.125 6.242188 88.953125 6.214844 90.683594 6.214844 C 92.605469 6.199219 94.527344 6.226562 96.449219 6.214844 C 98.851562 6.214844 142.382812 6.1875 144.785156 6.171875 C 147.09375 6.160156 149.398438 6.144531 151.800781 6.144531 C 155.742188 6.132812 159.585938 6.121094 163.527344 6.121094 C 165.160156 6.121094 166.890625 6.144531 168.523438 6.144531 C 173.039062 6.160156 177.652344 6.171875 182.167969 6.199219 C 184.570312 6.214844 186.972656 6.253906 189.375 6.292969 C 189.953125 6.292969 190.53125 6.292969 191.011719 6.292969 C 191.46875 6.308594 191.566406 6.335938 191.675781 6.347656 M 191.785156 30.390625 C 191.796875 30.214844 191.8125 30.082031 191.8125 29.945312 C 191.796875 28.902344 191.785156 27.921875 191.785156 26.867188 C 191.785156 26.382812 191.8125 25.902344 191.796875 25.421875 C 191.796875 24.976562 191.785156 24.515625 191.769531 24.070312 C 191.714844 23.386719 191.59375 9.210938 191.59375 8.527344 C 191.566406 7.953125 191.539062 7.359375 191.511719 6.789062 C 191.496094 6.589844 191.484375 6.574219 190.722656 6.5625 C 190.433594 6.5625 190.242188 6.5625 189.953125 6.550781 C 187.550781 6.507812 185.050781 6.453125 182.648438 6.441406 C 176.789062 6.402344 170.828125 6.386719 164.96875 6.359375 C 164.101562 6.359375 163.140625 6.359375 162.277344 6.359375 C 160.835938 6.359375 159.394531 6.359375 158.046875 6.359375 C 154.972656 6.359375 151.898438 6.359375 148.917969 6.375 C 146.324219 6.386719 102.597656 6.429688 100.003906 6.429688 C 95.773438 6.429688 91.546875 6.402344 87.320312 6.46875 C 85.109375 6.507812 82.992188 6.507812 80.878906 6.523438 C 77.226562 6.5625 73.574219 6.601562 70.183594 6.65625 C 70.046875 6.65625 70.019531 6.683594 70.007812 6.859375 C 69.992188 7.195312 69.992188 7.527344 69.980469 7.859375 C 69.964844 8.414062 69.9375 8.953125 69.925781 9.507812 C 69.871094 10.097656 69.9375 24.570312 69.964844 25.164062 C 69.964844 25.792969 69.964844 26.441406 69.980469 27.070312 C 69.980469 27.53125 70.007812 27.996094 70.007812 28.457031 C 70.007812 28.957031 70.007812 29.457031 69.992188 29.945312 C 69.992188 29.988281 69.992188 30.011719 69.992188 30.054688 C 69.992188 30.160156 70.035156 30.203125 70.128906 30.203125 C 70.789062 30.203125 72.132812 30.214844 73.382812 30.214844 C 75.210938 30.214844 77.132812 30.1875 78.957031 30.214844 C 81.9375 30.253906 84.914062 30.28125 87.894531 30.269531 C 89.816406 30.253906 91.644531 30.28125 93.566406 30.28125 C 96.351562 30.28125 99.140625 30.269531 101.925781 30.28125 C 106.058594 30.296875 151.417969 30.1875 155.644531 30.214844 C 157.472656 30.226562 159.296875 30.242188 161.027344 30.242188 C 164.199219 30.269531 167.273438 30.226562 170.445312 30.269531 C 173.039062 30.296875 175.632812 30.296875 178.230469 30.320312 C 182.074219 30.363281 185.917969 30.390625 189.761719 30.402344 C 191.203125 30.402344 191.566406 30.390625 191.785156 30.390625 " fill-opacity="1" fill-rule="nonzero"/></g><g fill="#ffffff" fill-opacity="1"><g transform="translate(94.169208, 21.86612)"><g><path d="M 6.40625 -7.5625 C 6.644531 -7.4375 6.765625 -7.238281 6.765625 -6.96875 C 6.765625 -6.8125 6.707031 -6.660156 6.59375 -6.515625 C 6.46875 -6.347656 6.3125 -6.265625 6.125 -6.265625 C 6 -6.265625 5.867188 -6.300781 5.734375 -6.375 C 5.367188 -6.550781 4.96875 -6.640625 4.53125 -6.640625 C 4.007812 -6.640625 3.550781 -6.523438 3.15625 -6.296875 C 2.757812 -6.078125 2.453125 -5.765625 2.234375 -5.359375 C 2.023438 -4.953125 1.921875 -4.488281 1.921875 -3.96875 C 1.921875 -3.070312 2.160156 -2.394531 2.640625 -1.9375 C 3.128906 -1.476562 3.757812 -1.25 4.53125 -1.25 C 5 -1.25 5.398438 -1.335938 5.734375 -1.515625 C 5.867188 -1.566406 5.992188 -1.59375 6.109375 -1.59375 C 6.296875 -1.59375 6.460938 -1.507812 6.609375 -1.34375 C 6.710938 -1.207031 6.765625 -1.054688 6.765625 -0.890625 C 6.765625 -0.765625 6.734375 -0.648438 6.671875 -0.546875 C 6.617188 -0.453125 6.535156 -0.378906 6.421875 -0.328125 C 5.828125 -0.0351562 5.195312 0.109375 4.53125 0.109375 C 3.789062 0.109375 3.109375 -0.046875 2.484375 -0.359375 C 1.867188 -0.671875 1.375 -1.132812 1 -1.75 C 0.632812 -2.363281 0.453125 -3.101562 0.453125 -3.96875 C 0.453125 -4.738281 0.628906 -5.429688 0.984375 -6.046875 C 1.335938 -6.660156 1.820312 -7.140625 2.4375 -7.484375 C 3.0625 -7.828125 3.757812 -8 4.53125 -8 C 5.207031 -8 5.832031 -7.851562 6.40625 -7.5625 Z M 6.40625 -7.5625 "/></g></g></g><g fill="#ffffff" fill-opacity="1"><g transform="translate(101.284734, 21.86612)"><g><path d="M 5.65625 -6.1875 C 5.84375 -6.1875 6 -6.117188 6.125 -5.984375 C 6.257812 -5.859375 6.328125 -5.691406 6.328125 -5.484375 L 6.328125 -0.6875 C 6.328125 -0.488281 6.257812 -0.320312 6.125 -0.1875 C 6 -0.0625 5.84375 0 5.65625 0 C 5.457031 0 5.296875 -0.0625 5.171875 -0.1875 C 5.046875 -0.320312 4.976562 -0.488281 4.96875 -0.6875 C 4.78125 -0.46875 4.523438 -0.28125 4.203125 -0.125 C 3.878906 0.03125 3.539062 0.109375 3.1875 0.109375 C 2.664062 0.109375 2.191406 -0.0195312 1.765625 -0.28125 C 1.347656 -0.550781 1.015625 -0.925781 0.765625 -1.40625 C 0.515625 -1.882812 0.390625 -2.425781 0.390625 -3.03125 C 0.390625 -3.632812 0.507812 -4.175781 0.75 -4.65625 C 1 -5.132812 1.332031 -5.507812 1.75 -5.78125 C 2.164062 -6.050781 2.628906 -6.1875 3.140625 -6.1875 C 3.503906 -6.1875 3.84375 -6.117188 4.15625 -5.984375 C 4.476562 -5.847656 4.75 -5.679688 4.96875 -5.484375 C 4.96875 -5.679688 5.03125 -5.847656 5.15625 -5.984375 C 5.289062 -6.117188 5.457031 -6.1875 5.65625 -6.1875 Z M 3.359375 -1.140625 C 3.847656 -1.140625 4.25 -1.316406 4.5625 -1.671875 C 4.875 -2.035156 5.03125 -2.488281 5.03125 -3.03125 C 5.03125 -3.570312 4.875 -4.023438 4.5625 -4.390625 C 4.25 -4.753906 3.847656 -4.9375 3.359375 -4.9375 C 2.867188 -4.9375 2.46875 -4.753906 2.15625 -4.390625 C 1.851562 -4.023438 1.703125 -3.570312 1.703125 -3.03125 C 1.703125 -2.488281 1.851562 -2.035156 2.15625 -1.671875 C 2.46875 -1.316406 2.867188 -1.140625 3.359375 -1.140625 Z M 3.359375 -1.140625 "/></g></g></g><g fill="#ffffff" fill-opacity="1"><g transform="translate(108.354865, 21.86612)"><g><path d="M 3.875 -6.1875 C 4.394531 -6.1875 4.867188 -6.050781 5.296875 -5.78125 C 5.722656 -5.507812 6.054688 -5.132812 6.296875 -4.65625 C 6.546875 -4.1875 6.671875 -3.648438 6.671875 -3.046875 C 6.671875 -2.429688 6.546875 -1.882812 6.296875 -1.40625 C 6.054688 -0.925781 5.726562 -0.550781 5.3125 -0.28125 C 4.894531 -0.0195312 4.429688 0.109375 3.921875 0.109375 C 3.554688 0.109375 3.210938 0.0351562 2.890625 -0.109375 C 2.578125 -0.253906 2.3125 -0.429688 2.09375 -0.640625 L 2.09375 1.578125 C 2.09375 1.773438 2.03125 1.9375 1.90625 2.0625 C 1.78125 2.195312 1.617188 2.265625 1.421875 2.265625 C 1.222656 2.265625 1.054688 2.203125 0.921875 2.078125 C 0.796875 1.953125 0.734375 1.785156 0.734375 1.578125 L 0.734375 -5.375 C 0.734375 -5.570312 0.796875 -5.734375 0.921875 -5.859375 C 1.054688 -5.992188 1.222656 -6.0625 1.421875 -6.0625 C 1.617188 -6.0625 1.78125 -5.992188 1.90625 -5.859375 C 2.03125 -5.734375 2.09375 -5.570312 2.09375 -5.375 L 2.09375 -5.328125 C 2.28125 -5.554688 2.535156 -5.753906 2.859375 -5.921875 C 3.179688 -6.097656 3.519531 -6.1875 3.875 -6.1875 Z M 3.703125 -1.140625 C 4.191406 -1.140625 4.585938 -1.316406 4.890625 -1.671875 C 5.203125 -2.035156 5.359375 -2.492188 5.359375 -3.046875 C 5.359375 -3.585938 5.207031 -4.035156 4.90625 -4.390625 C 4.601562 -4.753906 4.203125 -4.9375 3.703125 -4.9375 C 3.210938 -4.9375 2.8125 -4.753906 2.5 -4.390625 C 2.195312 -4.035156 2.046875 -3.585938 2.046875 -3.046875 C 2.046875 -2.492188 2.195312 -2.035156 2.5 -1.671875 C 2.8125 -1.316406 3.210938 -1.140625 3.703125 -1.140625 Z M 3.703125 -1.140625 "/></g></g></g><g fill="#ffffff" fill-opacity="1"><g transform="translate(115.424996, 21.86612)"><g><path d="M 3.65625 -1.28125 C 3.769531 -1.28125 3.867188 -1.226562 3.953125 -1.125 C 4.035156 -1.019531 4.078125 -0.882812 4.078125 -0.71875 C 4.078125 -0.519531 3.96875 -0.347656 3.75 -0.203125 C 3.53125 -0.0664062 3.28125 0 3 0 C 2.53125 0 2.132812 -0.0976562 1.8125 -0.296875 C 1.488281 -0.492188 1.328125 -0.921875 1.328125 -1.578125 L 1.328125 -4.703125 L 0.8125 -4.703125 C 0.625 -4.703125 0.46875 -4.765625 0.34375 -4.890625 C 0.226562 -5.015625 0.171875 -5.164062 0.171875 -5.34375 C 0.171875 -5.519531 0.226562 -5.664062 0.34375 -5.78125 C 0.46875 -5.894531 0.625 -5.953125 0.8125 -5.953125 L 1.328125 -5.953125 L 1.328125 -6.6875 C 1.328125 -6.875 1.390625 -7.035156 1.515625 -7.171875 C 1.648438 -7.304688 1.816406 -7.375 2.015625 -7.375 C 2.203125 -7.375 2.359375 -7.304688 2.484375 -7.171875 C 2.617188 -7.035156 2.6875 -6.875 2.6875 -6.6875 L 2.6875 -5.953125 L 3.5 -5.953125 C 3.675781 -5.953125 3.820312 -5.890625 3.9375 -5.765625 C 4.0625 -5.648438 4.125 -5.5 4.125 -5.3125 C 4.125 -5.144531 4.0625 -5 3.9375 -4.875 C 3.820312 -4.757812 3.675781 -4.703125 3.5 -4.703125 L 2.6875 -4.703125 L 2.6875 -1.640625 C 2.6875 -1.472656 2.726562 -1.351562 2.8125 -1.28125 C 2.894531 -1.21875 3.007812 -1.1875 3.15625 -1.1875 C 3.21875 -1.1875 3.300781 -1.195312 3.40625 -1.21875 C 3.5 -1.257812 3.582031 -1.28125 3.65625 -1.28125 Z M 3.65625 -1.28125 "/></g></g></g><g fill="#ffffff" fill-opacity="1"><g transform="translate(120.066544, 21.86612)"><g><path d="M 5.65625 -6.1875 C 5.84375 -6.1875 6 -6.117188 6.125 -5.984375 C 6.257812 -5.859375 6.328125 -5.691406 6.328125 -5.484375 L 6.328125 -0.6875 C 6.328125 -0.488281 6.257812 -0.320312 6.125 -0.1875 C 6 -0.0625 5.84375 0 5.65625 0 C 5.457031 0 5.296875 -0.0625 5.171875 -0.1875 C 5.046875 -0.320312 4.976562 -0.488281 4.96875 -0.6875 C 4.78125 -0.46875 4.523438 -0.28125 4.203125 -0.125 C 3.878906 0.03125 3.539062 0.109375 3.1875 0.109375 C 2.664062 0.109375 2.191406 -0.0195312 1.765625 -0.28125 C 1.347656 -0.550781 1.015625 -0.925781 0.765625 -1.40625 C 0.515625 -1.882812 0.390625 -2.425781 0.390625 -3.03125 C 0.390625 -3.632812 0.507812 -4.175781 0.75 -4.65625 C 1 -5.132812 1.332031 -5.507812 1.75 -5.78125 C 2.164062 -6.050781 2.628906 -6.1875 3.140625 -6.1875 C 3.503906 -6.1875 3.84375 -6.117188 4.15625 -5.984375 C 4.476562 -5.847656 4.75 -5.679688 4.96875 -5.484375 C 4.96875 -5.679688 5.03125 -5.847656 5.15625 -5.984375 C 5.289062 -6.117188 5.457031 -6.1875 5.65625 -6.1875 Z M 3.359375 -1.140625 C 3.847656 -1.140625 4.25 -1.316406 4.5625 -1.671875 C 4.875 -2.035156 5.03125 -2.488281 5.03125 -3.03125 C 5.03125 -3.570312 4.875 -4.023438 4.5625 -4.390625 C 4.25 -4.753906 3.847656 -4.9375 3.359375 -4.9375 C 2.867188 -4.9375 2.46875 -4.753906 2.15625 -4.390625 C 1.851562 -4.023438 1.703125 -3.570312 1.703125 -3.03125 C 1.703125 -2.488281 1.851562 -2.035156 2.15625 -1.671875 C 2.46875 -1.316406 2.867188 -1.140625 3.359375 -1.140625 Z M 3.359375 -1.140625 "/></g></g></g><g fill="#ffffff" fill-opacity="1"><g transform="translate(127.136676, 21.86612)"><g><path d="M 2.015625 -0.6875 C 2.015625 -0.488281 1.953125 -0.320312 1.828125 -0.1875 C 1.703125 -0.0625 1.539062 0 1.34375 0 C 1.144531 0 0.976562 -0.0625 0.84375 -0.1875 C 0.71875 -0.320312 0.65625 -0.488281 0.65625 -0.6875 L 0.65625 -5.375 C 0.65625 -5.570312 0.71875 -5.734375 0.84375 -5.859375 C 0.976562 -5.992188 1.144531 -6.0625 1.34375 -6.0625 C 1.539062 -6.0625 1.703125 -5.992188 1.828125 -5.859375 C 1.953125 -5.734375 2.015625 -5.570312 2.015625 -5.375 Z M 1.328125 -6.8125 C 1.078125 -6.8125 0.894531 -6.851562 0.78125 -6.9375 C 0.675781 -7.019531 0.625 -7.164062 0.625 -7.375 L 0.625 -7.59375 C 0.625 -7.800781 0.679688 -7.945312 0.796875 -8.03125 C 0.910156 -8.113281 1.09375 -8.15625 1.34375 -8.15625 C 1.601562 -8.15625 1.785156 -8.113281 1.890625 -8.03125 C 2.003906 -7.945312 2.0625 -7.800781 2.0625 -7.59375 L 2.0625 -7.375 C 2.0625 -7.15625 2.003906 -7.003906 1.890625 -6.921875 C 1.785156 -6.847656 1.597656 -6.8125 1.328125 -6.8125 Z M 1.328125 -6.8125 "/></g></g></g><g fill="#ffffff" fill-opacity="1"><g transform="translate(129.814928, 21.86612)"><g><path d="M 3.984375 -6.1875 C 4.753906 -6.1875 5.285156 -5.957031 5.578125 -5.5 C 5.878906 -5.039062 6.03125 -4.40625 6.03125 -3.59375 L 6.03125 -0.6875 C 6.03125 -0.488281 5.960938 -0.320312 5.828125 -0.1875 C 5.703125 -0.0625 5.539062 0 5.34375 0 C 5.144531 0 4.976562 -0.0625 4.84375 -0.1875 C 4.71875 -0.320312 4.65625 -0.488281 4.65625 -0.6875 L 4.65625 -3.59375 C 4.65625 -4.007812 4.566406 -4.335938 4.390625 -4.578125 C 4.222656 -4.816406 3.925781 -4.9375 3.5 -4.9375 C 3.0625 -4.9375 2.71875 -4.804688 2.46875 -4.546875 C 2.21875 -4.296875 2.09375 -3.976562 2.09375 -3.59375 L 2.09375 -0.6875 C 2.09375 -0.488281 2.03125 -0.320312 1.90625 -0.1875 C 1.78125 -0.0625 1.617188 0 1.421875 0 C 1.222656 0 1.054688 -0.0625 0.921875 -0.1875 C 0.796875 -0.320312 0.734375 -0.488281 0.734375 -0.6875 L 0.734375 -5.375 C 0.734375 -5.570312 0.796875 -5.734375 0.921875 -5.859375 C 1.054688 -5.992188 1.222656 -6.0625 1.421875 -6.0625 C 1.617188 -6.0625 1.78125 -5.992188 1.90625 -5.859375 C 2.03125 -5.734375 2.09375 -5.570312 2.09375 -5.375 L 2.09375 -5.1875 C 2.300781 -5.457031 2.566406 -5.691406 2.890625 -5.890625 C 3.222656 -6.085938 3.585938 -6.1875 3.984375 -6.1875 Z M 3.984375 -6.1875 "/></g></g></g><g fill="#ffffff" fill-opacity="1"><g transform="translate(136.578651, 21.86612)"><g><path d="M 0.5625 -7.390625 C 0.59375 -7.753906 0.789062 -7.9375 1.15625 -7.9375 L 1.515625 -7.9375 C 1.679688 -7.9375 1.804688 -7.898438 1.890625 -7.828125 C 1.972656 -7.753906 2.015625 -7.65625 2.015625 -7.53125 C 2.015625 -7.457031 2 -7.378906 1.96875 -7.296875 L 1.203125 -4.921875 C 1.109375 -4.671875 0.945312 -4.546875 0.71875 -4.546875 C 0.59375 -4.546875 0.5 -4.582031 0.4375 -4.65625 C 0.382812 -4.738281 0.367188 -4.859375 0.390625 -5.015625 Z M 0.5625 -7.390625 "/></g></g></g><g fill="#ffffff" fill-opacity="1"><g transform="translate(138.984538, 21.86612)"><g><path d="M 0.390625 -0.9375 C 0.316406 -1.03125 0.28125 -1.144531 0.28125 -1.28125 C 0.28125 -1.476562 0.378906 -1.644531 0.578125 -1.78125 C 0.679688 -1.851562 0.789062 -1.890625 0.90625 -1.890625 C 1.0625 -1.890625 1.210938 -1.816406 1.359375 -1.671875 C 1.585938 -1.429688 1.820312 -1.253906 2.0625 -1.140625 C 2.3125 -1.023438 2.609375 -0.96875 2.953125 -0.96875 C 3.546875 -1 3.84375 -1.222656 3.84375 -1.640625 C 3.84375 -1.859375 3.742188 -2.023438 3.546875 -2.140625 C 3.347656 -2.253906 3.035156 -2.367188 2.609375 -2.484375 C 2.171875 -2.609375 1.8125 -2.726562 1.53125 -2.84375 C 1.257812 -2.96875 1.019531 -3.148438 0.8125 -3.390625 C 0.613281 -3.640625 0.515625 -3.972656 0.515625 -4.390625 C 0.515625 -4.753906 0.617188 -5.066406 0.828125 -5.328125 C 1.035156 -5.597656 1.304688 -5.804688 1.640625 -5.953125 C 1.984375 -6.109375 2.34375 -6.1875 2.71875 -6.1875 C 3.101562 -6.1875 3.488281 -6.113281 3.875 -5.96875 C 4.257812 -5.820312 4.5625 -5.609375 4.78125 -5.328125 C 4.882812 -5.210938 4.9375 -5.078125 4.9375 -4.921875 C 4.9375 -4.742188 4.863281 -4.597656 4.71875 -4.484375 C 4.613281 -4.410156 4.492188 -4.375 4.359375 -4.375 C 4.191406 -4.375 4.054688 -4.425781 3.953125 -4.53125 C 3.816406 -4.695312 3.640625 -4.828125 3.421875 -4.921875 C 3.203125 -5.023438 2.957031 -5.078125 2.6875 -5.078125 C 2.113281 -5.078125 1.828125 -4.867188 1.828125 -4.453125 C 1.828125 -4.285156 1.878906 -4.148438 1.984375 -4.046875 C 2.085938 -3.941406 2.21875 -3.859375 2.375 -3.796875 C 2.539062 -3.742188 2.773438 -3.675781 3.078125 -3.59375 C 3.484375 -3.476562 3.820312 -3.359375 4.09375 -3.234375 C 4.363281 -3.117188 4.59375 -2.9375 4.78125 -2.6875 C 4.976562 -2.4375 5.078125 -2.109375 5.078125 -1.703125 C 5.078125 -1.328125 4.960938 -1 4.734375 -0.71875 C 4.515625 -0.445312 4.234375 -0.238281 3.890625 -0.09375 C 3.546875 0.0390625 3.191406 0.109375 2.828125 0.109375 C 2.335938 0.109375 1.875 0.0234375 1.4375 -0.140625 C 1.007812 -0.304688 0.660156 -0.570312 0.390625 -0.9375 Z M 0.390625 -0.9375 "/></g></g></g><g fill="#ffffff" fill-opacity="1"><g transform="translate(144.454525, 21.86612)"><g/></g></g><g fill="#ffffff" fill-opacity="1"><g transform="translate(147.632113, 21.86612)"><g><path d="M 5.234375 -1.328125 C 5.429688 -1.328125 5.59375 -1.265625 5.71875 -1.140625 C 5.851562 -1.015625 5.921875 -0.851562 5.921875 -0.65625 C 5.921875 -0.46875 5.851562 -0.3125 5.71875 -0.1875 C 5.59375 -0.0625 5.429688 0 5.234375 0 L 1.546875 0 C 1.347656 0 1.179688 -0.0625 1.046875 -0.1875 C 0.910156 -0.320312 0.84375 -0.488281 0.84375 -0.6875 L 0.84375 -7.25 C 0.84375 -7.445312 0.910156 -7.609375 1.046875 -7.734375 C 1.191406 -7.867188 1.367188 -7.9375 1.578125 -7.9375 C 1.765625 -7.9375 1.925781 -7.867188 2.0625 -7.734375 C 2.195312 -7.609375 2.265625 -7.445312 2.265625 -7.25 L 2.265625 -1.328125 Z M 5.234375 -1.328125 "/></g></g></g><g fill="#ffffff" fill-opacity="1"><g transform="translate(154.009983, 21.86612)"><g><path d="M 6.5625 -3.03125 C 6.5625 -2.425781 6.425781 -1.882812 6.15625 -1.40625 C 5.882812 -0.925781 5.507812 -0.550781 5.03125 -0.28125 C 4.5625 -0.0195312 4.046875 0.109375 3.484375 0.109375 C 2.910156 0.109375 2.390625 -0.0195312 1.921875 -0.28125 C 1.453125 -0.550781 1.078125 -0.925781 0.796875 -1.40625 C 0.523438 -1.882812 0.390625 -2.425781 0.390625 -3.03125 C 0.390625 -3.632812 0.523438 -4.175781 0.796875 -4.65625 C 1.078125 -5.132812 1.453125 -5.507812 1.921875 -5.78125 C 2.390625 -6.050781 2.910156 -6.1875 3.484375 -6.1875 C 4.046875 -6.1875 4.5625 -6.050781 5.03125 -5.78125 C 5.507812 -5.507812 5.882812 -5.132812 6.15625 -4.65625 C 6.425781 -4.175781 6.5625 -3.632812 6.5625 -3.03125 Z M 5.203125 -3.03125 C 5.203125 -3.394531 5.125 -3.722656 4.96875 -4.015625 C 4.8125 -4.304688 4.601562 -4.53125 4.34375 -4.6875 C 4.082031 -4.851562 3.796875 -4.9375 3.484375 -4.9375 C 3.160156 -4.9375 2.867188 -4.851562 2.609375 -4.6875 C 2.347656 -4.53125 2.140625 -4.304688 1.984375 -4.015625 C 1.835938 -3.722656 1.765625 -3.394531 1.765625 -3.03125 C 1.765625 -2.65625 1.835938 -2.320312 1.984375 -2.03125 C 2.140625 -1.75 2.347656 -1.53125 2.609375 -1.375 C 2.867188 -1.21875 3.160156 -1.140625 3.484375 -1.140625 C 3.796875 -1.140625 4.082031 -1.21875 4.34375 -1.375 C 4.601562 -1.53125 4.8125 -1.75 4.96875 -2.03125 C 5.125 -2.320312 5.203125 -2.65625 5.203125 -3.03125 Z M 5.203125 -3.03125 "/></g></g></g><g fill="#ffffff" fill-opacity="1"><g transform="translate(160.977979, 21.86612)"><g><path d="M 5.765625 -6.1875 C 5.960938 -6.1875 6.125 -6.117188 6.25 -5.984375 C 6.375 -5.859375 6.4375 -5.691406 6.4375 -5.484375 L 6.4375 -0.4375 C 6.4375 0.476562 6.148438 1.15625 5.578125 1.59375 C 5.015625 2.039062 4.296875 2.265625 3.421875 2.265625 C 3.191406 2.265625 2.878906 2.226562 2.484375 2.15625 C 2.085938 2.082031 1.804688 2.003906 1.640625 1.921875 C 1.265625 1.765625 1.078125 1.546875 1.078125 1.265625 C 1.078125 1.210938 1.085938 1.15625 1.109375 1.09375 C 1.160156 0.925781 1.238281 0.796875 1.34375 0.703125 C 1.457031 0.617188 1.578125 0.578125 1.703125 0.578125 C 1.773438 0.578125 1.847656 0.585938 1.921875 0.609375 C 1.953125 0.617188 2.140625 0.6875 2.484375 0.8125 C 2.828125 0.945312 3.140625 1.015625 3.421875 1.015625 C 3.972656 1.015625 4.382812 0.90625 4.65625 0.6875 C 4.9375 0.46875 5.078125 0.148438 5.078125 -0.265625 L 5.078125 -0.8125 C 4.910156 -0.570312 4.660156 -0.359375 4.328125 -0.171875 C 3.992188 0.015625 3.632812 0.109375 3.25 0.109375 C 2.71875 0.109375 2.234375 -0.0195312 1.796875 -0.28125 C 1.359375 -0.550781 1.015625 -0.925781 0.765625 -1.40625 C 0.515625 -1.882812 0.390625 -2.425781 0.390625 -3.03125 C 0.390625 -3.632812 0.515625 -4.175781 0.765625 -4.65625 C 1.015625 -5.132812 1.351562 -5.507812 1.78125 -5.78125 C 2.207031 -6.050781 2.679688 -6.1875 3.203125 -6.1875 C 3.585938 -6.1875 3.945312 -6.101562 4.28125 -5.9375 C 4.613281 -5.78125 4.878906 -5.585938 5.078125 -5.359375 L 5.078125 -5.484375 C 5.078125 -5.679688 5.140625 -5.847656 5.265625 -5.984375 C 5.398438 -6.117188 5.566406 -6.1875 5.765625 -6.1875 Z M 3.421875 -1.140625 C 3.921875 -1.140625 4.332031 -1.316406 4.65625 -1.671875 C 4.976562 -2.035156 5.140625 -2.488281 5.140625 -3.03125 C 5.140625 -3.570312 4.976562 -4.023438 4.65625 -4.390625 C 4.332031 -4.753906 3.921875 -4.9375 3.421875 -4.9375 C 2.910156 -4.9375 2.492188 -4.753906 2.171875 -4.390625 C 1.859375 -4.023438 1.703125 -3.570312 1.703125 -3.03125 C 1.703125 -2.488281 1.859375 -2.035156 2.171875 -1.671875 C 2.492188 -1.316406 2.910156 -1.140625 3.421875 -1.140625 Z M 3.421875 -1.140625 "/></g></g></g><g clip-path="url(#id4)"><path fill="#5271ff" d="M 56.1875 29.84375 C 56.203125 29.773438 56.226562 29.726562 56.261719 29.679688 C 56.519531 29.210938 56.949219 28.90625 57.5 28.851562 C 57.765625 28.828125 58.023438 28.859375 58.289062 28.890625 C 58.453125 28.910156 58.671875 28.996094 58.832031 28.957031 C 59.222656 28.867188 59.132812 28.648438 58.996094 28.339844 C 58.535156 27.265625 57.835938 25.941406 58.785156 24.886719 C 59.488281 24.109375 60.527344 24.425781 60.941406 25.300781 C 61.410156 26.265625 61.1875 27.464844 61.246094 28.5 C 61.277344 29.039062 61.34375 29.621094 61.625 30.097656 C 61.890625 30.550781 63.382812 31.464844 63.335938 30.390625 C 63.308594 29.871094 62.894531 29.457031 62.605469 29.042969 C 62.25 28.535156 61.871094 27.992188 61.738281 27.371094 C 61.613281 26.769531 61.78125 26.199219 62.015625 25.648438 C 62.136719 25.363281 62.300781 25.074219 62.363281 24.769531 C 62.453125 24.292969 62.199219 23.839844 61.984375 23.429688 C 61.347656 22.210938 60.429688 20.867188 60.921875 19.429688 C 61.296875 18.332031 62.425781 18.390625 62.90625 19.371094 C 63.074219 19.710938 63.144531 20.09375 63.1875 20.46875 C 63.195312 19.976562 63.214844 19.480469 63.25 18.988281 C 63.3125 18.023438 63.34375 15.8125 64.625 15.546875 C 65.339844 15.402344 65.882812 16.054688 66.136719 16.621094 C 66.515625 17.457031 66.507812 18.496094 66.433594 19.382812 C 66.292969 21.140625 65.515625 22.75 65.023438 24.429688 C 65.023438 24.4375 65.023438 24.4375 65.019531 24.441406 C 64.828125 25.289062 64.671875 26.3125 65.007812 27.136719 C 65.089844 27.339844 65.214844 27.554688 65.40625 27.671875 C 65.425781 27.6875 65.492188 27.726562 65.550781 27.75 C 65.550781 27.714844 65.601562 27.640625 65.589844 27.574219 C 65.535156 26.960938 65.472656 26.363281 65.375 25.75 C 65.238281 24.859375 65.511719 23.09375 66.835938 23.214844 C 68.234375 23.34375 67.992188 25.488281 67.828125 26.367188 C 67.65625 27.273438 67.382812 28.171875 67.621094 29.09375 C 67.710938 29.4375 67.871094 30.175781 68.378906 29.941406 C 68.886719 29.699219 68.988281 28.871094 68.953125 28.398438 C 68.894531 27.734375 68.515625 27.171875 68.59375 26.464844 C 68.707031 25.5 69.332031 24.714844 69.363281 23.71875 C 69.289062 22.804688 68.867188 21.820312 68.382812 21.035156 C 68.382812 21.027344 68.378906 21.027344 68.378906 21.023438 C 68.023438 20.363281 67.710938 19.6875 67.433594 18.988281 C 67.066406 18.082031 66.734375 17.09375 67.265625 16.171875 C 67.6875 15.445312 68.53125 15.140625 69.277344 15.601562 C 70.039062 16.074219 70.296875 16.980469 70.460938 17.789062 C 70.609375 18.527344 70.652344 19.292969 70.886719 20.015625 C 70.957031 20.226562 71.074219 20.417969 71.164062 20.617188 C 71.167969 20.597656 71.179688 20.582031 71.179688 20.578125 C 71.296875 20.109375 71.332031 19.621094 71.46875 19.152344 C 71.675781 18.449219 72.160156 17.390625 73.023438 17.324219 C 73.820312 17.257812 74.34375 18.09375 74.457031 18.753906 C 74.84375 21.003906 73.082031 22.878906 71.984375 24.648438 C 71.765625 25.03125 71.492188 25.476562 71.488281 25.929688 C 71.488281 26.042969 71.535156 26.167969 71.488281 26.171875 C 71.738281 26.160156 72.070312 25.554688 72.175781 25.386719 C 72.683594 24.601562 72.949219 23.660156 73.535156 22.925781 C 73.957031 22.402344 74.71875 22 75.386719 22.371094 C 76.066406 22.753906 75.976562 23.636719 75.773438 24.257812 C 75.480469 25.148438 74.984375 25.941406 74.34375 26.628906 C 73.835938 27.160156 73.230469 27.597656 72.722656 28.132812 C 72.652344 28.207031 72.59375 28.285156 72.527344 28.363281 C 72.578125 28.328125 72.632812 28.300781 72.675781 28.265625 C 73.039062 28.011719 73.382812 27.691406 73.839844 27.621094 C 74.597656 27.503906 75.230469 28.152344 75.023438 28.886719 C 74.765625 29.828125 73.867188 30.449219 72.988281 30.785156 C 72.039062 31.140625 71.113281 31.074219 70.148438 31.308594 C 69.804688 31.410156 69.46875 31.523438 69.203125 31.773438 C 68.980469 31.980469 68.621094 32.425781 68.710938 32.75 C 68.90625 33.4375 70.300781 32.363281 70.597656 32.1875 C 71.539062 31.609375 73.164062 30.773438 73.859375 32.15625 C 74.496094 33.425781 73.183594 34.515625 72.011719 34.746094 C 71.398438 34.863281 70.777344 34.8125 70.160156 34.886719 C 70.035156 34.902344 69.894531 34.914062 69.777344 34.960938 C 69.75 34.976562 69.648438 35.003906 69.636719 35.039062 C 69.632812 35.054688 69.628906 35.058594 69.628906 35.070312 C 69.636719 35.050781 69.664062 35.03125 69.695312 35.058594 C 70.035156 35.398438 70.761719 35.132812 71.132812 35.019531 C 71.71875 34.84375 72.390625 34.683594 72.921875 35.097656 C 73.308594 35.402344 73.394531 35.953125 73.132812 36.363281 C 72.515625 37.332031 70.953125 37.386719 69.949219 37.28125 C 69.679688 37.25 69.386719 37.226562 69.097656 37.195312 C 69.097656 37.195312 64.980469 37.300781 62.878906 36.058594 C 60.777344 34.820312 60.828125 33.25 60.515625 32.433594 L 60.515625 32.425781 C 60.433594 32.246094 60.359375 32.058594 60.289062 31.878906 C 60.175781 31.574219 60.183594 31.324219 59.863281 31.195312 C 59.386719 31.003906 58.941406 31.253906 58.464844 31.304688 C 58.097656 31.34375 57.707031 31.34375 57.351562 31.242188 C 56.667969 31.039062 56.046875 30.589844 56.1875 29.84375 Z M 56.1875 29.84375 " fill-opacity="1" fill-rule="nonzero"/></g><g clip-path="url(#id5)"><path fill="#ffde59" d="M 72.167969 39.058594 C 71.914062 36.683594 70.195312 36.128906 67.425781 35.546875 C 62.65625 34.542969 66.179688 30.167969 68.195312 32.988281 C 68.46875 33.371094 68.867188 34.414062 69.476562 34.148438 C 70 33.984375 69.871094 33.382812 69.570312 32.800781 C 68.101562 29.964844 71.960938 29.652344 71.15625 32.308594 C 70.859375 33.289062 71.25 34.152344 71.382812 34.460938 C 71.867188 35.589844 72.898438 35.289062 73.203125 33.542969 C 73.636719 31.070312 72.085938 29.96875 71.238281 28.949219 C 70.273438 27.789062 68.730469 24.328125 71.050781 23.636719 C 72.976562 23.066406 73.265625 25.832031 73.335938 26.957031 C 73.429688 28.539062 73.441406 29.488281 73.988281 29.503906 C 74.503906 29.519531 74.476562 28.550781 74.640625 27.761719 C 75.195312 25.078125 78.601562 27.019531 76.761719 28.847656 C 75.953125 29.652344 74.710938 31.128906 74.632812 33.730469 C 74.570312 35.777344 76.492188 35.964844 76.382812 34.167969 C 76.351562 33.679688 76.226562 33.273438 76.214844 32.914062 C 76.132812 30.910156 78.882812 31.097656 78.042969 33.308594 C 77.78125 34 77.210938 34.703125 77.441406 35.132812 C 77.664062 35.539062 78.1875 35.21875 78.757812 34.898438 C 81.816406 33.164062 82.589844 38.699219 78.734375 37.613281 C 78.058594 37.421875 77.109375 37.113281 76.234375 36.964844 C 75.597656 36.859375 74.449219 37.183594 74.273438 38.953125 C 74.023438 41.460938 72.558594 42.746094 72.167969 39.058594 " fill-opacity="1" fill-rule="nonzero"/></g><g clip-path="url(#id6)"><path fill="#a49523" d="M 65.789062 33.050781 C 65.71875 32.804688 65.863281 32.546875 66.109375 32.476562 C 66.359375 32.40625 66.613281 32.550781 66.683594 32.800781 C 66.753906 33.046875 66.609375 33.304688 66.359375 33.375 C 66.113281 33.445312 65.855469 33.300781 65.789062 33.050781 " fill-opacity="1" fill-rule="nonzero"/></g><g clip-path="url(#id7)"><path fill="#a49523" d="M 65.691406 34.085938 C 65.640625 33.9375 65.71875 33.777344 65.867188 33.726562 C 66.011719 33.671875 66.171875 33.753906 66.226562 33.898438 C 66.277344 34.046875 66.199219 34.207031 66.050781 34.261719 C 65.902344 34.3125 65.742188 34.234375 65.691406 34.085938 " fill-opacity="1" fill-rule="nonzero"/></g><path fill="#a49523" d="M 67.023438 32.96875 C 66.972656 32.820312 67.050781 32.660156 67.195312 32.609375 C 67.34375 32.558594 67.503906 32.636719 67.554688 32.785156 C 67.605469 32.933594 67.527344 33.09375 67.382812 33.144531 C 67.234375 33.195312 67.074219 33.117188 67.023438 32.96875 " fill-opacity="1" fill-rule="nonzero"/><path fill="#a49523" d="M 66.609375 34.6875 C 66.570312 34.578125 66.628906 34.453125 66.742188 34.414062 C 66.851562 34.378906 66.976562 34.4375 67.011719 34.546875 C 67.050781 34.660156 66.992188 34.78125 66.882812 34.820312 C 66.769531 34.859375 66.648438 34.800781 66.609375 34.6875 " fill-opacity="1" fill-rule="nonzero"/><path fill="#a49523" d="M 66.734375 33.8125 C 66.695312 33.699219 66.753906 33.578125 66.867188 33.539062 C 66.976562 33.5 67.101562 33.558594 67.136719 33.671875 C 67.175781 33.78125 67.117188 33.90625 67.007812 33.945312 C 66.894531 33.980469 66.773438 33.921875 66.734375 33.8125 " fill-opacity="1" fill-rule="nonzero"/><path fill="#a49523" d="M 70.730469 24.601562 C 70.664062 24.355469 70.808594 24.097656 71.054688 24.027344 C 71.300781 23.960938 71.558594 24.105469 71.628906 24.351562 C 71.695312 24.601562 71.550781 24.855469 71.304688 24.925781 C 71.058594 24.996094 70.800781 24.851562 70.730469 24.601562 " fill-opacity="1" fill-rule="nonzero"/><path fill="#a49523" d="M 70.164062 25.675781 C 70.113281 25.527344 70.191406 25.367188 70.339844 25.3125 C 70.488281 25.261719 70.648438 25.339844 70.699219 25.488281 C 70.75 25.636719 70.671875 25.796875 70.523438 25.847656 C 70.378906 25.902344 70.214844 25.820312 70.164062 25.675781 " fill-opacity="1" fill-rule="nonzero"/><path fill="#a49523" d="M 71.378906 25.707031 C 71.328125 25.558594 71.40625 25.398438 71.554688 25.347656 C 71.699219 25.296875 71.859375 25.375 71.910156 25.523438 C 71.960938 25.667969 71.882812 25.832031 71.738281 25.882812 C 71.589844 25.933594 71.429688 25.855469 71.378906 25.707031 " fill-opacity="1" fill-rule="nonzero"/><path fill="#a49523" d="M 72.003906 24.851562 C 71.953125 24.703125 72.03125 24.539062 72.179688 24.488281 C 72.324219 24.4375 72.484375 24.515625 72.535156 24.664062 C 72.585938 24.8125 72.507812 24.972656 72.363281 25.023438 C 72.214844 25.074219 72.054688 24.996094 72.003906 24.851562 " fill-opacity="1" fill-rule="nonzero"/><path fill="#a49523" d="M 71.953125 26.683594 C 71.917969 26.570312 71.976562 26.449219 72.085938 26.410156 C 72.199219 26.371094 72.320312 26.433594 72.359375 26.542969 C 72.394531 26.65625 72.335938 26.777344 72.226562 26.816406 C 72.113281 26.855469 71.992188 26.796875 71.953125 26.683594 " fill-opacity="1" fill-rule="nonzero"/><path fill="#a49523" d="M 72.386719 27.269531 C 72.347656 27.160156 72.40625 27.035156 72.515625 27 C 72.628906 26.960938 72.75 27.019531 72.789062 27.128906 C 72.828125 27.242188 72.769531 27.363281 72.65625 27.402344 C 72.546875 27.441406 72.425781 27.382812 72.386719 27.269531 " fill-opacity="1" fill-rule="nonzero"/><path fill="#a49523" d="M 72.386719 25.960938 C 72.347656 25.847656 72.40625 25.726562 72.515625 25.6875 C 72.628906 25.648438 72.75 25.710938 72.789062 25.820312 C 72.828125 25.933594 72.769531 26.054688 72.65625 26.09375 C 72.546875 26.132812 72.425781 26.074219 72.386719 25.960938 " fill-opacity="1" fill-rule="nonzero"/><path fill="#a49523" d="M 70.976562 26.449219 C 70.9375 26.335938 71 26.214844 71.109375 26.175781 C 71.222656 26.136719 71.34375 26.195312 71.382812 26.308594 C 71.417969 26.421875 71.359375 26.542969 71.25 26.582031 C 71.136719 26.621094 71.015625 26.558594 70.976562 26.449219 " fill-opacity="1" fill-rule="nonzero"/><path fill="#a49523" d="M 75.820312 27.320312 C 75.75 27.070312 75.894531 26.816406 76.140625 26.746094 C 76.390625 26.675781 76.644531 26.820312 76.714844 27.070312 C 76.785156 27.316406 76.640625 27.574219 76.394531 27.644531 C 76.144531 27.710938 75.890625 27.566406 75.820312 27.320312 " fill-opacity="1" fill-rule="nonzero"/><path fill="#a49523" d="M 74.992188 27.632812 C 74.941406 27.484375 75.019531 27.320312 75.164062 27.269531 C 75.3125 27.21875 75.472656 27.296875 75.523438 27.445312 C 75.574219 27.59375 75.496094 27.753906 75.351562 27.804688 C 75.203125 27.855469 75.042969 27.777344 74.992188 27.632812 " fill-opacity="1" fill-rule="nonzero"/><path fill="#a49523" d="M 76.191406 28.3125 C 76.136719 28.164062 76.214844 28.003906 76.363281 27.953125 C 76.511719 27.902344 76.671875 27.980469 76.722656 28.128906 C 76.773438 28.277344 76.695312 28.4375 76.546875 28.488281 C 76.402344 28.539062 76.242188 28.460938 76.191406 28.3125 " fill-opacity="1" fill-rule="nonzero"/><path fill="#a49523" d="M 75.601562 29.183594 C 75.5625 29.070312 75.625 28.949219 75.734375 28.910156 C 75.847656 28.871094 75.96875 28.929688 76.007812 29.042969 C 76.042969 29.15625 75.984375 29.277344 75.875 29.316406 C 75.761719 29.351562 75.640625 29.292969 75.601562 29.183594 " fill-opacity="1" fill-rule="nonzero"/><path fill="#a49523" d="M 75.457031 28.347656 C 75.421875 28.238281 75.480469 28.117188 75.589844 28.078125 C 75.703125 28.039062 75.824219 28.097656 75.863281 28.210938 C 75.898438 28.320312 75.839844 28.441406 75.730469 28.480469 C 75.617188 28.519531 75.496094 28.460938 75.457031 28.347656 " fill-opacity="1" fill-rule="nonzero"/><path fill="#a49523" d="M 69.484375 31.828125 C 69.433594 31.679688 69.511719 31.515625 69.660156 31.464844 C 69.808594 31.414062 69.96875 31.492188 70.019531 31.640625 C 70.070312 31.789062 69.992188 31.949219 69.84375 32 C 69.695312 32.050781 69.535156 31.972656 69.484375 31.828125 " fill-opacity="1" fill-rule="nonzero"/><path fill="#a49523" d="M 70.132812 31.164062 C 70.082031 31.015625 70.160156 30.855469 70.308594 30.804688 C 70.453125 30.753906 70.613281 30.832031 70.667969 30.980469 C 70.71875 31.128906 70.640625 31.289062 70.492188 31.339844 C 70.34375 31.390625 70.183594 31.3125 70.132812 31.164062 " fill-opacity="1" fill-rule="nonzero"/><path fill="#a49523" d="M 70.449219 32.054688 C 70.410156 31.941406 70.472656 31.820312 70.582031 31.78125 C 70.695312 31.742188 70.816406 31.804688 70.855469 31.914062 C 70.890625 32.027344 70.832031 32.148438 70.722656 32.1875 C 70.609375 32.226562 70.488281 32.167969 70.449219 32.054688 " fill-opacity="1" fill-rule="nonzero"/><path fill="#a49523" d="M 77.144531 32.144531 C 77.09375 31.996094 77.171875 31.835938 77.320312 31.785156 C 77.46875 31.734375 77.628906 31.8125 77.679688 31.957031 C 77.730469 32.105469 77.652344 32.265625 77.503906 32.320312 C 77.359375 32.371094 77.195312 32.292969 77.144531 32.144531 " fill-opacity="1" fill-rule="nonzero"/><path fill="#a49523" d="M 77.363281 32.957031 C 77.324219 32.847656 77.382812 32.726562 77.492188 32.6875 C 77.605469 32.648438 77.726562 32.707031 77.765625 32.820312 C 77.804688 32.929688 77.746094 33.050781 77.632812 33.089844 C 77.523438 33.128906 77.398438 33.070312 77.363281 32.957031 " fill-opacity="1" fill-rule="nonzero"/><path fill="#a49523" d="M 76.550781 32.554688 C 76.511719 32.445312 76.570312 32.320312 76.683594 32.285156 C 76.792969 32.246094 76.914062 32.304688 76.953125 32.414062 C 76.992188 32.527344 76.933594 32.648438 76.820312 32.6875 C 76.710938 32.726562 76.589844 32.667969 76.550781 32.554688 " fill-opacity="1" fill-rule="nonzero"/><g clip-path="url(#id8)"><path fill="#a49523" d="M 80.09375 36.433594 C 80.023438 36.1875 80.167969 35.929688 80.417969 35.859375 C 80.664062 35.789062 80.921875 35.933594 80.988281 36.183594 C 81.058594 36.429688 80.914062 36.6875 80.667969 36.757812 C 80.417969 36.828125 80.164062 36.683594 80.09375 36.433594 " fill-opacity="1" fill-rule="nonzero"/></g><g clip-path="url(#id9)"><path fill="#a49523" d="M 79.582031 37.203125 C 79.53125 37.054688 79.609375 36.894531 79.757812 36.84375 C 79.90625 36.792969 80.066406 36.871094 80.117188 37.019531 C 80.167969 37.164062 80.089844 37.328125 79.941406 37.378906 C 79.796875 37.429688 79.636719 37.351562 79.582031 37.203125 " fill-opacity="1" fill-rule="nonzero"/></g><path fill="#a49523" d="M 79.875 35.285156 C 79.824219 35.136719 79.902344 34.976562 80.046875 34.925781 C 80.195312 34.875 80.355469 34.953125 80.40625 35.101562 C 80.457031 35.25 80.378906 35.410156 80.234375 35.460938 C 80.085938 35.511719 79.925781 35.433594 79.875 35.285156 " fill-opacity="1" fill-rule="nonzero"/><g clip-path="url(#id10)"><path fill="#a49523" d="M 78.480469 36.964844 C 78.445312 36.855469 78.503906 36.734375 78.613281 36.695312 C 78.726562 36.65625 78.847656 36.714844 78.886719 36.828125 C 78.925781 36.9375 78.863281 37.058594 78.753906 37.097656 C 78.640625 37.136719 78.519531 37.078125 78.480469 36.964844 " fill-opacity="1" fill-rule="nonzero"/></g><path fill="#a49523" d="M 79.035156 35.328125 C 78.996094 35.214844 79.054688 35.09375 79.167969 35.054688 C 79.277344 35.015625 79.398438 35.074219 79.4375 35.1875 C 79.476562 35.296875 79.417969 35.421875 79.304688 35.457031 C 79.195312 35.496094 79.074219 35.4375 79.035156 35.328125 " fill-opacity="1" fill-rule="nonzero"/><path fill="#a49523" d="M 79.3125 36.226562 C 79.273438 36.117188 79.332031 35.992188 79.441406 35.953125 C 79.554688 35.917969 79.675781 35.976562 79.714844 36.085938 C 79.753906 36.199219 79.691406 36.320312 79.582031 36.359375 C 79.46875 36.398438 79.347656 36.339844 79.3125 36.226562 " fill-opacity="1" fill-rule="nonzero"/><g clip-path="url(#id11)"><g clip-path="url(#id12)"><g clip-path="url(#id13)"><path fill="#ffffff" d="M 66.898438 10.96875 C 67.175781 10.664062 67.644531 10.636719 67.945312 10.910156 C 68.246094 11.183594 68.265625 11.652344 67.988281 11.957031 C 67.714844 12.261719 67.246094 12.285156 66.945312 12.011719 C 66.644531 11.738281 66.625 11.269531 66.898438 10.96875 " fill-opacity="1" fill-rule="nonzero"/></g></g></g><g clip-path="url(#id14)"><g clip-path="url(#id15)"><g clip-path="url(#id16)"><path fill="#ffffff" d="M 67.191406 13.324219 C 67.382812 13.113281 67.703125 13.097656 67.910156 13.285156 C 68.117188 13.472656 68.132812 13.792969 67.941406 14.003906 C 67.753906 14.214844 67.429688 14.230469 67.222656 14.042969 C 67.015625 13.855469 67.003906 13.53125 67.191406 13.324219 " fill-opacity="1" fill-rule="nonzero"/></g></g></g><g clip-path="url(#id17)"><g clip-path="url(#id18)"><g clip-path="url(#id19)"><path fill="#ffffff" d="M 68.707031 10.070312 C 68.894531 9.863281 69.21875 9.84375 69.425781 10.03125 C 69.632812 10.222656 69.648438 10.542969 69.457031 10.753906 C 69.265625 10.960938 68.945312 10.980469 68.738281 10.792969 C 68.53125 10.601562 68.515625 10.28125 68.707031 10.070312 " fill-opacity="1" fill-rule="nonzero"/></g></g></g><g clip-path="url(#id20)"><g clip-path="url(#id21)"><g clip-path="url(#id22)"><path fill="#ffffff" d="M 65.492188 11.574219 C 65.632812 11.421875 65.871094 11.410156 66.023438 11.546875 C 66.171875 11.683594 66.183594 11.921875 66.042969 12.074219 C 65.90625 12.230469 65.667969 12.242188 65.515625 12.105469 C 65.363281 11.964844 65.355469 11.730469 65.492188 11.574219 " fill-opacity="1" fill-rule="nonzero"/></g></g></g><g clip-path="url(#id23)"><g clip-path="url(#id24)"><g clip-path="url(#id25)"><path fill="#ffffff" d="M 66.648438 8.972656 C 66.746094 8.863281 66.910156 8.855469 67.019531 8.953125 C 67.125 9.046875 67.132812 9.214844 67.035156 9.320312 C 66.9375 9.429688 66.769531 9.4375 66.664062 9.339844 C 66.558594 9.246094 66.550781 9.078125 66.648438 8.972656 " fill-opacity="1" fill-rule="nonzero"/></g></g></g><g clip-path="url(#id26)"><g clip-path="url(#id27)"><g clip-path="url(#id28)"><path fill="#ffffff" d="M 69.554688 11.609375 C 69.652344 11.503906 69.820312 11.496094 69.925781 11.589844 C 70.03125 11.6875 70.039062 11.851562 69.941406 11.960938 C 69.84375 12.066406 69.679688 12.078125 69.570312 11.980469 C 69.464844 11.882812 69.457031 11.71875 69.554688 11.609375 " fill-opacity="1" fill-rule="nonzero"/></g></g></g><g clip-path="url(#id29)"><g clip-path="url(#id30)"><g clip-path="url(#id31)"><path fill="#ffffff" d="M 67.171875 10.921875 C 67.253906 10.832031 67.394531 10.824219 67.488281 10.90625 C 67.578125 10.988281 67.585938 11.128906 67.5 11.222656 C 67.417969 11.3125 67.277344 11.320312 67.183594 11.238281 C 67.09375 11.15625 67.085938 11.015625 67.171875 10.921875 " fill-opacity="1" fill-rule="nonzero"/></g></g></g><g clip-path="url(#id32)"><g clip-path="url(#id33)"><g clip-path="url(#id34)"><path fill="#ffffff" d="M 67.394531 13.339844 C 67.449219 13.277344 67.542969 13.273438 67.601562 13.328125 C 67.660156 13.382812 67.664062 13.472656 67.609375 13.535156 C 67.554688 13.59375 67.460938 13.597656 67.402344 13.546875 C 67.34375 13.492188 67.339844 13.398438 67.394531 13.339844 " fill-opacity="1" fill-rule="nonzero"/></g></g></g><g clip-path="url(#id35)"><g clip-path="url(#id36)"><g clip-path="url(#id37)"><path fill="#ffffff" d="M 68.875 10.027344 C 68.929688 9.964844 69.023438 9.960938 69.082031 10.015625 C 69.140625 10.070312 69.144531 10.164062 69.089844 10.222656 C 69.035156 10.28125 68.945312 10.289062 68.882812 10.234375 C 68.824219 10.179688 68.820312 10.085938 68.875 10.027344 " fill-opacity="1" fill-rule="nonzero"/></g></g></g><g clip-path="url(#id38)"><path fill="#5271ff" d="M 204.425781 30.652344 C 204.414062 30.585938 204.390625 30.539062 204.355469 30.496094 C 204.121094 30.042969 203.722656 29.75 203.210938 29.695312 C 202.964844 29.671875 202.726562 29.703125 202.480469 29.734375 C 202.328125 29.753906 202.128906 29.835938 201.980469 29.796875 C 201.617188 29.710938 201.703125 29.496094 201.828125 29.199219 C 202.253906 28.160156 202.898438 26.882812 202.023438 25.863281 C 201.371094 25.109375 200.410156 25.417969 200.023438 26.261719 C 199.59375 27.195312 199.796875 28.355469 199.742188 29.355469 C 199.714844 29.875 199.652344 30.441406 199.394531 30.898438 C 199.148438 31.335938 197.765625 32.222656 197.8125 31.183594 C 197.832031 30.683594 198.21875 30.28125 198.484375 29.882812 C 198.8125 29.390625 199.167969 28.863281 199.285156 28.265625 C 199.402344 27.683594 199.25 27.132812 199.03125 26.597656 C 198.921875 26.324219 198.765625 26.042969 198.710938 25.75 C 198.628906 25.289062 198.859375 24.847656 199.058594 24.457031 C 199.648438 23.277344 200.5 21.976562 200.042969 20.589844 C 199.695312 19.527344 198.652344 19.585938 198.207031 20.53125 C 198.050781 20.859375 197.988281 21.226562 197.945312 21.59375 C 197.941406 21.113281 197.921875 20.636719 197.890625 20.164062 C 197.828125 19.230469 197.800781 17.089844 196.617188 16.835938 C 195.953125 16.695312 195.453125 17.324219 195.214844 17.875 C 194.867188 18.679688 194.871094 19.683594 194.941406 20.542969 C 195.070312 22.242188 195.792969 23.796875 196.246094 25.421875 C 196.246094 25.425781 196.246094 25.425781 196.25 25.433594 C 196.425781 26.25 196.570312 27.242188 196.261719 28.039062 C 196.1875 28.234375 196.070312 28.441406 195.894531 28.554688 C 195.875 28.570312 195.8125 28.605469 195.757812 28.628906 C 195.757812 28.597656 195.710938 28.527344 195.722656 28.460938 C 195.773438 27.867188 195.832031 27.289062 195.921875 26.695312 C 196.046875 25.835938 195.796875 24.128906 194.570312 24.246094 C 193.273438 24.371094 193.496094 26.445312 193.652344 27.292969 C 193.808594 28.171875 194.0625 29.039062 193.839844 29.929688 C 193.757812 30.261719 193.609375 30.976562 193.140625 30.75 C 192.671875 30.515625 192.578125 29.714844 192.609375 29.257812 C 192.660156 28.617188 193.015625 28.070312 192.941406 27.390625 C 192.839844 26.457031 192.257812 25.695312 192.230469 24.734375 C 192.300781 23.847656 192.691406 22.898438 193.136719 22.136719 C 193.136719 22.132812 193.140625 22.132812 193.140625 22.128906 C 193.46875 21.488281 193.757812 20.835938 194.019531 20.164062 C 194.355469 19.285156 194.664062 18.328125 194.171875 17.4375 C 193.78125 16.734375 193 16.441406 192.308594 16.886719 C 191.601562 17.34375 191.367188 18.21875 191.214844 19 C 191.074219 19.714844 191.035156 20.457031 190.820312 21.152344 C 190.753906 21.355469 190.648438 21.542969 190.5625 21.734375 C 190.558594 21.714844 190.550781 21.703125 190.550781 21.699219 C 190.4375 21.242188 190.40625 20.773438 190.28125 20.320312 C 190.089844 19.640625 189.640625 18.617188 188.839844 18.550781 C 188.101562 18.488281 187.621094 19.296875 187.511719 19.933594 C 187.15625 22.109375 188.785156 23.921875 189.800781 25.628906 C 190.007812 26 190.257812 26.433594 190.261719 26.871094 C 190.261719 26.980469 190.21875 27.101562 190.261719 27.105469 C 190.03125 27.09375 189.722656 26.507812 189.625 26.347656 C 189.15625 25.589844 188.910156 24.679688 188.367188 23.96875 C 187.976562 23.460938 187.273438 23.070312 186.652344 23.433594 C 186.023438 23.800781 186.105469 24.65625 186.296875 25.257812 C 186.566406 26.113281 187.027344 26.882812 187.621094 27.546875 C 188.089844 28.0625 188.652344 28.484375 189.121094 29 C 189.183594 29.070312 189.242188 29.148438 189.300781 29.222656 C 189.253906 29.191406 189.203125 29.160156 189.160156 29.128906 C 188.828125 28.882812 188.507812 28.574219 188.085938 28.507812 C 187.382812 28.394531 186.796875 29.019531 186.988281 29.730469 C 187.230469 30.640625 188.0625 31.242188 188.875 31.5625 C 189.75 31.910156 190.609375 31.84375 191.5 32.070312 C 191.820312 32.171875 192.132812 32.28125 192.378906 32.519531 C 192.582031 32.71875 192.917969 33.152344 192.832031 33.464844 C 192.652344 34.128906 191.363281 33.089844 191.089844 32.917969 C 190.214844 32.359375 188.710938 31.554688 188.066406 32.890625 C 187.476562 34.117188 188.691406 35.171875 189.777344 35.394531 C 190.34375 35.507812 190.921875 35.460938 191.492188 35.53125 C 191.609375 35.542969 191.738281 35.554688 191.84375 35.601562 C 191.871094 35.617188 191.964844 35.644531 191.976562 35.675781 C 191.980469 35.691406 191.984375 35.695312 191.984375 35.707031 C 191.976562 35.6875 191.953125 35.667969 191.921875 35.695312 C 191.609375 36.023438 190.933594 35.765625 190.589844 35.65625 C 190.046875 35.488281 189.425781 35.332031 188.933594 35.734375 C 188.578125 36.027344 188.496094 36.558594 188.738281 36.957031 C 189.308594 37.894531 190.757812 37.945312 191.6875 37.84375 C 191.9375 37.8125 192.207031 37.789062 192.476562 37.761719 C 192.476562 37.761719 196.289062 37.863281 198.234375 36.664062 C 200.179688 35.464844 200.132812 33.949219 200.417969 33.15625 L 200.417969 33.152344 C 200.496094 32.976562 200.5625 32.796875 200.628906 32.621094 C 200.734375 32.328125 200.726562 32.085938 201.023438 31.960938 C 201.464844 31.777344 201.878906 32.019531 202.320312 32.066406 C 202.65625 32.105469 203.019531 32.105469 203.347656 32.003906 C 203.980469 31.808594 204.554688 31.375 204.425781 30.652344 Z M 204.425781 30.652344 " fill-opacity="1" fill-rule="nonzero"/></g><g clip-path="url(#id39)"><path fill="#ffde59" d="M 191.800781 36.269531 C 192.039062 34.089844 193.679688 33.582031 196.324219 33.046875 C 200.878906 32.128906 197.515625 28.117188 195.589844 30.703125 C 195.328125 31.054688 194.949219 32.007812 194.367188 31.765625 C 193.867188 31.617188 193.992188 31.0625 194.277344 30.53125 C 195.679688 27.933594 191.996094 27.644531 192.765625 30.082031 C 193.050781 30.976562 192.671875 31.769531 192.546875 32.050781 C 192.085938 33.085938 191.101562 32.8125 190.808594 31.210938 C 190.398438 28.945312 191.878906 27.933594 192.6875 27 C 193.605469 25.9375 195.082031 22.761719 192.867188 22.132812 C 191.027344 21.605469 190.75 24.140625 190.683594 25.175781 C 190.59375 26.625 190.582031 27.492188 190.0625 27.507812 C 189.570312 27.523438 189.59375 26.632812 189.4375 25.910156 C 188.910156 23.453125 185.65625 25.234375 187.414062 26.90625 C 188.1875 27.644531 189.371094 28.996094 189.445312 31.382812 C 189.503906 33.257812 187.671875 33.429688 187.777344 31.785156 C 187.804688 31.335938 187.921875 30.964844 187.9375 30.632812 C 188.015625 28.796875 185.390625 28.96875 186.191406 30.996094 C 186.441406 31.628906 186.984375 32.277344 186.761719 32.667969 C 186.554688 33.042969 186.050781 32.75 185.507812 32.453125 C 182.585938 30.863281 181.851562 35.9375 185.527344 34.941406 C 186.175781 34.765625 187.078125 34.484375 187.914062 34.347656 C 188.523438 34.25 189.621094 34.546875 189.789062 36.167969 C 190.027344 38.46875 191.425781 39.648438 191.800781 36.269531 " fill-opacity="1" fill-rule="nonzero"/></g><path fill="#a49523" d="M 197.890625 30.761719 C 197.957031 30.53125 197.816406 30.296875 197.582031 30.234375 C 197.34375 30.171875 197.101562 30.304688 197.035156 30.53125 C 196.96875 30.757812 197.105469 30.992188 197.34375 31.054688 C 197.578125 31.121094 197.824219 30.988281 197.890625 30.761719 " fill-opacity="1" fill-rule="nonzero"/><path fill="#a49523" d="M 197.980469 31.707031 C 198.03125 31.570312 197.957031 31.425781 197.816406 31.378906 C 197.675781 31.332031 197.519531 31.402344 197.472656 31.539062 C 197.425781 31.671875 197.5 31.820312 197.640625 31.867188 C 197.78125 31.914062 197.933594 31.84375 197.980469 31.707031 " fill-opacity="1" fill-rule="nonzero"/><path fill="#a49523" d="M 196.710938 30.683594 C 196.757812 30.550781 196.683594 30.402344 196.542969 30.355469 C 196.402344 30.308594 196.25 30.378906 196.203125 30.515625 C 196.152344 30.652344 196.226562 30.800781 196.367188 30.847656 C 196.507812 30.894531 196.664062 30.820312 196.710938 30.683594 " fill-opacity="1" fill-rule="nonzero"/><path fill="#a49523" d="M 197.105469 32.261719 C 197.140625 32.15625 197.085938 32.046875 196.980469 32.011719 C 196.871094 31.976562 196.757812 32.03125 196.71875 32.132812 C 196.683594 32.234375 196.738281 32.347656 196.84375 32.382812 C 196.953125 32.417969 197.066406 32.363281 197.105469 32.261719 " fill-opacity="1" fill-rule="nonzero"/><path fill="#a49523" d="M 196.984375 31.457031 C 197.023438 31.355469 196.964844 31.242188 196.859375 31.207031 C 196.753906 31.171875 196.636719 31.226562 196.601562 31.328125 C 196.5625 31.429688 196.621094 31.542969 196.726562 31.578125 C 196.832031 31.613281 196.949219 31.558594 196.984375 31.457031 " fill-opacity="1" fill-rule="nonzero"/><g clip-path="url(#id40)"><path fill="#a49523" d="M 193.167969 23.015625 C 193.234375 22.789062 193.097656 22.554688 192.863281 22.488281 C 192.625 22.425781 192.382812 22.558594 192.316406 22.785156 C 192.25 23.011719 192.386719 23.25 192.621094 23.3125 C 192.859375 23.375 193.105469 23.242188 193.167969 23.015625 " fill-opacity="1" fill-rule="nonzero"/></g><path fill="#a49523" d="M 193.710938 24 C 193.757812 23.863281 193.683594 23.714844 193.542969 23.667969 C 193.402344 23.621094 193.25 23.691406 193.199219 23.828125 C 193.152344 23.964844 193.226562 24.113281 193.367188 24.160156 C 193.507812 24.207031 193.660156 24.132812 193.710938 24 " fill-opacity="1" fill-rule="nonzero"/><path fill="#a49523" d="M 192.554688 24.027344 C 192.601562 23.890625 192.527344 23.746094 192.386719 23.699219 C 192.246094 23.652344 192.09375 23.722656 192.042969 23.859375 C 191.996094 23.992188 192.070312 24.140625 192.210938 24.1875 C 192.351562 24.234375 192.503906 24.164062 192.554688 24.027344 " fill-opacity="1" fill-rule="nonzero"/><g clip-path="url(#id41)"><path fill="#a49523" d="M 191.957031 23.242188 C 192.003906 23.105469 191.929688 22.960938 191.789062 22.914062 C 191.648438 22.867188 191.496094 22.9375 191.445312 23.074219 C 191.398438 23.207031 191.472656 23.355469 191.613281 23.402344 C 191.753906 23.449219 191.90625 23.378906 191.957031 23.242188 " fill-opacity="1" fill-rule="nonzero"/></g><path fill="#a49523" d="M 192.003906 24.921875 C 192.039062 24.820312 191.984375 24.710938 191.875 24.671875 C 191.769531 24.636719 191.652344 24.691406 191.617188 24.796875 C 191.582031 24.898438 191.636719 25.007812 191.742188 25.042969 C 191.851562 25.078125 191.964844 25.027344 192.003906 24.921875 " fill-opacity="1" fill-rule="nonzero"/><path fill="#a49523" d="M 191.589844 25.460938 C 191.628906 25.359375 191.570312 25.246094 191.464844 25.210938 C 191.359375 25.175781 191.242188 25.230469 191.207031 25.332031 C 191.167969 25.433594 191.226562 25.546875 191.332031 25.582031 C 191.4375 25.617188 191.554688 25.5625 191.589844 25.460938 " fill-opacity="1" fill-rule="nonzero"/><path fill="#a49523" d="M 191.589844 24.261719 C 191.628906 24.160156 191.570312 24.046875 191.464844 24.011719 C 191.359375 23.976562 191.242188 24.03125 191.207031 24.132812 C 191.167969 24.234375 191.226562 24.347656 191.332031 24.382812 C 191.4375 24.417969 191.554688 24.363281 191.589844 24.261719 " fill-opacity="1" fill-rule="nonzero"/><path fill="#a49523" d="M 192.933594 24.707031 C 192.972656 24.605469 192.914062 24.492188 192.808594 24.457031 C 192.703125 24.421875 192.585938 24.476562 192.550781 24.578125 C 192.511719 24.683594 192.570312 24.792969 192.675781 24.828125 C 192.78125 24.863281 192.898438 24.808594 192.933594 24.707031 " fill-opacity="1" fill-rule="nonzero"/><path fill="#a49523" d="M 188.3125 25.507812 C 188.378906 25.277344 188.242188 25.042969 188.003906 24.980469 C 187.769531 24.917969 187.523438 25.046875 187.457031 25.277344 C 187.390625 25.503906 187.53125 25.738281 187.765625 25.800781 C 188 25.867188 188.246094 25.734375 188.3125 25.507812 " fill-opacity="1" fill-rule="nonzero"/><path fill="#a49523" d="M 189.101562 25.792969 C 189.152344 25.65625 189.078125 25.507812 188.9375 25.460938 C 188.796875 25.414062 188.640625 25.488281 188.59375 25.621094 C 188.546875 25.757812 188.621094 25.90625 188.761719 25.953125 C 188.902344 26 189.054688 25.925781 189.101562 25.792969 " fill-opacity="1" fill-rule="nonzero"/><path fill="#a49523" d="M 187.960938 26.417969 C 188.007812 26.28125 187.933594 26.132812 187.792969 26.085938 C 187.652344 26.039062 187.5 26.113281 187.449219 26.246094 C 187.402344 26.382812 187.476562 26.53125 187.617188 26.578125 C 187.757812 26.625 187.910156 26.550781 187.960938 26.417969 " fill-opacity="1" fill-rule="nonzero"/><path fill="#a49523" d="M 188.519531 27.214844 C 188.554688 27.113281 188.5 27 188.394531 26.964844 C 188.289062 26.929688 188.171875 26.984375 188.132812 27.085938 C 188.097656 27.1875 188.15625 27.300781 188.261719 27.335938 C 188.367188 27.371094 188.484375 27.316406 188.519531 27.214844 " fill-opacity="1" fill-rule="nonzero"/><path fill="#a49523" d="M 188.65625 26.449219 C 188.695312 26.347656 188.636719 26.234375 188.53125 26.199219 C 188.425781 26.164062 188.308594 26.21875 188.273438 26.320312 C 188.234375 26.425781 188.292969 26.535156 188.398438 26.570312 C 188.503906 26.605469 188.621094 26.550781 188.65625 26.449219 " fill-opacity="1" fill-rule="nonzero"/><path fill="#a49523" d="M 194.359375 29.636719 C 194.410156 29.5 194.332031 29.355469 194.191406 29.308594 C 194.050781 29.261719 193.898438 29.332031 193.851562 29.46875 C 193.800781 29.601562 193.875 29.75 194.015625 29.796875 C 194.15625 29.84375 194.3125 29.773438 194.359375 29.636719 " fill-opacity="1" fill-rule="nonzero"/><path fill="#a49523" d="M 193.742188 29.03125 C 193.789062 28.894531 193.714844 28.746094 193.574219 28.699219 C 193.433594 28.652344 193.28125 28.726562 193.234375 28.859375 C 193.183594 28.996094 193.257812 29.144531 193.398438 29.191406 C 193.539062 29.238281 193.695312 29.167969 193.742188 29.03125 " fill-opacity="1" fill-rule="nonzero"/><path fill="#a49523" d="M 193.4375 29.847656 C 193.476562 29.742188 193.417969 29.632812 193.3125 29.597656 C 193.207031 29.5625 193.089844 29.617188 193.054688 29.71875 C 193.015625 29.820312 193.074219 29.933594 193.179688 29.96875 C 193.285156 30.003906 193.402344 29.949219 193.4375 29.847656 " fill-opacity="1" fill-rule="nonzero"/><path fill="#a49523" d="M 187.046875 29.929688 C 187.09375 29.792969 187.019531 29.644531 186.878906 29.597656 C 186.738281 29.550781 186.585938 29.625 186.535156 29.757812 C 186.488281 29.894531 186.5625 30.042969 186.703125 30.089844 C 186.84375 30.136719 186.996094 30.0625 187.046875 29.929688 " fill-opacity="1" fill-rule="nonzero"/><path fill="#a49523" d="M 186.839844 30.675781 C 186.878906 30.574219 186.820312 30.460938 186.714844 30.425781 C 186.609375 30.390625 186.492188 30.445312 186.457031 30.546875 C 186.417969 30.648438 186.476562 30.761719 186.582031 30.796875 C 186.6875 30.832031 186.804688 30.777344 186.839844 30.675781 " fill-opacity="1" fill-rule="nonzero"/><path fill="#a49523" d="M 187.613281 30.304688 C 187.652344 30.203125 187.59375 30.089844 187.488281 30.054688 C 187.382812 30.019531 187.265625 30.074219 187.230469 30.175781 C 187.195312 30.28125 187.25 30.390625 187.355469 30.425781 C 187.460938 30.460938 187.578125 30.40625 187.613281 30.304688 " fill-opacity="1" fill-rule="nonzero"/><g clip-path="url(#id42)"><path fill="#a49523" d="M 184.230469 33.859375 C 184.296875 33.632812 184.160156 33.398438 183.925781 33.335938 C 183.6875 33.269531 183.445312 33.402344 183.378906 33.632812 C 183.3125 33.859375 183.449219 34.09375 183.683594 34.15625 C 183.921875 34.222656 184.167969 34.089844 184.230469 33.859375 " fill-opacity="1" fill-rule="nonzero"/></g><path fill="#a49523" d="M 184.71875 34.566406 C 184.769531 34.429688 184.691406 34.28125 184.550781 34.234375 C 184.410156 34.1875 184.257812 34.261719 184.210938 34.394531 C 184.160156 34.53125 184.234375 34.679688 184.375 34.726562 C 184.515625 34.773438 184.671875 34.703125 184.71875 34.566406 " fill-opacity="1" fill-rule="nonzero"/><g clip-path="url(#id43)"><path fill="#a49523" d="M 184.441406 32.808594 C 184.492188 32.671875 184.417969 32.527344 184.277344 32.480469 C 184.136719 32.433594 183.980469 32.503906 183.933594 32.640625 C 183.882812 32.773438 183.957031 32.921875 184.097656 32.96875 C 184.238281 33.015625 184.394531 32.945312 184.441406 32.808594 " fill-opacity="1" fill-rule="nonzero"/></g><path fill="#a49523" d="M 185.769531 34.347656 C 185.808594 34.246094 185.75 34.136719 185.644531 34.101562 C 185.539062 34.0625 185.421875 34.117188 185.386719 34.222656 C 185.347656 34.324219 185.40625 34.433594 185.511719 34.46875 C 185.617188 34.503906 185.734375 34.453125 185.769531 34.347656 " fill-opacity="1" fill-rule="nonzero"/><path fill="#a49523" d="M 185.242188 32.847656 C 185.28125 32.742188 185.222656 32.632812 185.117188 32.597656 C 185.011719 32.5625 184.894531 32.617188 184.859375 32.71875 C 184.820312 32.820312 184.878906 32.933594 184.984375 32.96875 C 185.089844 33.003906 185.207031 32.949219 185.242188 32.847656 " fill-opacity="1" fill-rule="nonzero"/><path fill="#a49523" d="M 184.980469 33.671875 C 185.015625 33.570312 184.960938 33.457031 184.855469 33.421875 C 184.746094 33.386719 184.632812 33.441406 184.59375 33.542969 C 184.558594 33.644531 184.613281 33.757812 184.722656 33.792969 C 184.828125 33.828125 184.941406 33.773438 184.980469 33.671875 " fill-opacity="1" fill-rule="nonzero"/><g clip-path="url(#id44)"><g clip-path="url(#id45)"><g clip-path="url(#id46)"><path fill="#ffffff" d="M 193.507812 12.535156 C 193.738281 12.28125 194.128906 12.261719 194.378906 12.488281 C 194.628906 12.71875 194.644531 13.105469 194.417969 13.359375 C 194.1875 13.613281 193.796875 13.632812 193.546875 13.40625 C 193.296875 13.179688 193.277344 12.789062 193.507812 12.535156 " fill-opacity="1" fill-rule="nonzero"/></g></g></g><g clip-path="url(#id47)"><g clip-path="url(#id48)"><g clip-path="url(#id49)"><path fill="#ffffff" d="M 193.753906 14.5 C 193.914062 14.324219 194.179688 14.308594 194.351562 14.464844 C 194.527344 14.625 194.539062 14.890625 194.378906 15.066406 C 194.222656 15.242188 193.953125 15.253906 193.78125 15.097656 C 193.609375 14.941406 193.597656 14.671875 193.753906 14.5 " fill-opacity="1" fill-rule="nonzero"/></g></g></g><g clip-path="url(#id50)"><g clip-path="url(#id51)"><g clip-path="url(#id52)"><path fill="#ffffff" d="M 195.011719 11.792969 C 195.171875 11.617188 195.4375 11.601562 195.609375 11.761719 C 195.785156 11.917969 195.796875 12.183594 195.636719 12.359375 C 195.480469 12.535156 195.210938 12.546875 195.039062 12.390625 C 194.867188 12.234375 194.855469 11.964844 195.011719 11.792969 " fill-opacity="1" fill-rule="nonzero"/></g></g></g><g clip-path="url(#id53)"><g clip-path="url(#id54)"><g clip-path="url(#id55)"><path fill="#ffffff" d="M 192.335938 13.042969 C 192.453125 12.914062 192.648438 12.902344 192.777344 13.019531 C 192.902344 13.132812 192.914062 13.332031 192.796875 13.457031 C 192.679688 13.585938 192.484375 13.597656 192.355469 13.480469 C 192.230469 13.367188 192.222656 13.167969 192.335938 13.042969 " fill-opacity="1" fill-rule="nonzero"/></g></g></g><g clip-path="url(#id56)"><g clip-path="url(#id57)"><g clip-path="url(#id58)"><path fill="#ffffff" d="M 193.296875 10.875 C 193.378906 10.785156 193.515625 10.777344 193.605469 10.859375 C 193.691406 10.9375 193.699219 11.074219 193.617188 11.164062 C 193.535156 11.253906 193.398438 11.261719 193.3125 11.179688 C 193.222656 11.101562 193.214844 10.964844 193.296875 10.875 " fill-opacity="1" fill-rule="nonzero"/></g></g></g><g clip-path="url(#id59)"><g clip-path="url(#id60)"><g clip-path="url(#id61)"><path fill="#ffffff" d="M 195.722656 13.074219 C 195.800781 12.984375 195.941406 12.976562 196.027344 13.058594 C 196.117188 13.140625 196.125 13.277344 196.042969 13.367188 C 195.960938 13.457031 195.824219 13.460938 195.734375 13.382812 C 195.644531 13.300781 195.640625 13.164062 195.722656 13.074219 " fill-opacity="1" fill-rule="nonzero"/></g></g></g><g clip-path="url(#id62)"><g clip-path="url(#id63)"><g clip-path="url(#id64)"><path fill="#ffffff" d="M 193.734375 12.5 C 193.804688 12.421875 193.921875 12.417969 193.996094 12.484375 C 194.074219 12.554688 194.078125 12.671875 194.007812 12.75 C 193.9375 12.824219 193.820312 12.832031 193.746094 12.761719 C 193.667969 12.695312 193.664062 12.574219 193.734375 12.5 " fill-opacity="1" fill-rule="nonzero"/></g></g></g><g clip-path="url(#id65)"><g clip-path="url(#id66)"><g clip-path="url(#id67)"><path fill="#ffffff" d="M 193.921875 14.511719 C 193.96875 14.460938 194.042969 14.457031 194.09375 14.503906 C 194.144531 14.546875 194.148438 14.625 194.101562 14.675781 C 194.054688 14.722656 193.980469 14.730469 193.929688 14.683594 C 193.878906 14.636719 193.875 14.5625 193.921875 14.511719 " fill-opacity="1" fill-rule="nonzero"/></g></g></g><g clip-path="url(#id68)"><g clip-path="url(#id69)"><g clip-path="url(#id70)"><path fill="#ffffff" d="M 195.152344 11.753906 C 195.199219 11.703125 195.277344 11.699219 195.324219 11.746094 C 195.375 11.789062 195.378906 11.867188 195.332031 11.917969 C 195.289062 11.96875 195.210938 11.972656 195.160156 11.925781 C 195.109375 11.882812 195.109375 11.804688 195.152344 11.753906 " fill-opacity="1" fill-rule="nonzero"/></g></g></g><g clip-path="url(#id71)"><path fill="#edefec" d="M 71.5 6.191406 L 72.207031 5.878906 C 71.980469 4.90625 73.238281 4.542969 73.535156 5.550781 C 73.789062 5.574219 74.027344 5.675781 74.246094 5.855469 C 75.304688 6.75 74.933594 7.617188 73.695312 7.984375 C 73.675781 7.988281 73.65625 7.992188 73.640625 7.996094 C 73.523438 8.820312 72.515625 8.921875 72.316406 8.03125 C 72.207031 8.011719 72.101562 7.984375 72 7.953125 C 71.921875 7.925781 71.851562 7.890625 71.785156 7.851562 C 71.625 8.214844 71.105469 8.296875 70.898438 7.984375 C 70.785156 7.835938 70.777344 7.707031 70.890625 7.601562 C 70.984375 7.539062 71.046875 7.460938 71.070312 7.371094 C 70.96875 7.355469 70.855469 7.390625 70.71875 7.503906 C 70.699219 7.148438 70.679688 6.796875 70.664062 6.445312 C 70.707031 6.449219 70.765625 6.441406 70.835938 6.429688 C 70.609375 5.8125 71.265625 5.589844 71.5 6.191406 " fill-opacity="1" fill-rule="evenodd"/></g><g clip-path="url(#id72)"><path fill="#f57715" d="M 71.785156 7.851562 C 71.625 8.214844 71.105469 8.296875 70.898438 7.984375 C 70.785156 7.835938 70.777344 7.707031 70.890625 7.601562 C 70.984375 7.539062 71.046875 7.460938 71.070312 7.371094 C 71.277344 7.039062 71.132812 6.625 70.835938 6.429688 C 70.609375 5.8125 71.265625 5.589844 71.5 6.191406 C 71.519531 6.429688 72.089844 7.015625 71.785156 7.851562 " fill-opacity="1" fill-rule="evenodd"/></g><g clip-path="url(#id73)"><path fill="#f57715" d="M 73.863281 5.628906 C 73.996094 5.679688 74.125 5.757812 74.246094 5.855469 C 75.203125 6.667969 74.992188 7.457031 74.019531 7.871094 C 73.417969 6.933594 73.457031 6.269531 73.863281 5.628906 " fill-opacity="1" fill-rule="evenodd"/></g><g clip-path="url(#id74)"><path fill="#191818" d="M 74.835938 7.101562 C 74.8125 7.191406 74.769531 7.273438 74.714844 7.355469 C 74.445312 7.433594 74.199219 7.273438 74.050781 7.035156 C 74.320312 7.257812 74.539062 7.277344 74.835938 7.101562 " fill-opacity="1" fill-rule="evenodd"/></g><g clip-path="url(#id75)"><path fill="#f57715" d="M 72.207031 5.878906 C 71.980469 4.90625 73.238281 4.542969 73.535156 5.550781 C 72.863281 6.480469 72.742188 7.433594 73.667969 7.992188 L 73.640625 7.996094 C 73.523438 8.820312 72.515625 8.921875 72.316406 8.03125 C 72.863281 7.132812 72.78125 6.710938 72.207031 5.878906 " fill-opacity="1" fill-rule="evenodd"/></g><g clip-path="url(#id76)"><path fill="#d74521" d="M 70.664062 6.445312 C 70.53125 6.308594 69.875 5.742188 69.921875 6.28125 C 69.777344 6.289062 69.753906 6.394531 69.804688 6.558594 C 69.679688 6.699219 69.722656 6.816406 69.816406 6.925781 C 69.753906 7.015625 69.765625 7.097656 69.832031 7.164062 C 69.738281 7.277344 69.765625 7.363281 69.878906 7.421875 C 69.832031 7.574219 69.875 7.648438 70.019531 7.640625 C 69.984375 7.816406 70.058594 7.882812 70.203125 7.871094 C 70.398438 7.839844 70.574219 7.738281 70.71875 7.503906 C 70.882812 7.300781 70.847656 6.730469 70.664062 6.445312 " fill-opacity="1" fill-rule="evenodd"/></g><path fill="#d74521" d="M 72.902344 6.890625 C 72.6875 6.714844 72.460938 6.582031 72.191406 6.589844 C 72.082031 6.628906 72.0625 6.722656 72.109375 6.851562 C 72.027344 6.9375 72.0625 7.019531 72.136719 7.101562 C 72.046875 7.214844 72.066406 7.300781 72.148438 7.375 C 72.101562 7.507812 72.160156 7.558594 72.238281 7.589844 C 72.1875 7.746094 72.226562 7.828125 72.355469 7.835938 C 72.617188 7.804688 72.835938 7.6875 73.011719 7.488281 C 72.910156 7.308594 72.835938 7.117188 72.902344 6.890625 " fill-opacity="1" fill-rule="evenodd"/><g clip-path="url(#id77)"><path fill="#ffffff" d="M 74.148438 6.269531 C 74.289062 6.25 74.421875 6.359375 74.4375 6.515625 C 74.457031 6.667969 74.355469 6.808594 74.210938 6.824219 C 74.070312 6.84375 73.941406 6.734375 73.921875 6.582031 C 73.90625 6.429688 74.007812 6.289062 74.148438 6.269531 " fill-opacity="1" fill-rule="evenodd"/></g><g clip-path="url(#id78)"><path fill="#191818" d="M 74.214844 6.375 C 74.300781 6.363281 74.378906 6.429688 74.390625 6.519531 C 74.398438 6.609375 74.339844 6.695312 74.253906 6.707031 C 74.171875 6.714844 74.09375 6.652344 74.085938 6.558594 C 74.074219 6.46875 74.132812 6.386719 74.214844 6.375 " fill-opacity="1" fill-rule="evenodd"/></g><g clip-path="url(#id79)"><path fill="#edefec" d="M 73.804688 10.613281 L 74.710938 10.238281 C 74.421875 9.070312 76.039062 8.636719 76.417969 9.84375 C 76.746094 9.875 77.050781 9.996094 77.332031 10.210938 C 78.695312 11.285156 78.21875 12.324219 76.625 12.765625 C 76.601562 12.769531 76.578125 12.773438 76.554688 12.777344 C 76.402344 13.769531 75.105469 13.886719 74.851562 12.820312 C 74.710938 12.796875 74.574219 12.765625 74.445312 12.726562 C 74.34375 12.691406 74.253906 12.652344 74.171875 12.605469 C 73.964844 13.042969 73.296875 13.140625 73.03125 12.765625 C 72.882812 12.585938 72.875 12.433594 73.019531 12.304688 C 73.140625 12.230469 73.222656 12.136719 73.25 12.03125 C 73.117188 12.011719 72.972656 12.050781 72.796875 12.1875 C 72.773438 11.761719 72.75 11.34375 72.726562 10.917969 C 72.785156 10.921875 72.859375 10.914062 72.949219 10.898438 C 72.65625 10.160156 73.5 9.890625 73.804688 10.613281 " fill-opacity="1" fill-rule="evenodd"/></g><path fill="#f57715" d="M 74.171875 12.605469 C 73.960938 13.042969 73.296875 13.140625 73.03125 12.765625 C 72.882812 12.585938 72.875 12.433594 73.019531 12.304688 C 73.140625 12.230469 73.222656 12.136719 73.25 12.03125 C 73.515625 11.632812 73.332031 11.132812 72.949219 10.898438 C 72.65625 10.160156 73.5 9.890625 73.804688 10.613281 C 73.824219 10.898438 74.5625 11.605469 74.171875 12.605469 " fill-opacity="1" fill-rule="evenodd"/><g clip-path="url(#id80)"><path fill="#f57715" d="M 76.839844 9.9375 C 77.011719 10 77.175781 10.089844 77.332031 10.210938 C 78.566406 11.183594 78.292969 12.128906 77.042969 12.625 C 76.269531 11.503906 76.316406 10.707031 76.839844 9.9375 " fill-opacity="1" fill-rule="evenodd"/></g><g clip-path="url(#id81)"><path fill="#191818" d="M 78.09375 11.703125 C 78.0625 11.8125 78.007812 11.914062 77.9375 12.011719 C 77.589844 12.105469 77.273438 11.914062 77.085938 11.625 C 77.429688 11.894531 77.710938 11.917969 78.09375 11.703125 " fill-opacity="1" fill-rule="evenodd"/></g><g clip-path="url(#id82)"><path fill="#f57715" d="M 74.710938 10.238281 C 74.421875 9.070312 76.039062 8.636719 76.417969 9.84375 C 75.554688 10.960938 75.402344 12.105469 76.589844 12.773438 L 76.554688 12.777344 C 76.402344 13.769531 75.105469 13.886719 74.851562 12.820312 C 75.554688 11.742188 75.453125 11.234375 74.710938 10.238281 " fill-opacity="1" fill-rule="evenodd"/></g><g clip-path="url(#id83)"><path fill="#d74521" d="M 72.726562 10.917969 C 72.554688 10.753906 71.714844 10.074219 71.773438 10.722656 C 71.585938 10.730469 71.554688 10.855469 71.621094 11.054688 C 71.460938 11.222656 71.515625 11.359375 71.636719 11.492188 C 71.558594 11.605469 71.570312 11.699219 71.660156 11.78125 C 71.535156 11.917969 71.574219 12.019531 71.71875 12.089844 C 71.65625 12.273438 71.714844 12.359375 71.894531 12.355469 C 71.855469 12.5625 71.949219 12.644531 72.136719 12.625 C 72.386719 12.589844 72.613281 12.46875 72.796875 12.1875 C 73.011719 11.945312 72.960938 11.261719 72.726562 10.917969 " fill-opacity="1" fill-rule="evenodd"/></g><path fill="#d74521" d="M 75.601562 11.453125 C 75.328125 11.242188 75.035156 11.082031 74.691406 11.09375 C 74.550781 11.140625 74.523438 11.25 74.585938 11.40625 C 74.480469 11.507812 74.527344 11.609375 74.621094 11.707031 C 74.507812 11.839844 74.535156 11.945312 74.636719 12.03125 C 74.578125 12.191406 74.652344 12.253906 74.75 12.289062 C 74.6875 12.476562 74.734375 12.578125 74.902344 12.585938 C 75.238281 12.550781 75.519531 12.40625 75.746094 12.171875 C 75.613281 11.953125 75.519531 11.722656 75.601562 11.453125 " fill-opacity="1" fill-rule="evenodd"/><path fill="#ffffff" d="M 77.207031 10.707031 C 77.390625 10.683594 77.558594 10.816406 77.578125 11 C 77.601562 11.183594 77.472656 11.351562 77.289062 11.375 C 77.105469 11.398438 76.941406 11.265625 76.917969 11.082031 C 76.894531 10.898438 77.023438 10.730469 77.207031 10.707031 " fill-opacity="1" fill-rule="evenodd"/><path fill="#191818" d="M 77.296875 10.832031 C 77.40625 10.820312 77.503906 10.898438 77.515625 11.007812 C 77.53125 11.117188 77.453125 11.21875 77.34375 11.230469 C 77.234375 11.242188 77.136719 11.164062 77.125 11.054688 C 77.109375 10.945312 77.1875 10.847656 77.296875 10.832031 " fill-opacity="1" fill-rule="evenodd"/><g clip-path="url(#id84)"><path fill="#edefec" d="M 176.414062 30.511719 L 177.320312 30.136719 C 177.03125 28.96875 178.648438 28.539062 179.03125 29.742188 C 179.359375 29.777344 179.664062 29.894531 179.945312 30.113281 C 181.308594 31.183594 180.832031 32.226562 179.238281 32.667969 C 179.214844 32.671875 179.191406 32.675781 179.167969 32.679688 C 179.015625 33.671875 177.71875 33.789062 177.464844 32.722656 C 177.320312 32.699219 177.1875 32.667969 177.058594 32.625 C 176.957031 32.59375 176.863281 32.554688 176.78125 32.507812 C 176.574219 32.945312 175.90625 33.042969 175.640625 32.664062 C 175.492188 32.488281 175.484375 32.335938 175.628906 32.207031 C 175.75 32.128906 175.832031 32.039062 175.859375 31.929688 C 175.726562 31.910156 175.582031 31.953125 175.40625 32.085938 C 175.382812 31.664062 175.359375 31.242188 175.335938 30.820312 C 175.394531 30.820312 175.46875 30.816406 175.558594 30.796875 C 175.269531 30.0625 176.109375 29.792969 176.414062 30.511719 " fill-opacity="1" fill-rule="evenodd"/></g><path fill="#f57715" d="M 176.78125 32.507812 C 176.574219 32.945312 175.90625 33.042969 175.640625 32.664062 C 175.492188 32.488281 175.484375 32.335938 175.628906 32.207031 C 175.75 32.128906 175.832031 32.039062 175.859375 31.929688 C 176.125 31.53125 175.941406 31.035156 175.558594 30.796875 C 175.269531 30.0625 176.109375 29.792969 176.414062 30.511719 C 176.4375 30.796875 177.175781 31.503906 176.78125 32.507812 " fill-opacity="1" fill-rule="evenodd"/><g clip-path="url(#id85)"><path fill="#f57715" d="M 179.453125 29.839844 C 179.625 29.902344 179.789062 29.992188 179.945312 30.113281 C 181.179688 31.082031 180.90625 32.03125 179.65625 32.527344 C 178.878906 31.40625 178.929688 30.609375 179.453125 29.839844 " fill-opacity="1" fill-rule="evenodd"/></g><g clip-path="url(#id86)"><path fill="#191818" d="M 180.707031 31.605469 C 180.675781 31.714844 180.621094 31.8125 180.550781 31.910156 C 180.203125 32.003906 179.886719 31.8125 179.699219 31.527344 C 180.039062 31.796875 180.320312 31.820312 180.707031 31.605469 " fill-opacity="1" fill-rule="evenodd"/></g><g clip-path="url(#id87)"><path fill="#f57715" d="M 177.320312 30.136719 C 177.03125 28.96875 178.648438 28.539062 179.03125 29.742188 C 178.167969 30.859375 178.011719 32.003906 179.199219 32.671875 L 179.167969 32.679688 C 179.015625 33.671875 177.71875 33.789062 177.464844 32.722656 C 178.167969 31.640625 178.0625 31.136719 177.320312 30.136719 " fill-opacity="1" fill-rule="evenodd"/></g><g clip-path="url(#id88)"><path fill="#ff914d" d="M 175.335938 30.820312 C 175.164062 30.652344 174.324219 29.976562 174.386719 30.625 C 174.195312 30.628906 174.164062 30.757812 174.230469 30.953125 C 174.070312 31.121094 174.125 31.261719 174.25 31.394531 C 174.167969 31.503906 174.179688 31.601562 174.269531 31.679688 C 174.144531 31.820312 174.183594 31.917969 174.328125 31.992188 C 174.265625 32.171875 174.324219 32.261719 174.507812 32.253906 C 174.464844 32.464844 174.558594 32.542969 174.746094 32.527344 C 174.996094 32.492188 175.222656 32.367188 175.40625 32.085938 C 175.621094 31.84375 175.574219 31.160156 175.335938 30.820312 " fill-opacity="1" fill-rule="evenodd"/></g><path fill="#ff914d" d="M 178.214844 31.355469 C 177.941406 31.140625 177.648438 30.984375 177.304688 30.992188 C 177.160156 31.039062 177.136719 31.152344 177.199219 31.308594 C 177.09375 31.410156 177.136719 31.507812 177.230469 31.609375 C 177.117188 31.742188 177.144531 31.84375 177.246094 31.933594 C 177.1875 32.09375 177.261719 32.152344 177.363281 32.191406 C 177.300781 32.378906 177.347656 32.480469 177.511719 32.488281 C 177.851562 32.449219 178.132812 32.308594 178.359375 32.070312 C 178.226562 31.851562 178.128906 31.625 178.214844 31.355469 " fill-opacity="1" fill-rule="evenodd"/><g clip-path="url(#id89)"><path fill="#ffffff" d="M 179.820312 30.605469 C 180.003906 30.585938 180.171875 30.714844 180.191406 30.902344 C 180.214844 31.082031 180.085938 31.253906 179.902344 31.273438 C 179.71875 31.296875 179.550781 31.167969 179.527344 30.984375 C 179.507812 30.796875 179.636719 30.628906 179.820312 30.605469 " fill-opacity="1" fill-rule="evenodd"/><path fill="#191818" d="M 179.910156 30.734375 C 180.015625 30.722656 180.117188 30.796875 180.128906 30.90625 C 180.144531 31.015625 180.066406 31.117188 179.957031 31.132812 C 179.847656 31.144531 179.75 31.066406 179.738281 30.957031 C 179.722656 30.847656 179.800781 30.75 179.910156 30.734375 " fill-opacity="1" fill-rule="evenodd"/></g><g clip-path="url(#id90)"><path fill="#edefec" d="M 182.160156 28.050781 L 182.660156 27.800781 C 182.5 27.023438 183.398438 26.734375 183.609375 27.539062 C 183.792969 27.558594 183.960938 27.640625 184.117188 27.785156 C 184.875 28.5 184.609375 29.195312 183.722656 29.488281 C 183.710938 29.488281 183.699219 29.492188 183.683594 29.496094 C 183.601562 30.15625 182.882812 30.234375 182.742188 29.523438 C 182.660156 29.507812 182.585938 29.488281 182.515625 29.460938 C 182.460938 29.4375 182.410156 29.410156 182.363281 29.382812 C 182.246094 29.671875 181.878906 29.738281 181.730469 29.484375 C 181.648438 29.367188 181.644531 29.265625 181.722656 29.179688 C 181.789062 29.128906 181.835938 29.066406 181.851562 28.996094 C 181.777344 28.984375 181.699219 29.011719 181.597656 29.101562 C 181.585938 28.816406 181.574219 28.539062 181.558594 28.253906 C 181.59375 28.257812 181.632812 28.253906 181.683594 28.242188 C 181.523438 27.75 181.988281 27.570312 182.160156 28.050781 " fill-opacity="1" fill-rule="evenodd"/></g><g clip-path="url(#id91)"><path fill="#f57715" d="M 182.363281 29.382812 C 182.246094 29.671875 181.878906 29.738281 181.730469 29.484375 C 181.648438 29.367188 181.644531 29.265625 181.722656 29.179688 C 181.789062 29.128906 181.835938 29.066406 181.851562 28.996094 C 181.996094 28.730469 181.894531 28.398438 181.683594 28.242188 C 181.523438 27.75 181.988281 27.570312 182.160156 28.050781 C 182.171875 28.242188 182.578125 28.710938 182.363281 29.382812 " fill-opacity="1" fill-rule="evenodd"/></g><g clip-path="url(#id92)"><path fill="#f57715" d="M 183.84375 27.601562 C 183.941406 27.644531 184.03125 27.703125 184.117188 27.785156 C 184.800781 28.429688 184.648438 29.0625 183.957031 29.394531 C 183.527344 28.644531 183.554688 28.113281 183.84375 27.601562 " fill-opacity="1" fill-rule="evenodd"/></g><g clip-path="url(#id93)"><path fill="#191818" d="M 184.539062 28.78125 C 184.523438 28.851562 184.492188 28.917969 184.453125 28.984375 C 184.261719 29.046875 184.082031 28.917969 183.980469 28.726562 C 184.171875 28.90625 184.328125 28.921875 184.539062 28.78125 " fill-opacity="1" fill-rule="evenodd"/></g><g clip-path="url(#id94)"><path fill="#f57715" d="M 182.660156 27.800781 C 182.5 27.023438 183.398438 26.734375 183.609375 27.539062 C 183.132812 28.28125 183.046875 29.046875 183.703125 29.492188 L 183.683594 29.496094 C 183.601562 30.15625 182.882812 30.234375 182.742188 29.523438 C 183.132812 28.804688 183.074219 28.464844 182.660156 27.800781 " fill-opacity="1" fill-rule="evenodd"/></g><g clip-path="url(#id95)"><path fill="#d74521" d="M 181.558594 28.253906 C 181.464844 28.144531 181 27.691406 181.03125 28.125 C 180.925781 28.128906 180.910156 28.214844 180.945312 28.34375 C 180.859375 28.457031 180.886719 28.550781 180.957031 28.636719 C 180.914062 28.710938 180.917969 28.777344 180.96875 28.828125 C 180.898438 28.921875 180.921875 28.988281 181 29.039062 C 180.964844 29.15625 181 29.214844 181.101562 29.210938 C 181.078125 29.351562 181.128906 29.40625 181.234375 29.394531 C 181.371094 29.371094 181.496094 29.289062 181.597656 29.101562 C 181.71875 28.9375 181.691406 28.484375 181.558594 28.253906 " fill-opacity="1" fill-rule="evenodd"/></g><path fill="#d74521" d="M 183.15625 28.613281 C 183.003906 28.46875 182.84375 28.363281 182.652344 28.371094 C 182.574219 28.402344 182.558594 28.476562 182.59375 28.582031 C 182.535156 28.648438 182.558594 28.714844 182.613281 28.78125 C 182.550781 28.871094 182.5625 28.9375 182.621094 28.996094 C 182.589844 29.105469 182.628906 29.144531 182.683594 29.167969 C 182.648438 29.296875 182.675781 29.363281 182.769531 29.367188 C 182.957031 29.34375 183.113281 29.246094 183.238281 29.089844 C 183.164062 28.945312 183.109375 28.792969 183.15625 28.613281 " fill-opacity="1" fill-rule="evenodd"/><g clip-path="url(#id96)"><path fill="#ffffff" d="M 184.046875 28.113281 C 184.148438 28.097656 184.242188 28.1875 184.253906 28.308594 C 184.265625 28.429688 184.195312 28.542969 184.09375 28.558594 C 183.992188 28.574219 183.898438 28.488281 183.886719 28.363281 C 183.875 28.242188 183.945312 28.128906 184.046875 28.113281 " fill-opacity="1" fill-rule="evenodd"/></g><g clip-path="url(#id97)"><path fill="#191818" d="M 184.097656 28.199219 C 184.15625 28.191406 184.214844 28.242188 184.21875 28.3125 C 184.226562 28.386719 184.183594 28.453125 184.125 28.464844 C 184.0625 28.472656 184.007812 28.421875 184.003906 28.347656 C 183.992188 28.273438 184.035156 28.207031 184.097656 28.199219 " fill-opacity="1" fill-rule="evenodd"/></g></svg>