<svg xmlns="http://www.w3.org/2000/svg" version="1.1" xmlns:xlink="http://www.w3.org/1999/xlink" xmlns:svgjs="http://svgjs.dev/svgjs" viewBox="0 0 2400 800"><defs><linearGradient x1="50%" y1="0%" x2="50%" y2="100%" id="sssurf-grad"><stop stop-color="hsl(205, 69%, 60%)" stop-opacity="1" offset="0%"></stop><stop stop-color="hsl(205, 69%, 80%)" stop-opacity="1" offset="100%"></stop></linearGradient></defs><g fill="url(#sssurf-grad)" transform="matrix(1,0,0,1,9.9305419921875,224.58709716796875)"><path d="M-10,10C27.797619047619044,14.166666666666668,97.91666666666666,34.375,171.42857142857142,30C244.94047619047618,25.625,271.42857142857144,-10.791666666666666,342.85714285714283,-11C414.2857142857142,-11.208333333333334,442.8571428571428,32.75,514.2857142857142,29C585.7142857142857,25.25,614.2857142857142,-32.75,685.7142857142857,-29C757.1428571428571,-25.25,785.7142857142857,42.208333333333336,857.1428571428571,47C928.5714285714286,51.791666666666664,957.142857142857,-3.7083333333333335,1028.5714285714284,-6C1099.9999999999998,-8.291666666666666,1128.5714285714287,39.958333333333336,1200,36C1271.4285714285713,32.041666666666664,1300,-29.166666666666668,1371.4285714285713,-25C1442.8571428571427,-20.833333333333332,1471.4285714285713,54.541666666666664,1542.8571428571427,56C1614.285714285714,57.458333333333336,1642.857142857143,-14.041666666666668,1714.2857142857142,-18C1785.7142857142856,-21.958333333333332,1814.2857142857142,36.791666666666664,1885.7142857142856,37C1957.1428571428569,37.208333333333336,1985.7142857142856,-23.25,2057.142857142857,-17C2128.5714285714284,-10.75,2157.142857142857,61.375,2228.5714285714284,67C2300,72.625,2312.2023809523807,-59.375,2400,10C2487.7976190476193,79.375,3254.1666666666665,214.58333333333331,2650,400C2045.8333333333335,585.4166666666667,156.25,795.8333333333334,-500,900" transform="matrix(1,0,0,1,0,40)" opacity="0.05"></path><path d="M-10,10C27.797619047619044,14.166666666666668,97.91666666666666,34.375,171.42857142857142,30C244.94047619047618,25.625,271.42857142857144,-10.791666666666666,342.85714285714283,-11C414.2857142857142,-11.208333333333334,442.8571428571428,32.75,514.2857142857142,29C585.7142857142857,25.25,614.2857142857142,-32.75,685.7142857142857,-29C757.1428571428571,-25.25,785.7142857142857,42.208333333333336,857.1428571428571,47C928.5714285714286,51.791666666666664,957.142857142857,-3.7083333333333335,1028.5714285714284,-6C1099.9999999999998,-8.291666666666666,1128.5714285714287,39.958333333333336,1200,36C1271.4285714285713,32.041666666666664,1300,-29.166666666666668,1371.4285714285713,-25C1442.8571428571427,-20.833333333333332,1471.4285714285713,54.541666666666664,1542.8571428571427,56C1614.285714285714,57.458333333333336,1642.857142857143,-14.041666666666668,1714.2857142857142,-18C1785.7142857142856,-21.958333333333332,1814.2857142857142,36.791666666666664,1885.7142857142856,37C1957.1428571428569,37.208333333333336,1985.7142857142856,-23.25,2057.142857142857,-17C2128.5714285714284,-10.75,2157.142857142857,61.375,2228.5714285714284,67C2300,72.625,2312.2023809523807,-59.375,2400,10C2487.7976190476193,79.375,3254.1666666666665,214.58333333333331,2650,400C2045.8333333333335,585.4166666666667,156.25,795.8333333333334,-500,900" transform="matrix(1,0,0,1,0,80)" opacity="0.24"></path><path d="M-10,10C27.797619047619044,14.166666666666668,97.91666666666666,34.375,171.42857142857142,30C244.94047619047618,25.625,271.42857142857144,-10.791666666666666,342.85714285714283,-11C414.2857142857142,-11.208333333333334,442.8571428571428,32.75,514.2857142857142,29C585.7142857142857,25.25,614.2857142857142,-32.75,685.7142857142857,-29C757.1428571428571,-25.25,785.7142857142857,42.208333333333336,857.1428571428571,47C928.5714285714286,51.791666666666664,957.142857142857,-3.7083333333333335,1028.5714285714284,-6C1099.9999999999998,-8.291666666666666,1128.5714285714287,39.958333333333336,1200,36C1271.4285714285713,32.041666666666664,1300,-29.166666666666668,1371.4285714285713,-25C1442.8571428571427,-20.833333333333332,1471.4285714285713,54.541666666666664,1542.8571428571427,56C1614.285714285714,57.458333333333336,1642.857142857143,-14.041666666666668,1714.2857142857142,-18C1785.7142857142856,-21.958333333333332,1814.2857142857142,36.791666666666664,1885.7142857142856,37C1957.1428571428569,37.208333333333336,1985.7142857142856,-23.25,2057.142857142857,-17C2128.5714285714284,-10.75,2157.142857142857,61.375,2228.5714285714284,67C2300,72.625,2312.2023809523807,-59.375,2400,10C2487.7976190476193,79.375,3254.1666666666665,214.58333333333331,2650,400C2045.8333333333335,585.4166666666667,156.25,795.8333333333334,-500,900" transform="matrix(1,0,0,1,0,120)" opacity="0.43"></path><path d="M-10,10C27.797619047619044,14.166666666666668,97.91666666666666,34.375,171.42857142857142,30C244.94047619047618,25.625,271.42857142857144,-10.791666666666666,342.85714285714283,-11C414.2857142857142,-11.208333333333334,442.8571428571428,32.75,514.2857142857142,29C585.7142857142857,25.25,614.2857142857142,-32.75,685.7142857142857,-29C757.1428571428571,-25.25,785.7142857142857,42.208333333333336,857.1428571428571,47C928.5714285714286,51.791666666666664,957.142857142857,-3.7083333333333335,1028.5714285714284,-6C1099.9999999999998,-8.291666666666666,1128.5714285714287,39.958333333333336,1200,36C1271.4285714285713,32.041666666666664,1300,-29.166666666666668,1371.4285714285713,-25C1442.8571428571427,-20.833333333333332,1471.4285714285713,54.541666666666664,1542.8571428571427,56C1614.285714285714,57.458333333333336,1642.857142857143,-14.041666666666668,1714.2857142857142,-18C1785.7142857142856,-21.958333333333332,1814.2857142857142,36.791666666666664,1885.7142857142856,37C1957.1428571428569,37.208333333333336,1985.7142857142856,-23.25,2057.142857142857,-17C2128.5714285714284,-10.75,2157.142857142857,61.375,2228.5714285714284,67C2300,72.625,2312.2023809523807,-59.375,2400,10C2487.7976190476193,79.375,3254.1666666666665,214.58333333333331,2650,400C2045.8333333333335,585.4166666666667,156.25,795.8333333333334,-500,900" transform="matrix(1,0,0,1,0,160)" opacity="0.62"></path><path d="M-10,10C27.797619047619044,14.166666666666668,97.91666666666666,34.375,171.42857142857142,30C244.94047619047618,25.625,271.42857142857144,-10.791666666666666,342.85714285714283,-11C414.2857142857142,-11.208333333333334,442.8571428571428,32.75,514.2857142857142,29C585.7142857142857,25.25,614.2857142857142,-32.75,685.7142857142857,-29C757.1428571428571,-25.25,785.7142857142857,42.208333333333336,857.1428571428571,47C928.5714285714286,51.791666666666664,957.142857142857,-3.7083333333333335,1028.5714285714284,-6C1099.9999999999998,-8.291666666666666,1128.5714285714287,39.958333333333336,1200,36C1271.4285714285713,32.041666666666664,1300,-29.166666666666668,1371.4285714285713,-25C1442.8571428571427,-20.833333333333332,1471.4285714285713,54.541666666666664,1542.8571428571427,56C1614.285714285714,57.458333333333336,1642.857142857143,-14.041666666666668,1714.2857142857142,-18C1785.7142857142856,-21.958333333333332,1814.2857142857142,36.791666666666664,1885.7142857142856,37C1957.1428571428569,37.208333333333336,1985.7142857142856,-23.25,2057.142857142857,-17C2128.5714285714284,-10.75,2157.142857142857,61.375,2228.5714285714284,67C2300,72.625,2312.2023809523807,-59.375,2400,10C2487.7976190476193,79.375,3254.1666666666665,214.58333333333331,2650,400C2045.8333333333335,585.4166666666667,156.25,795.8333333333334,-500,900" transform="matrix(1,0,0,1,0,200)" opacity="0.81"></path><path d="M-10,10C27.797619047619044,14.166666666666668,97.91666666666666,34.375,171.42857142857142,30C244.94047619047618,25.625,271.42857142857144,-10.791666666666666,342.85714285714283,-11C414.2857142857142,-11.208333333333334,442.8571428571428,32.75,514.2857142857142,29C585.7142857142857,25.25,614.2857142857142,-32.75,685.7142857142857,-29C757.1428571428571,-25.25,785.7142857142857,42.208333333333336,857.1428571428571,47C928.5714285714286,51.791666666666664,957.142857142857,-3.7083333333333335,1028.5714285714284,-6C1099.9999999999998,-8.291666666666666,1128.5714285714287,39.958333333333336,1200,36C1271.4285714285713,32.041666666666664,1300,-29.166666666666668,1371.4285714285713,-25C1442.8571428571427,-20.833333333333332,1471.4285714285713,54.541666666666664,1542.8571428571427,56C1614.285714285714,57.458333333333336,1642.857142857143,-14.041666666666668,1714.2857142857142,-18C1785.7142857142856,-21.958333333333332,1814.2857142857142,36.791666666666664,1885.7142857142856,37C1957.1428571428569,37.208333333333336,1985.7142857142856,-23.25,2057.142857142857,-17C2128.5714285714284,-10.75,2157.142857142857,61.375,2228.5714285714284,67C2300,72.625,2312.2023809523807,-59.375,2400,10C2487.7976190476193,79.375,3254.1666666666665,214.58333333333331,2650,400C2045.8333333333335,585.4166666666667,156.25,795.8333333333334,-500,900" transform="matrix(1,0,0,1,0,240)" opacity="1.00"></path></g></svg>